<?xml version="1.0" encoding="UTF-8" standalone="no"?>
<!-- Created with Inkscape (http://www.inkscape.org/) -->

<svg
   xmlns:dc="http://purl.org/dc/elements/1.1/"
   xmlns:cc="http://creativecommons.org/ns#"
   xmlns:rdf="http://www.w3.org/1999/02/22-rdf-syntax-ns#"
   xmlns:svg="http://www.w3.org/2000/svg"
   xmlns="http://www.w3.org/2000/svg"
   xmlns:sodipodi="http://sodipodi.sourceforge.net/DTD/sodipodi-0.dtd"
   xmlns:inkscape="http://www.inkscape.org/namespaces/inkscape"
   width="1052.3622"
   height="400"
   id="svg13033"
   version="1.1"
   inkscape:version="0.48.3.1 r9886"
   sodipodi:docname="browserify.svg"
   inkscape:export-filename="/home/substack/media/vector/browserify.png"
   inkscape:export-xdpi="63.950798"
   inkscape:export-ydpi="63.950798">
  <defs
     id="defs13035" />
  <sodipodi:namedview
     id="base"
     pagecolor="#ffffff"
     bordercolor="#666666"
     borderopacity="1.0"
     inkscape:pageopacity="0.0"
     inkscape:pageshadow="2"
     inkscape:zoom="0.35"
     inkscape:cx="699.28571"
     inkscape:cy="140"
     inkscape:document-units="px"
     inkscape:current-layer="layer1"
     showgrid="false"
     height="500px"
     inkscape:window-width="1364"
     inkscape:window-height="766"
     inkscape:window-x="0"
     inkscape:window-y="0"
     inkscape:window-maximized="0" />
  <metadata
     id="metadata13038">
    <rdf:RDF>
      <cc:Work
         rdf:about="">
        <dc:format>image/svg+xml</dc:format>
        <dc:type
           rdf:resource="http://purl.org/dc/dcmitype/StillImage" />
        <dc:title></dc:title>
      </cc:Work>
    </rdf:RDF>
  </metadata>
  <g
     inkscape:label="Layer 1"
     inkscape:groupmode="layer"
     id="layer1"
     transform="translate(0,-652.36218)">
    <path
       inkscape:connector-curvature="0"
       style="fill:#e6b35a;fill-opacity:1;stroke:#ffffff;stroke-width:1px;stroke-linecap:butt;stroke-linejoin:miter;stroke-opacity:0"
       d="m 268.32266,812.83676 c -2.816,0.0262 -5.44648,0.52012 -7.53125,1.5625 -4.66856,2.33428 -10.90142,1.20071 -15.5625,3.53125 -4.48863,2.24431 -6.7678,5.31117 -10.40625,7.78125 0.42366,-1.28916 0.85169,-2.5484 1.28125,-3.8125 -0.48266,0.57081 -0.94202,1.16077 -1.46875,1.6875 -0.51252,0.51252 -0.75835,1.36152 -0.84375,2.375 -0.0854,1.01348 -0.0346,2.17229 0.0312,3.34375 0.066,1.17146 0.15219,2.3573 0.0937,3.34376 -0.0437,0.73886 -0.28248,1.22069 -0.53125,1.6875 7.8882,-3.74856 18.35466,-7.8016 21.75,-4.40626 2.81935,2.81936 4.08693,6.24319 7.0625,9.21876 0.46985,0.46986 1.5201,0.68075 2.5625,0.96875 0.5969,-10e-4 1.15064,-0.10657 1.5625,-0.3125 0.25011,-0.12505 0.86539,0.0408 1.0625,-0.15625 0.64344,-0.64344 0.87715,-1.2209 1.59375,-1.9375 0.53762,-0.53762 1.0625,-2.0025 1.0625,-2.84375 0,-0.87977 -0.64184,-2.57935 -1.25,-3.1875 -0.21229,-0.2123 -1.5625,-1.1944 -1.5625,-1.40626 0,-1.05265 3.60196,1.50822 3.6875,1.59376 0.23571,0.23571 -0.0482,0.98305 0.1875,1.21875 0.34255,0.34255 -0.058,0.94651 0.1875,1.4375 0.81744,1.63488 -0.62801,4.31551 -1.4375,5.125 -0.96665,0.96665 1.21448,0.37927 1.59375,0 0.36406,-0.36406 0.7352,-1.11019 1.0625,-1.4375 0.026,-0.026 -0.0208,-0.5 0,-0.5 0.31896,0 0.3079,2.6921 0,3 -0.96427,0.96427 -1.87267,1.77824 -3.4375,2.125 3.6622,2.70725 8.83,4.955 11.5,7.625 0.75804,0.75804 5.18315,-0.24566 5.65625,-0.71875 3.36299,-3.36299 5.79865,-9.3299 9.90625,-13.4375 1.27203,-1.27203 -1.02347,-7.39847 -1.40625,-7.78126 -1.57591,-1.5759 -1.25953,-5.50954 -3.53125,-7.78125 -4.08465,-4.08466 -14.42701,-7.98487 -22.875,-7.90625 z"
       id="path9270"
       inkscape:export-filename="/home/substack/media/vector/browserify.png"
       inkscape:export-xdpi="63.81599"
       inkscape:export-ydpi="63.81599" />
    <path
       inkscape:connector-curvature="0"
       style="fill:#e6b35a;fill-opacity:1;stroke:#ffffff;stroke-width:1px;stroke-linecap:butt;stroke-linejoin:miter;stroke-opacity:0"
       d="m 237.85391,806.27426 c -0.17532,0.0422 -0.34266,0.15516 -0.5,0.3125 -0.0884,0.0884 -0.44286,-0.0884 -0.53125,0 -0.54452,0.54452 -1.47503,0.75628 -2.125,1.40625 -1.79125,1.79125 -3.35872,3.63567 -5.1875,5.5 -8.7088,3.14112 -16.8268,5.81536 -26.65625,6.96875 0.73734,0.073 1.49501,0.17937 2.25,0.3125 -1.57166,0.14937 -4.08473,0.0736 -4.875,0.46875 -0.23629,0.11815 -1.4322,0.47017 -1.65625,0.5 0.41663,-0.0408 1.7944,0.0312 2,0.0312 1.2435,0 2.55286,0.375 3.71875,0.375 1.74817,0 3.81733,-0.0545 5.8125,-0.0937 3.29199,1.10149 6.3555,2.65385 8.53125,4.4375 1.24628,1.02169 -0.24677,8.02703 -0.53125,9.28126 -1.31781,5.81005 3.53964,22.47277 0.46875,26.21875 -1.34369,1.63907 0.73593,6.38169 1.25,9.65625 1.59046,1.21156 3.02171,5.16842 3.46875,6.0625 0.41698,0.83396 1.5,1.84538 1.5,2.75 0,0.1235 -2.03254,-2.03254 -2.25,-2.25 -0.31092,-0.31092 -1.87193,-2.35555 -2.96875,-3.40625 -0.12797,0.7532 -0.21095,1.84183 -0.25,3.125 0.66482,0.68659 1.38606,1.36586 1.71875,2.03125 0.66506,1.33012 1.35574,2.60574 2.25,3.5 0.7648,0.7648 -1.56804,-0.53402 -2,-0.75 -0.27197,-0.13598 -1.07971,-0.8056 -1.96875,-1.4375 0.0684,7.22902 0.76614,17.35103 1.0625,20.34375 0.62032,6.26388 -0.23848,12.2101 -0.25,12.09375 -0.0152,-0.15315 -3.0206,3.69673 -5.0625,6.1875 -3.01771,3.68109 -6.63169,9.42057 -10.34375,14.15625 1.60396,-1.59496 3.64788,-3.55348 5.625,-4.4375 4.55125,-2.03497 15.75346,-10.80976 22.40625,-15.4375 1.47292,1.05932 4.58752,-3.66249 9.1875,0.9375 0.59132,0.59132 2.45858,6.375 2.09375,6.375 -3.23966,0 -3.83001,3.20123 -2.09375,4.9375 0.88667,0.88667 1.75102,0.47466 2.4375,-0.46875 0.71173,-2.02629 1.41669,-4.73956 0.15625,-6 -0.20833,-0.20833 0.20833,-1.04166 0,-1.25 -1.12771,-1.12771 -0.64807,-3.39807 -2,-4.75 -0.46414,-0.46414 -2.46406,-1.53366 -2.96875,-2.625 -0.0362,-0.0349 -0.0899,-0.0587 -0.125,-0.0937 -0.36889,-0.36889 -1.16153,-0.31944 -1.71875,-0.5 -0.4143,-0.54444 -1.27365,-1.5807 -0.46875,-3.6875 1.40759,-3.68426 1.79563,-10.41178 1.40625,-14.34375 -0.13103,-1.3231 0.0311,-4.14052 0.34375,-7.375 0.003,-0.01 -0.003,-0.0216 0,-0.0312 0.49929,-1.91373 1.28282,-3.9719 1.96875,-5.34375 0.53424,-1.06848 -0.0885,-3.4115 0.71875,-4.21875 0.43305,-0.43305 0.37866,-1.35219 0.34375,-2.25 -2.31475,0.59258 -5.0486,1.24609 -6.09375,1.5625 0.1269,-0.11956 0.26326,-0.26326 0.34375,-0.34375 0.28182,-0.28182 1.24382,-0.49691 1.75,-0.75 1.67812,-0.83906 3.20284,-1.73063 4.15625,-2.1875 0.0494,-0.10854 0.10844,-0.20219 0.1875,-0.28125 1.49712,-1.49712 0.16728,-6.08649 -1.34375,-9.3125 -0.0579,-0.83044 -0.0515,-1.6321 0.0625,-2.40625 0.6895,-4.68029 0.64249,-9.48095 0.53125,-14.28125 -0.25202,-0.0131 -0.52898,-0.0312 -0.84375,-0.0312 -0.13466,0 -3.10548,-0.15698 -3.84375,-0.0625 0.19464,-0.0801 0.74472,-0.38799 1.34375,-0.6875 0.34905,-0.17452 1.95844,-0.37073 3.3125,-0.53125 -0.0205,-0.85613 -0.0467,-1.70657 -0.0625,-2.5625 -2.34401,0.19674 -5.87397,0.46773 -5.5,0.0937 0.59909,-0.59909 3.87597,-0.56298 4.75,-1 0.10016,-0.0501 0.37045,-0.15748 0.71875,-0.28125 -0.0365,-2.85817 0.002,-5.70624 0.25,-8.53125 0.29337,-0.17988 0.66631,-0.38025 0.96875,-0.5625 0.20155,-0.48907 0.37305,-0.97919 0.34375,-1.71876 -0.0391,-0.98742 -0.22515,-2.15324 -0.40625,-3.3125 -0.18111,-1.15925 -0.36011,-2.32679 -0.375,-3.34375 -0.0149,-1.01696 0.16548,-1.87697 0.625,-2.4375 0.47226,-0.57608 0.85719,-1.1969 1.28125,-1.8125 0.14661,-0.62937 0.29525,-1.2791 0.4375,-1.90625 0.52071,-2.29559 -0.86326,-5.63487 -0.0312,-7.8125 0.13345,-0.34933 1.21987,-1.92307 1.1875,-2.25 -0.0115,-0.11631 -0.12921,-0.14965 -0.3125,-0.125 -0.91762,0.12336 -3.67624,1.75354 -5.53125,2.8125 0.40672,-1.47183 -0.95418,-3.4308 -2.09375,-3.15625 z m -1.9375,68.81251 c -0.19585,0.1801 -0.375,0.30128 -0.375,0.125 0,-0.023 0.15454,-0.0564 0.375,-0.125 z"
       id="path9214"
       inkscape:export-filename="/home/substack/media/vector/browserify.png"
       inkscape:export-xdpi="63.81599"
       inkscape:export-ydpi="63.81599" />
    <path
       inkscape:connector-curvature="0"
       style="fill:#e6b35a;fill-opacity:1;stroke:#ffffff;stroke-width:1px;stroke-linecap:butt;stroke-linejoin:miter;stroke-opacity:0"
       d="m 156.44766,732.80551 c -1.355,0.16725 -2.69747,0.38874 -3.96875,0.8125 -8.58487,2.86162 -16.49273,6.43508 -24.75,9.1875 -3.13062,1.04354 -6.77844,4.45172 -9.1875,5.65625 -9.98024,4.99012 -18.886263,10.36713 -28.187491,15.53125 -1.279207,0.32249 -2.448667,0.48888 -2.90625,0.0312 -7.524674,-7.52468 7.200148,-11.75595 4.9375,-16.28125 -3.5112,-7.0224 -14.717515,1.96751 -16.28125,3.53125 -1.484996,1.48499 -1.40625,4.84261 -1.40625,7.78125 0,0.55367 -0.35283,3.17842 0,3.53125 1.647371,1.64737 1.568164,4.41192 3.53125,6.375 3.422495,3.4225 9.74099,3.17299 14.09375,1.46875 0.04143,0.0818 0.08304,0.1361 0.125,0.21875 1.875824,-0.8694 3.28443,-1.53563 3.46875,-1.6875 8.033011,-6.61879 15.253931,-9.40822 24.749991,-14.15625 2.48347,-1.24173 13.05631,-7.9344 15.5625,-9.1875 3.34339,-1.67169 8.43106,-2.56851 13.4375,-3.53125 0.94241,-0.94241 2.16078,-1.51608 3.5625,-1.8125 1.0656,-2.51128 2.12074,-4.9822 3.21875,-7.46875 z m 13.46875,76.125 c -4.87292,5.14852 -10.13465,8.61841 -13.90625,9.53125 0.10035,0.0602 0.21098,0.10097 0.3125,0.15625 -3.30184,0.79786 -6.40176,1.68301 -8.09375,3.375 -0.32687,0.32687 -1.66682,-0.21346 -2.09375,0 -8.70726,4.35363 -20.83695,3.14945 -26.875,9.1875 -3.72263,3.72265 24.46665,-3.53125 24.75,-3.53125 2.43131,0 7.72488,-1.04994 9.875,-2.125 1.04759,-0.5238 3.77165,0 4.96875,0 7.9015,0 12.36123,2.66499 19.78125,6.37501 2.27429,1.13715 2.93552,3.62301 4.25,4.9375 2.59974,2.59973 5.7231,5.0712 7.78125,9.1875 0.61271,1.22548 -0.29456,6.08044 0.71875,7.09375 6.39798,6.39798 -5.6723,36.76605 -9.90625,41 -4.92796,4.92796 -10.499,9.78025 -14.84375,14.125 -1.92522,1.92522 -5.03057,2.21808 -7.0625,4.25 -1.03792,1.03793 -4.01352,0.60051 -5.6875,1.4375 -5.62282,2.81141 -11.1379,2.74083 -16.96875,5.65625 -1.57489,0.78744 -4.74198,1.06911 -8.40625,1.21875 l -7.5,-1.625 c -2.26974,1.43321 1.76257,-1.20754 -0.875,0.375 -0.75804,0.45483 -1.71381,1.59375 -2.8125,1.59375 -0.4977,0 -3.37648,-1.24851 -3.71875,-0.90625 -0.34578,0.34578 -1.36879,0.4938 -1.78125,0.90625 l -1.59375,1.5625 c -1.46334,1.46334 0.54577,4.625 2.65625,4.625 0.9753,0 1.16162,-1.88037 1.59375,-2.3125 0.96017,-0.96016 3.08256,-1.59375 4.59375,-1.59375 0.0412,0 -0.1875,0.26715 -0.1875,0.34375 l 0,1.78125 c 0,0.69579 -0.0722,3.33192 -0.34375,3.875 -0.23998,0.47996 -0.10995,1.12614 -0.34375,1.59375 -0.0833,0.16667 -0.37384,0.53125 -0.1875,0.53125 0.67431,0 0.55945,-5.125 3.375,-5.125 1.82824,0 2.72026,1.37575 4.21875,2.125 0.74671,0.37335 1.76292,0.35021 2.5,0.71875 0.45044,0.22522 0.95444,0.30535 1.40625,0.53125 0.14464,0.0723 0.875,0.57922 0.875,0.53125 0,-0.54398 -3.06415,-1.93081 -4,-3.875 5.68336,-1.18949 11.90084,-0.0739 17.625,-1.21875 9.462,-1.8924 18.20101,-3.91578 27.09375,-8.28125 0.0347,0.34626 0.1261,0.6261 0.3125,0.8125 0.22097,0.22096 2.03168,-0.75021 2.28125,-0.875 1.91436,-0.95717 7.48806,-0.94346 9.375,0 0.0476,0.0238 0.96174,0.0278 1.84375,0.0625 -0.64236,-0.23877 -1.22774,-0.50899 -1.3125,-0.59375 -0.23794,-0.23793 -3.27662,-0.80788 -4.25,-1.78125 -0.28771,-0.28772 -0.48464,-0.81436 -0.59375,-1.46875 17.30442,-17.16833 33.73024,-29.47379 28.1875,-57.1875 -1.49156,-7.4578 -2.86272,-15.55971 -7.09375,-21.90625 -7.01275,-10.51915 -21.04118,-8.38292 -25.84375,-12.43751 -0.93808,-0.20533 -1.93662,-0.34604 -2.3125,-0.875 -0.0301,-0.002 -0.15625,0.006 -0.15625,0 0,-0.0128 0.0757,-0.0683 0.0937,-0.0937 -0.0612,-0.11711 -0.0937,-0.24722 -0.0937,-0.40625 0,-3.29792 9.44003,-5.24019 -1.625,-11.28125 z m 15,108.03126 c 0.77326,0.28743 1.6396,0.51664 1.875,0.28125 0.17021,-0.1702 -0.84365,-0.2407 -1.875,-0.28125 z"
       id="path9301"
       inkscape:export-filename="/home/substack/media/vector/browserify.png"
       inkscape:export-xdpi="63.81599"
       inkscape:export-ydpi="63.81599" />
    <path
       inkscape:connector-curvature="0"
       style="fill:#e6b35a;fill-opacity:1;stroke:#ffffff;stroke-width:1px;stroke-linecap:butt;stroke-linejoin:miter;stroke-opacity:0"
       d="m 156.63516,736.05551 c -1.17426,-0.0573 -3.99643,1.65625 -5.09375,1.65625 -3.90922,0 -28.24628,12.24628 -30.5,14.5 -1.2442,1.2442 -1.72421,6.22421 -2.5,7 -2.17697,2.17698 -3.42357,7.83208 -4.84375,13.125 -0.9845,2.39536 -1.62551,5.09426 -2.65625,6.125 -0.36874,0.36875 -0.19356,1.44357 -0.5,1.75 -0.92671,0.92671 -2.57552,1.57553 -3.25,2.25 -0.24665,0.24665 -2.12266,0.43634 -2.75,0.75 -0.66329,0.33165 -1.38514,0.61419 -1.59374,0.6875 0.43504,-0.0384 1.77085,0.27606 1.84374,0.3125 0.40634,0.20317 1.16405,0.16406 1.5,0.5 0.45717,0.45718 1.17805,2 1.75,2 4.75618,0 -1.64923,-2.70001 2.53125,-2.96875 1.59422,1.64739 6.52517,11.72749 7.71875,16.6875 0.008,0.0549 0.023,0.10054 0.0312,0.15625 0.0785,0.52994 0.12815,1.15204 0.1875,1.75 0.0397,1.12479 0.12239,2.15616 0.21875,3.09375 0.57282,12.37316 -1.375,33.05577 -1.375,40.31251 0,4.87253 -0.69665,21.20046 0.71875,24.03125 0.63855,1.27711 -0.24868,3.30986 -0.71875,4.25 -2.48581,4.97162 2.10055,26.94797 -1.15625,31.5 0.62121,0.89851 1.08389,1.92764 1.84375,2.6875 0.32509,0.32509 2.92507,9.96169 4.3125,15.15625 6.10366,-0.0575 12.29056,0.0422 15.6875,-1.65625 3.57309,-1.78654 7.79297,-2.89648 11,-4.5 0.69005,-0.34502 3.74372,-1.81783 5.40625,-2.375 -2.29063,-0.33637 -7.54026,-2.125 -7.90625,-2.125 -0.99727,0 -2.16678,-0.27564 -3.40625,-0.71875 0.12677,-0.0278 0.24825,-0.0649 0.375,-0.0937 -4.30263,-2.88258 -7.52127,-10.09862 -6.375,-15.625 -2.07024,-11.5158 -0.5625,-29.51828 -0.5625,-39.6875 0,-10.84076 1.2382,-22.1679 1.40625,-33.59376 -0.8654,0.25711 -1.71527,0.44098 -1.9375,0.21875 -0.49843,-0.49843 -0.73855,-4.82135 -1.0625,-7.46875 -0.36638,-0.83529 -0.62006,-1.46381 -0.6875,-1.53125 -0.96819,-0.96819 -1.68577,-2.37154 -2.25,-3.5 -0.0637,-0.12729 -0.94542,-1.5 -0.75,-1.5 0.46622,0 2.10644,2.35644 2.5,2.75 0.0893,0.0893 0.18879,0.146 0.3125,0.1875 0.0114,10e-4 0.02,-10e-4 0.0312,0 0.4914,0.0634 0.86758,0.10126 0.90625,0.0625 0.68211,-0.68211 -0.5,-2.27926 -0.5,-2.5 0,-0.5688 0.0757,-1.33987 0.15625,-2.1875 0.72638,0.59492 1.40683,0.87442 1.84375,0.4375 1.86282,-1.86281 -1.50341,-10.25341 -2.5,-11.25 -0.15097,-0.15097 0,-1.26291 0,-1.5 0,-0.74919 -0.16496,-1.5721 -0.375,-2.40625 0.0205,-1.50058 0.10236,-2.93752 0.3125,-4.125 0.3978,0.42662 0.79432,0.89716 1.0625,1.03125 1.17354,0.58677 1.67187,-1.84374 2,-2.5 0.90221,-1.80442 -0.4809,-5.46768 -2.25,-8.96875 -0.25911,-6.97512 -1.00008,-16.2949 -1.4375,-20.5625 -9.7e-4,-0.009 9.7e-4,-0.0219 0,-0.0312 0.22684,-1.10184 0.50674,-2.25674 1.1875,-2.9375 0.70711,-0.7071 2,0 3,0 -1.76376,1.12244 1.3622,5.1378 4,2.5 4.23293,-4.23292 6.97716,-11.47716 11,-15.5 0.42378,-0.42378 4.93216,-5.06784 4.5,-5.5 -0.09,-0.09 -0.2385,-0.14806 -0.40625,-0.15625 z m -2.1875,178.78126 c 0.63727,0.0936 1.09375,0.0764 1.09375,-0.125 0,-0.18924 -0.44801,-0.0914 -1.09375,0.125 z M 102.94767,783.89926 c -0.0833,0.007 -0.15625,0.0246 -0.15625,0.0625 0,0.002 0.12427,-0.0513 0.15625,-0.0625 z"
       id="path9368"
       inkscape:export-filename="/home/substack/media/vector/browserify.png"
       inkscape:export-xdpi="63.81599"
       inkscape:export-ydpi="63.81599" />
    <path
       style="fill:#e6b35a;fill-opacity:1;stroke:#ffffff;stroke-width:1px;stroke-linecap:butt;stroke-linejoin:miter;stroke-opacity:0"
       d="m 97.916419,875.43052 c -0.376519,0.0768 -1.385107,0.9113 -1.625,1.03125 -1.298836,0.64942 -3.04632,1.04632 -4,2 -1.079567,1.07957 -2.529934,1.52994 -3.75,2.75 -0.833333,0.83334 -1.416667,1.91667 -2.25,2.75 -0.317445,0.31745 0.990756,2.98151 1.25,3.5 0.498668,0.99734 0.493692,2.23739 1,3.25 0.467612,0.93523 0.697774,4.44778 1.25,5 0.523124,0.52313 0.252584,-0.003 0.5,-0.25 0.119949,-0.11995 0.463887,0.53611 0.75,0.25 0.618553,-0.61855 2.026486,-0.26324 3,-0.75 1.716305,-0.85815 5.655109,0.17245 7.500001,-0.75 0.8876,-0.4438 2.07816,-0.74025 3.31249,-0.9375 0.0793,0.0742 0.13979,0.14522 0.21875,0.21875 -0.009,0.0206 -0.0223,0.042 -0.0312,0.0625 0.18368,0.13038 0.35412,0.27348 0.53125,0.40625 0.47967,0.43018 0.95228,0.83122 1.21875,0.96875 0.006,0.005 0.0252,-0.005 0.0312,0 1.05085,0.88662 2.05343,1.86592 3.25,3.0625 1.73619,1.73619 4.51194,14.07444 4.9375,14.5 1.79073,1.79073 1.9216,7.57784 3.53125,9.1875 0.92268,0.92268 1.3396,2.05835 2.125,2.84375 0.97597,0.97596 2.70402,1.29777 3.53125,2.125 1.04575,1.04574 6.6144,-5.5519 7.4375,-6.375 0.35558,-0.35559 0.83905,-1.61593 1.0625,-1.75 0.54421,-0.32652 1.46618,-0.1511 1.75,-0.71875 0.0711,-0.1422 -0.0675,-0.22937 -0.28125,-0.28125 l -8.90625,-9.28125 c -1.67936,0 -3.362,-7.612 -4.9375,-9.1875 -4.76352,-4.76352 -8.18312,-8.73352 -12.21875,-12.875 -0.73229,-1.32352 -1.33056,-2.73681 -2.5625,-3.96875 -1.15824,-1.15825 -2.90432,-2.30866 -3.74999,-4 -0.19468,-0.38935 -2.399143,-2.7228 -3.125001,-2.5625 -0.04839,0.0107 -0.09079,0.0283 -0.125,0.0625 -0.0459,0.0459 -0.08144,0.10663 -0.125,0.15625 -0.101381,-0.12412 -0.230256,-0.26151 -0.375,-0.40625 -0.02358,-0.0236 -0.07121,-0.0422 -0.125,-0.0312 z"
       id="path9750"
       inkscape:connector-curvature="0"
       inkscape:export-filename="/home/substack/media/vector/browserify.png"
       inkscape:export-xdpi="63.81599"
       inkscape:export-ydpi="63.81599" />
    <path
       inkscape:connector-curvature="0"
       style="fill:#e6b35a;fill-opacity:1;stroke:#ffffff;stroke-width:1.02621508px;stroke-linecap:butt;stroke-linejoin:miter;stroke-opacity:0"
       d="m 176.41641,799.18051 c -0.1777,0.24702 -0.69988,0.86853 -0.78125,1.03125 -0.10596,0.21191 -0.2621,0.45095 -0.40625,0.6875 0.19011,-0.23046 0.38423,-0.47798 0.59375,-0.6875 0.1833,-0.1833 0.43913,-0.73475 0.59375,-1.03125 z m -1.1875,1.71875 c -1.81314,2.19795 -2.8441,5.2191 -4.71875,7.09375 -1.43308,1.43308 -2.5644,3.40685 -1.75,4.25 l 1.21875,-0.875 c -0.31608,-0.63217 0.21907,-1.34439 0.53125,-1.96875 0.19003,-0.38006 0.71875,-1.48742 0.71875,-1.0625 0,0.67764 2.27069,1.44806 3.1875,0.53125 1.21322,-1.21322 -1.26873,-2.80627 -0.375,-4.59375 0.23166,-0.46331 0.53125,-1.21935 0.53125,-1.75 0,-0.51076 0.33019,-1.08992 0.65625,-1.625 z m -11.25,14.5625 c -2.59682,0.45845 -5.15569,1.28311 -7.40625,2.25 -2.25537,0.21012 -4.50444,0.42283 -6.59375,1.15625 -8.58487,3.01362 -16.49273,6.75763 -24.75,9.65625 -3.13062,1.09897 -6.77844,4.70025 -9.1875,5.96876 -4.89147,2.57565 -9.5141,5.24353 -14.06249,7.9375 -0.50819,1.18376 -0.62039,2.41548 0.0625,3.78125 0.58937,1.17874 1.25903,1.91351 1.96875,2.375 4.36719,-2.52174 8.92405,-4.65119 14.15624,-7.40625 2.48347,-1.30768 13.05631,-8.36784 15.5625,-9.6875 3.34339,-1.7605 8.43106,-2.70488 13.4375,-3.71876 1.48656,-1.56553 3.65897,-2.17455 6.15625,-2.15625 0.76119,0.005 1.56578,0.0724 2.375,0.1875 0.6245,-0.15692 1.13406,-0.22083 1.34375,0 0.10882,0.1146 0.21574,0.24953 0.34375,0.34375 1.11598,0.24287 2.24509,0.52534 3.375,0.90625 2.56127,0.22907 5.58712,0.12214 7.28125,1.90625 2.90351,3.05775 9.52247,5.30652 13,8.96876 2.19595,2.3126 2.09231,7.03508 3.5,10 0.57728,1.21589 2.70688,10.81442 2.5625,12.4375 -0.0218,-0.26829 -0.0512,-0.52868 -0.15625,-0.75 -0.45691,-0.96234 -1.30915,-3.40907 -1.78125,-3.90625 l -1.59375,-1.65625 c -0.28186,-0.29683 -0.8346,-0.18894 -1.1875,-0.28125 -0.002,-5.5e-4 0.002,-0.0308 0,-0.0312 -0.0243,-0.0692 -0.0495,-0.10947 -0.0937,-0.15625 -0.59096,-0.62235 -1.25828,-0.33151 -1.875,-0.65625 -0.26467,-0.13936 -0.62392,0.007 -0.875,-0.125 -2.54167,-1.33833 -4.875,2.82712 -4.875,5.125 0,1.32827 2.15015,4.08495 3.8125,4.5 0.3532,-0.3532 1.80894,-0.26385 2.28125,-0.5 0.64923,-0.32461 1.49737,-1.0625 1.96875,-1.0625 0.11297,0 -0.92278,0.73528 -1.59375,1.40625 -0.30523,0.30524 -0.95427,0.71084 -1.53125,1.1875 0.0972,0.364 0.2039,0.72274 0.4375,0.96875 0.0884,0.0931 -0.0884,0.4694 0,0.5625 0.4396,0.46296 0.5833,1.13481 0.59375,1.875 0.88315,-0.0216 1.87709,-0.1875 2.4375,-0.1875 0.92169,0 1.9375,-0.556 1.9375,-0.34375 0,0.2498 -2.2796,0.5932 -2.65625,0.71875 -0.60893,0.20297 -1.1858,0.37034 -1.75,0.5625 -0.053,0.71775 -0.16819,1.45287 -0.21875,2.125 -0.0203,0.002 -0.0425,-0.002 -0.0625,0 -0.15733,2.31927 -0.55021,4.60156 -1.09375,6.8125 0.009,0.27153 0.0157,0.54175 0.0312,0.8125 -0.31028,0.84474 -0.66363,1.64633 -1,2.4375 -4.9757,15.03866 -17.57339,26.57702 -24.75,28.40625 0.10035,0.0634 0.21098,0.098 0.3125,0.15625 -3.30184,0.84024 -6.40176,1.78063 -8.09375,3.5625 -0.32687,0.34423 -1.66682,-0.2248 -2.09375,0 -8.70726,4.58488 -20.83695,3.32873 -26.875,9.6875 -3.72263,3.92038 24.46665,-3.71875 24.75,-3.71875 2.43131,0 7.72488,-1.11784 9.875,-2.25 1.04759,-0.55163 3.77165,0 4.96875,0 5.05589,0 8.71022,1.14879 12.625,3 0.90742,-0.57597 1.6535,-0.9375 2.0625,-0.9375 0.68639,0 6.49066,-1.68331 8.90625,-2.03125 -0.76799,-0.26217 -1.65528,-0.81891 -1.78125,-1.5 -2.98834,-0.7145 -5.51485,-1.46887 -6.96875,-3 -0.0303,-0.0319 -0.0467,-0.0558 -0.0625,-0.0937 -0.21383,-0.13628 -0.40928,-0.30574 -0.59375,-0.5 -0.0735,-0.0774 -1.5,0.0619 -1.5,0 0,-0.37914 7.36053,-6.17499 8.5,-7.375 1.8027,-1.89845 3.64474,-2.26493 5.5,-4.21875 3.11964,-3.28534 7.88036,-7.77715 11,-11.0625 0.091,0.0958 6.54613,-5.30326 7,-5.78125 1.23503,-1.30063 2.54303,-2.27315 3.8125,-3.21875 0.003,-0.0129 0.0281,-0.0183 0.0312,-0.0312 0.49808,-1.88866 2.42444,-4.41213 2.65625,-4.65625 0.41108,-0.43292 0.7459,-1.06501 1.0625,-1.78125 -0.0215,-0.27702 -0.0624,-0.71393 -0.0624,-0.8439 0,-4.35502 0.15086,-8.48699 0.28125,-12.5625 0.39839,-3.9595 0.50396,-8.15775 0.25,-12.09375 0.0568,-2.48279 0.48578,-13.76789 -0.0312,-14.3125 -0.75,-0.78984 -1.75,-1.30391 -2.5,-2.09376 -0.26734,-0.28154 -0.68482,-0.39719 -1.1875,-0.4375 -0.87538,0.25137 -1.69182,0.47307 -1.8125,0.59375 -0.64835,0.64836 -1.73234,0.98235 -2.5,1.75001 -0.57341,0.57341 -1.18561,1.68561 -2,2.5 -0.7868,0.7868 -1.2627,1.5127 -2,2.25 -0.0108,0.0108 -0.75,1.27604 -0.75,1 0,-0.0996 0.64016,-0.89015 0.75,-1 0.56586,-0.56585 0.48103,-1.98103 1,-2.5 1.55324,-1.55323 3.85303,-3.12075 4.6875,-5.56251 -0.0608,-0.0563 -0.14462,-0.14234 -0.1875,-0.1875 -0.76979,-0.81067 -2.17888,-1.62444 -3.90625,-2.4375 5.2e-4,0.27027 -0.0159,0.53178 -0.0937,0.6875 -0.58042,1.16084 -2.33484,4.33485 -3,5.00001 -0.17824,0.17824 -0.32836,0.66152 -0.46875,1.125 -0.007,0.13174 -0.0312,0.28372 -0.0312,0.375 0,0.10328 -0.10681,0.22955 -0.21875,0.34375 -0.0924,0.2368 -0.17623,0.40625 -0.28125,0.40625 -0.19718,0 0.0676,-0.18823 0.28125,-0.40625 0.0811,-0.20787 0.16877,-0.45058 0.25,-0.71875 0.0379,-0.70125 0.17915,-1.8354 0.71875,-2.37501 0.15858,-0.15858 -0.10407,-0.79185 0,-1 0.35194,-0.70388 1.28706,-3.42588 1,-4 -0.0369,-0.0738 -0.0586,-0.194 -0.0937,-0.3125 -0.012,-0.005 -0.0192,-0.0263 -0.0312,-0.0312 -5.81905,-2.41077 -13.9597,-4.72625 -17.625,-6.65625 -1.56273,-0.82288 -3.52522,-0.56719 -4.5,-1.59375 -1.96046,-2.06459 -8.12203,1.21171 -10.5625,-1.90625 z"
       id="path9827"
       inkscape:export-filename="/home/substack/media/vector/browserify.png"
       inkscape:export-xdpi="63.81599"
       inkscape:export-ydpi="63.81599" />
    <path
       inkscape:connector-curvature="0"
       style="fill:#e6b35a;fill-opacity:1;stroke:#ffffff;stroke-width:0.90826339px;stroke-linecap:butt;stroke-linejoin:miter;stroke-opacity:0"
       d="m 313.29141,814.49301 c 1.80857,3.10723 8.43094,5.28015 8.15625,7.46875 -4.79629,3.53804 -11.55455,5.41335 -13.875,11.62501 -2.04891,2.85785 -3.86443,5.82164 -5.46875,8.9375 -0.55519,0.68578 -1.1157,1.33445 -1.65625,1.875 -0.46579,0.46579 -0.95115,1.52731 -1.25,2.125 -0.28958,0.57917 -1.06211,1.4371 -1.40625,1.78125 -0.87112,0.87112 -1.75045,3.34419 -2.65625,4.25 -0.0193,0.0193 -0.0657,0.14894 -0.0937,0.1875 -0.82244,0.37584 -1.77015,0.74445 -2.71875,1.21875 -0.87188,0.43594 -1.81198,0.10911 -2.65625,0.53125 -0.0768,0.0384 -0.18933,0.0287 -0.3125,0 0.40529,0.18595 3.88168,1.0625 4.1875,1.0625 0.86622,0 2.01571,0.35712 3.15625,0.84375 0.0103,0.0101 0.0211,0.0211 0.0312,0.0312 0.0343,0.0343 0.23823,0.13122 0.5,0.21875 0.38534,0.17571 0.72672,0.34687 1.09375,0.53125 -0.58927,-0.0969 -1.67085,-0.30644 -2.875,-0.5625 -0.0391,0.17688 -0.0907,0.35311 -0.125,0.53125 0.59806,0.59807 1.43336,1.0896 1.9375,1.59375 0.0438,0.0438 0.71875,0.0567 0.71875,0.15625 0,0.2357 -0.48305,0 -0.71875,0 -0.29389,0 -1.21588,-0.0965 -2.15625,-0.21875 -0.16162,1.43288 -0.19102,2.89475 -0.0312,4.40625 -0.0218,4.53641 -0.11547,9.07646 -0.15625,13.625 -0.003,0.01 0.003,0.0215 0,0.0312 -0.23736,0.8655 -0.11601,1.90852 -0.0312,2.9375 -0.002,0.61394 -0.002,1.22993 0,1.84375 -0.005,0.0311 0.006,0.063 0,0.0937 -0.0512,0.27829 -0.15765,0.56529 -0.28125,0.8125 -0.16499,0.32998 0.16499,0.88877 0,1.21875 -0.75933,1.51867 -1.3177,2.8229 -1.9375,4.0625 -0.24159,0.48316 -1.37692,2.90433 -0.71875,3.5625 0.28397,0.28397 0.64431,0.95681 0.90625,1.21875 0.19661,0.19661 0.9026,0.1875 1.21875,0.1875 0.41732,0 0.78004,-0.10669 1.125,-0.21875 0.12082,2.18296 0.27273,4.35616 0.5,6.53125 2.79545,5.36876 8.12029,8.98104 12.40625,13.03125 5.05619,4.73468 11.34878,7.66605 16.40625,12.3125 3.14712,3.73507 6.82993,12.86641 12.25,7 7.71348,-5.75592 16.43202,-10.20309 22.9375,-17.625 3.74015,-0.51226 6.64594,-5.01364 10,-7.25 2.3312,-3.30513 -1.17792,-7.90163 1.1875,-11.375 1.30487,-3.9126 0.10679,-8.3911 0.4375,-12.5 -0.17635,-11.87898 -0.30122,-23.75727 -0.84375,-35.625 3.26571,1.11751 3.37661,2.31811 2.375,5.375 0.20464,6.7217 8.44669,7.00527 8.9375,0.15625 0.77098,-5.52538 -4.05224,-8.0943 -7.15625,-11.34375 -4.36548,-2.89766 -8.64626,-5.59971 -13.53125,-7.4375 -3.90914,-1.65378 -8.45162,-2.18978 -11.59375,-5.43751 -4.36085,-1.86202 -8.71612,-3.53193 -13.28125,-4.71875 -3.87792,-2.2764 -7.64876,-4.42516 -11.96875,-5.65625 -3.52961,-1.54291 -7.29696,-2.34337 -10.96875,-3.40625 z m 21.21875,15.65625 c 3.42848,1.41701 6.64763,3.90551 10.0625,5.59376 3.44681,2.96671 9.48889,3.03168 10.5625,8.3125 0.36712,1.02194 0.69937,2.04931 0.96875,3.09375 -0.10645,0.10711 -0.25623,0.25623 -0.3125,0.3125 -0.66247,0.66247 1,2.50012 1,3.5 0,1.02114 -0.98166,1.23166 -1.5,1.75 -0.6946,0.69461 -0.21886,8.93772 -1,10.5 -0.35555,0.7111 -0.0388,3.28879 -0.5,3.75 -1.39984,1.39984 -0.63627,11.52254 -2,14.25 -0.70971,1.41943 0.25,4.3326 0.25,5.75 l 0,2.5 c 0,0.27958 -0.29,0.71 -0.25,0.75 0.42135,0.4213 1.82866,0.0787 2.25,0.5 1.28259,1.28259 -2.186,2.814 -2,3 0.0523,0.0523 2.25,1.36629 2.25,1.5 0,0.12597 -2.32032,0.57033 -2.5,0.75 -0.4124,0.41237 -0.96546,12.03454 -0.5,12.5 0.62622,0.62622 1.48645,0.84904 2.34375,0.875 -5.16286,3.14873 -10.09771,6.91993 -15.625,9.25 -0.0368,0.0257 -0.087,0.0375 -0.125,0.0625 -1.05979,0.69808 -2.55845,1.12297 -3.5,1.59375 -0.52226,0.26113 -1.99184,1.4375 -2.3125,1.4375 -0.0586,0 0.82235,-0.4786 1.25,-0.90625 0.23498,-0.23498 1.52403,-1.21444 2.4375,-2.21875 -0.1572,-0.72055 -0.28302,-1.45748 -0.40625,-2.21875 -1.30548,0.12061 -3.09375,0.87155 -3.09375,0.5625 0,-0.29997 1.84269,-1.50946 2.8125,-2.21875 -0.2827,-1.66245 -0.64005,-3.30149 -1.3125,-4.71875 -0.50961,0.22839 -1.05668,0.46293 -1.5,0.90625 0.29791,-0.38227 0.67997,-0.83622 1.0625,-1.21875 0.0712,-0.0712 0.12136,-0.11863 0.1875,-0.1875 -0.65967,-1.189 -1.59373,-2.20525 -2.96875,-2.875 -4.67834,-2.78419 -9.54066,-5.05757 -14.875,-5.9375 -6.16884,0.71974 -8.22379,-5.68045 -7.125,-11.15625 0.90356,-7.39509 1.13965,-14.8293 0.90625,-22.28125 0.2253,-2.66771 -0.20863,-5.55398 -0.125,-8.28125 0.17853,0.13066 0.68499,0.18499 0.84375,0.34375 0.0569,0.0569 0.31445,0.53125 0.34375,0.53125 0.0178,0 1.58047,-2.64296 1.78125,-2.84375 2.43332,-2.43332 2.9662,-6.12245 5.3125,-8.46875 0.42825,-0.42825 0.44675,-1.1655 0.875,-1.59375 0.68784,-0.68783 2.65625,-2.31596 2.65625,-3 0,-0.59474 -1.12559,-2.20072 -1.84375,-3.03125 0.17131,-0.29604 0.36387,-0.57609 0.53125,-0.875 0.0205,0.002 0.0423,0 0.0625,0 0.80545,0 1.44491,0.004 2.125,0.34375 0.2739,0.13695 2.91935,-4.20715 3.53125,-5.125 0.19675,-0.29513 1.0179,-1.38035 1.78125,-2.4375 2.07207,-0.89882 4.27831,-1.58112 6.28125,-2.43751 l 0.90625,-0.1875 z m -46.21875,24.03126 c -0.15767,-0.0107 -0.30032,0.0191 -0.40625,0.125 -0.17801,0.17801 0.99636,0.054 1.375,0.1875 -0.29487,-0.0857 -0.66205,-0.29174 -0.96875,-0.3125 z m 43.9375,56.71875 c -0.0733,0.10276 -0.34947,0.6875 -0.5,0.6875 -0.006,0 0.19908,-0.2997 0.5,-0.6875 z"
       id="path9919"
       inkscape:export-filename="/home/substack/media/vector/browserify.png"
       inkscape:export-xdpi="63.81599"
       inkscape:export-ydpi="63.81599" />
    <path
       inkscape:connector-curvature="0"
       style="fill:#e6b35a;fill-opacity:1;stroke:#ffffff;stroke-width:1.07618868px;stroke-linecap:butt;stroke-linejoin:miter;stroke-opacity:0"
       d="m 388.10391,805.30551 c -0.12544,0.17526 -0.25533,0.32743 -0.40625,0.46875 0.12315,0.16025 0.24467,0.33842 0.34375,0.4375 0.23942,0.23942 1,0.77193 1,1.25 0,0.27454 2.31738,3.81738 2.75,4.25 2.11338,2.11338 3.83451,6.9645 4.03125,11.09375 -0.35893,-0.31259 -0.73867,-0.60687 -1.125,-0.90625 -0.0503,-0.0592 -0.10453,-0.13578 -0.15625,-0.1875 -3.20561,-3.20561 -6.49909,-7.24908 -9.75,-10.5 -0.56868,-0.56868 -1.54281,-1.04281 -2.25,-1.75 -0.36293,-0.36293 -2.94892,-2.30108 -3,-2.25 -0.58926,0.58926 1.5,1.16667 1.5,2 0,0.4185 4.86527,7.13474 4.75,7.25 -0.31385,0.31385 -0.71104,-0.21104 -0.75,-0.25 -0.0351,-0.0351 -0.48189,-0.0604 -1.09375,-0.0625 -0.14804,-0.0317 -0.27554,-0.0501 -0.34375,0 -0.1897,6.4e-4 -0.37673,0.0287 -0.59375,0.0312 -0.32612,-0.10599 -0.63963,-0.21875 -0.96875,-0.21875 -1.04589,0 -2.07955,0.16967 -3.15625,0.3125 -0.32335,0.0114 -0.66821,0.0192 -0.96875,0.0312 0.11705,0.0112 0.22574,0.0468 0.34375,0.0625 -0.55306,0.0615 -1.1098,0.0937 -1.71875,0.0937 -0.0602,0 -0.23994,0.023 -0.34375,0.0312 0.0271,-0.013 0.0677,-0.0182 0.0937,-0.0312 0.0884,-0.0442 0.20732,-0.0664 0.3125,-0.0937 -0.67578,0.0359 -1.28569,0.0669 -1.3125,0.0937 -0.0635,0.0635 -0.13287,0.13611 -0.21875,0.1875 -0.89258,0.14175 -1.85434,0.33063 -2.1875,0.5625 -0.32862,0.0675 -0.62861,0.14243 -0.84375,0.25 -0.60888,0.30444 -1.5,0.75444 -1.5,0.75 0,-0.0564 1.23041,-0.34595 2.625,-0.71875 1.02315,0.0369 3.88591,-0.1617 4.625,-0.53125 1.45731,-0.72865 3.89941,1.56707 5.5,0.5 0.12198,-0.0813 0.23728,-0.2124 0.34375,-0.34375 0.26017,0.0561 0.51493,0.11992 0.78125,0.1875 -0.0687,0.15033 -0.125,0.28344 -0.125,0.40625 0,0.41667 0.83333,0 1.25,0 0.27386,0 0.9258,0.38359 1.1875,0.28125 1.23817,0.4588 2.41799,1.03213 3.375,1.6875 -0.0826,0.0381 -0.16565,0.052 -0.25,0.0937 -0.0307,-0.0111 -0.0641,-0.019 -0.0937,-0.0312 -0.003,0.0202 0.003,0.0423 0,0.0625 -2.01603,1.01426 -4.33219,2.73843 -6.0625,4.46875 -0.83846,0.83846 -0.74548,2.87048 -1.40625,3.53125 -1.17748,1.17748 0.002,5.42849 0.0312,6.21876 0.23555,-0.61499 1.59806,-3.10236 1.75,-3.40626 0.65366,-1.30731 2.76026,-2.43587 5.03125,-2.96875 -0.10663,6.04785 0.42011,12.23432 -0.0937,18.18751 -0.75303,8.72147 -0.72241,17.9813 0.34375,26.625 0.25321,2.05281 -0.46576,25.21376 0.375,26.1875 0.90511,1.04829 2.16229,2.80449 3.15625,4.53125 4.32283,7.50995 10.29776,13.54609 13.8125,21.6875 l 2.8125,6.53125 c 0.109,0.25249 0.99382,1.92187 1.09375,2.375 0.27346,-0.46995 1.93896,-2.26779 2.4375,-4 1.35484,-4.70746 4.17658,-7.94926 6.71875,-11.875 3.47195,-5.36153 8.52335,-10.64784 11.6875,-14.3125 0.66723,-0.77277 0.8399,-1.80459 1.0625,-2.8125 3.56919,4.23635 7.32228,8.4578 10.8125,12.96875 0.005,0.006 -0.005,0.0248 0,0.0312 0.39456,0.61267 0.94038,1.29995 1.53125,2 0.0213,0.0253 0.041,0.0372 0.0625,0.0625 1.08245,1.46719 2.12437,2.98604 3.125,4.53125 1.21863,1.88186 1.8906,4.62295 3.1875,6.125 0.53754,0.62258 1.95452,5.34375 2.46875,5.34375 0.0734,0 4.13364,-8.97589 6.03125,-11.90625 2.48865,-3.84309 5.82442,-7.03453 8.125,-11.03125 1.96967,-3.42187 3.38619,-7.2884 4.875,-9.84375 1.13276,0.53227 2.56515,0.4036 3.5625,-0.59375 0.65458,-0.65458 0.68383,-3.63233 0.25,-4.5 -0.45346,-0.90693 0.22258,-2.05484 -0.25,-3 -0.86454,-1.72908 0.38656,-4.22689 -0.5,-6 -0.54965,-1.0993 0.52255,-4.72745 -0.25,-5.5 -0.95617,-0.95617 -0.33917,-6.80246 -1.0625,-9.25 -0.0272,-0.74305 -0.0555,-1.47752 -0.0937,-2.21875 0.005,-0.0961 -0.0184,-0.19395 -0.0312,-0.28125 -0.20363,-3.78769 -0.55441,-7.55257 -1.1875,-11.21875 -0.41972,-2.43054 0.14162,-4.98163 -0.375,-7.375 -0.34423,-1.59472 -0.7323,-21.99375 -0.34375,-23.34376 0.0399,-0.13867 0.12733,-0.56878 0.21875,-1.0625 3.19723,-2.77712 7.3176,-5.62755 9.6875,-6.8125 0.51474,-0.25736 2.8125,-1.05894 2.8125,-1.40625 0,-0.41218 -3.56029,1.0625 -6.34375,1.0625 -2.98346,0 -24.94711,2.29085 -25.46875,2.8125 -0.16145,0.003 -0.30193,0.0141 -0.34375,0.0625 -0.14506,0.16801 1.40625,9.42692 1.40625,10.65625 0,3.34825 1.59203,11.92294 2.8125,14.75001 1.05589,2.44581 0.93212,7.29966 1.78125,10.25 0.0854,0.2967 0.007,0.87393 -0.0625,1.46875 -0.72658,1.75286 -1.4556,3.2056 -2.65625,4.40625 -0.0993,0.0993 0.93904,0.93904 1,1 0.7081,0.7081 0.70748,2.91495 1.25,4 0.4952,0.99041 -0.15688,3.09312 0.5,3.75 0.39962,0.39962 0.10931,4.85931 0.75,5.5 0.76686,0.76686 -0.72736,8.54528 0,10 0.30298,0.60596 1.58372,0.16744 2,1 0.2674,0.53479 -0.56054,0.93946 -0.25,1.25 -0.35323,-0.0181 -0.70829,-0.0417 -0.75,0 -0.0724,0.0724 -1.23053,0.51947 -1,0.75 0.47513,0.47513 5,2.68433 5,3 0,0.35634 -4.30109,0.10219 -4.75,1 -0.0989,0.19786 0.48437,2.98437 0.75,3.25 0.41123,0.41123 1.34847,0.37434 2.4375,0.625 -0.33425,0.64285 -0.22364,2.98341 -0.4375,3.625 -0.24745,0.74234 -0.51121,1.63693 -0.75,2.5625 -0.90243,0.59971 -1.79457,1.20116 -2.71875,1.46875 -1.9496,0.5645 -4.73451,0.84684 -6,2.3125 -0.16238,0.18807 -3.43421,-1.98485 -4,-2.3125 -3.85809,-2.23418 -8.19431,-3.55265 -11.9375,-5.65625 -0.008,-0.004 -0.0231,0.004 -0.0312,0 -0.0527,-0.0494 -0.10417,-0.0769 -0.15625,-0.125 -0.5417,-2.88953 -1.18656,-9.03669 -1.5625,-13.53125 0.22357,-1.44237 0.47317,-2.88162 0.75,-4.3125 -0.3094,0.028 -0.73302,0.0625 -0.875,0.0625 -0.0895,0 -1.67156,-0.20088 -2,-0.1875 -0.0737,0.0533 -0.125,0.0659 -0.125,0 0,-0.007 0.0885,10e-4 0.125,0 0.0737,-0.0533 0.15983,-0.1268 0.21875,-0.15625 0.57934,-0.28967 1.34459,-0.2348 1.9375,-0.53125 0.24067,-0.12032 0.60281,-0.0717 0.90625,-0.0937 0.0555,-0.27088 0.0979,-0.54199 0.15625,-0.8125 0.26052,-1.20693 0.26303,-2.50824 0.3125,-3.78125 -0.12937,-0.33977 -0.21291,-0.71823 -0.28125,-1.125 -0.75803,0.13921 -1.5469,0.35938 -1.96875,0.5 -0.22535,0.0751 -0.57778,0.003 -0.875,-0.0312 -0.22873,0.19729 -0.53125,0.42966 -0.53125,0.21875 0,-0.23753 0.23403,-0.25272 0.53125,-0.21875 0.0571,-0.0492 0.11904,-0.11904 0.15625,-0.15625 0.40075,-0.40075 1.7542,-0.83071 2.59375,-0.96875 -0.19473,-2.09037 0.18645,-4.7552 0.5625,-7.28125 -0.0816,-0.0121 -0.31877,-0.025 -0.3125,-0.0312 0.0771,-0.0771 0.19223,-0.19687 0.34375,-0.28125 0.098,-0.65716 0.19773,-1.32167 0.28125,-1.9375 -1.07721,0.13817 -2.41407,0.0937 -3.28125,0.0937 -0.0511,0 -0.12086,-0.047 -0.1875,-0.0625 0.0647,-0.0496 0.13813,-0.10033 0.1875,-0.125 0.45609,-0.22804 1.13225,-0.11299 1.59375,-0.34375 0.29472,-0.14736 1.05139,-0.29901 1.78125,-0.4375 0.0837,-0.7133 0.14392,-1.38294 0.15625,-1.96875 -0.89138,0.0965 -1.90952,0.24489 -2.78125,0.40625 -0.74623,0.31392 -1.55216,0.48967 -1.46875,0.40625 0.11729,-0.11728 0.73557,-0.27053 1.46875,-0.40625 0.1066,-0.0448 0.21038,-0.0739 0.3125,-0.125 0.79416,-0.39708 1.95577,-0.66416 2.6875,-1.15625 0.19796,-0.45364 0.44615,-0.92019 0.15625,-1.5 -1.60299,-3.20596 1.2393,-8.49014 -0.34375,-11.65625 -0.72909,-1.45777 -1.7814,-11.64412 -1.7814,-13.8124 0,-2.08999 -1.57265,-9.02111 -1.40625,-9.18751 0.61663,-0.61663 7.09342,-4.99058 10.25,-7.03125 0.26013,-0.60945 0.46774,-1.20014 0.34375,-1.34375 -0.1169,-0.13539 -0.28466,-0.17188 -0.5,-0.15625 -0.64601,0.0469 -1.6037,0.59375 -1.96875,0.59375 -4.27923,0 -8.70374,0.375 -13.09375,0.375 -0.50641,0 -2.8652,-0.37328 -3.1875,0 -0.01,0.0116 0.0399,0.4288 0.0625,0.59375 -4.88996,-1.16409 -7.58699,-0.0472 -8.1875,1.34375 -0.36564,0.84695 1.40321,11.81148 1.78125,13.12501 0.53033,1.84266 -0.53033,4.3136 0,6.15625 0.436,1.51489 0.0724,4.29389 0.6875,5.71875 1.8354,4.25145 -1.14645,12.37758 0,17.6875 0.75912,3.5168 -0.22143,6.45205 0.71875,9.71875 0.0327,0.11368 0.0623,0.22953 0.0937,0.34375 0.21949,2.63645 0.40625,6.46433 0.40625,7.65625 l 0,2 c 0,0.25735 -0.43627,0.31373 -0.25,0.5 0.5576,0.5576 1.45295,0.77561 2.125,1.21875 0.0848,0.36723 0.18642,0.73324 0.28125,1.09375 -0.5716,0.74119 -2.04404,1.54971 -1.90625,1.6875 0.46875,0.46875 1.43564,0.49377 2.1875,0.65625 0.0275,0.20748 0.065,0.41333 0.0937,0.625 -0.95555,0.29499 -2.53125,0.76611 -2.53125,1.21875 0,0.72089 0.66811,6.33189 0.5,6.5 -0.24379,0.24379 -0.75,3.32204 -0.75,3.5 0,0.66667 1.33333,0 2,0 0.24431,0 0.77743,0.0347 1.21875,0.0625 -0.52509,0.39651 -1.03771,0.78698 -1.4375,1.25 -3.0005,3.47513 -7.00942,5.79934 -10.75,8.6875 -0.3911,0.30197 -1.89707,1.83796 -2,1.71875 -1.48254,-1.71705 -3.25461,-3.04347 -5.5,-4.34375 -0.7,-0.40536 -1.05,-1.59464 -1.75,-2 -2.95799,-1.71295 -5.3653,-4.72185 -8.125,-6.9375 -0.13019,-0.24102 -0.23567,-0.47844 -0.3125,-0.6875 0.26782,-0.0665 0.50883,-0.11844 0.78125,-0.1875 1.65824,-0.0463 6.12113,-0.80862 6.375,-1.0625 0.80216,-0.80216 -0.33928,-3.82144 0.25,-5 0.4,-0.8 -0.4,-2.2 0,-3 0.12031,-0.24061 0.30716,-1.5 0,-1.5 -0.5005,0 -2.5183,-0.5183 -2.75,-0.75 -0.11002,-0.11002 3.07621,-1.5 2.75,-1.5 -0.18976,0 -0.33305,-5.41695 0.25,-6 0.47613,-0.47613 -0.5938,-2.8438 -0.75,-3 -0.62399,-0.62399 1.10423,-2.10423 1.25,-2.25 0.25078,-0.25077 -0.5251,-3.2249 0.25,-4 0.29587,-0.29586 -0.25,-3.01144 -0.25,-3.75 0,-4.82124 -0.75,-9.65058 -0.75,-14 0,-0.3314 0.0195,-1.52812 0.0312,-2.59375 -0.003,-0.009 0.003,-0.0224 0,-0.0312 -0.34193,-0.95395 0.21875,-2.72772 0.21875,-3.375 0,-0.95997 -0.13431,-2.86569 0.25,-3.25 0.13485,-0.13485 0.3479,-0.18241 0.59375,-0.1875 0.65349,1.53728 1.65773,2.93898 2.15625,3.4375 0.18747,0.18747 2.22195,2.27805 3.25,1.25 0.60072,-0.60072 1.24243,-0.99243 1.75,-1.5 0.41873,-0.41873 0.58127,-1.83127 1,-2.25 0.15097,-0.15097 0,-1.26292 0,-1.5 0,-4.21348 -0.44928,-9.69929 -3,-12.25001 -0.0245,-0.0245 -0.0688,-0.038 -0.0937,-0.0625 -0.0117,-0.0195 -0.0195,-0.043 -0.0312,-0.0625 -1.25425,-2.05987 -3.2358,-3.78998 -4.28125,-5.53125 -0.0986,-0.16416 -0.19593,-0.30326 -0.3125,-0.4375 -0.0445,0.23962 -0.1288,0.4962 -0.0312,0.59375 2.07481,2.07481 5.17421,9.90159 3.5,13.25001 -1.02979,2.05959 -0.0626,2.5 -2.5,2.5 -0.30014,0 -0.64457,0.35543 -1,0 -1.48112,-1.48112 -2.12283,-3.75561 -3.09375,-5.90625 0.0339,-0.0296 0.062,-0.062 0.0937,-0.0937 0.54839,-0.54839 0.41274,-3.67452 0,-4.50001 -0.90154,-1.80309 0.43053,-3.63893 -0.5,-5.5 -1.89595,-3.7919 -3.36789,-8.86789 -6.5,-12 -1.44381,-1.44381 -3.12439,-3.31219 -5,-4.25 -0.1111,-0.0555 -0.58949,-0.26256 -0.9375,-0.40625 z m -11.5,11.0625 c 0.3669,-0.0195 0.73869,-0.0431 1.21875,-0.0625 -0.17586,-0.0147 -0.36528,-0.032 -0.53125,-0.0312 -0.26153,10e-4 -0.47394,0.0382 -0.6875,0.0937 z m 57.34375,47.96876 c 0.0239,-0.006 0.0569,-0.007 0.0937,0 -0.0819,0.0613 -0.125,0.13373 -0.125,0.0625 0,-0.0295 0.007,-0.057 0.0312,-0.0625 z m -23.375,69.46875 c -0.0312,0.0607 -0.0396,0.0625 0,0.0625 0.0279,0 0.0421,-0.003 0.0312,-0.0625 -0.002,0.003 -0.0294,-0.003 -0.0312,0 z"
       id="path10083"
       inkscape:export-filename="/home/substack/media/vector/browserify.png"
       inkscape:export-xdpi="63.81599"
       inkscape:export-ydpi="63.81599" />
    <path
       style="fill:#e6b35a;fill-opacity:1;stroke:#ffffff;stroke-width:1.11292899px;stroke-linecap:butt;stroke-linejoin:miter;stroke-opacity:0"
       d="m 517.51752,814.77426 c -7.80354,2.34294 -25.87781,25.17597 -31.375,41.40626 -0.64723,1.91096 -4.45778,10.44775 -1.625,12.59375 2.3974,1.81618 5.01049,5.78356 7.8125,7.90625 2.27322,1.72211 5.33556,2.11307 8.75,1.8125 -0.20627,-1.82341 -0.4301,-4.03125 -0.0312,-4.03125 0.26634,0 0.85596,2.05223 1.5,3.875 0.41316,-0.0571 0.82932,-0.11429 1.25,-0.1875 -0.36695,-1.02286 -0.65882,-2.02868 -0.25,-2.4375 0.1242,-0.1242 0.84767,0.99234 1.5625,2.15625 3.30075,-0.67803 6.70336,-1.69871 10,-2.6875 -0.11007,-1.47885 -0.19155,-2.96875 0.4375,-2.96875 0.38,0 0.54445,1.83922 0.6875,2.625 0.45337,-0.13439 0.93034,-0.27823 1.375,-0.40625 0.14891,-0.71656 0.42759,-2.96875 0.4375,-2.96875 0.16667,0 -0.0745,0.35093 0,0.5 0.27547,0.55094 0.3671,1.38448 0.46875,2.21875 5.00916,-1.39797 9.34738,-2.19419 11.625,-0.46875 2.08045,1.57607 3.42717,5.8667 4.375,7.25 4.55889,6.6534 -5.82613,36.33166 -9.03125,40.5625 -0.96628,1.2755 -6.42121,10.62372 -7.71875,12.6875 0.92139,-0.42359 2.83958,-0.28242 3.75,-0.90625 4.20014,-2.87793 8.76196,-7.65072 11.84375,-11.71875 8.0168,-10.58237 13.07377,-23.0567 17.5,-36.125 1.22225,-3.60866 0.55266,-7.87261 1.78125,-11.5 0.67649,-1.99728 -0.92422,-6.67732 -1.21875,-8.8125 -3.23392,-23.44435 -32.61767,-1.98413 -39.15625,-6.9375 -9.19769,-6.96781 -3.84401,-22.76236 -0.9375,-31.34376 1.50467,-4.4425 2.47072,-5.86025 6.1875,-12.09375 z m 0.25,119.43751 c -0.35559,0.16347 -0.58945,0.39057 -0.53125,0.8125 0.003,0.0206 0.36615,-0.5499 0.53125,-0.8125 z"
       id="path10267"
       inkscape:connector-curvature="0"
       inkscape:export-filename="/home/substack/media/vector/browserify.png"
       inkscape:export-xdpi="63.81599"
       inkscape:export-ydpi="63.81599" />
    <path
       style="fill:#e6b35a;fill-opacity:1;stroke:#ffffff;stroke-width:1.11292899px;stroke-linecap:butt;stroke-linejoin:miter;stroke-opacity:0"
       d="m 496.14512,900.41034 c -0.0896,10e-4 -0.16349,0.0322 -0.23642,0.0678 -2.84052,1.38621 -5.16315,4.98408 -8.00369,6.37029 -1.14263,0.55762 3.02265,0.214 3.97159,0.54051 1.32252,0.45506 7.79598,3.96881 8.50752,5.42685 0.64218,1.31588 2.71416,2.34981 3.34672,3.64602 l 2.68855,5.49223 c 0.76072,1.55882 2.70577,5.78755 3.02005,8.14986 0.11917,0.89161 0.0717,2.00044 0.35644,2.58395 0.062,0.12696 0.14855,0.20432 0.24473,0.24712 -1.30094,2.64373 -2.95909,6.86811 2.8038,6.07317 6.92411,-0.95511 9.8209,-7.0178 13.10861,-11.35768 0.42185,-0.55683 -0.47144,-1.06674 -0.54056,-1.11912 -0.18673,-0.14145 -0.31888,-0.33144 -0.45977,-0.53341 1.29621,-0.515 2.93137,-1.25582 2.46989,-2.20144 -1.27334,-2.60926 -5.07625,-5.6773 -7.27081,-7.91459 -2.25291,-2.29675 -18.08062,-16.87962 -21.87413,-15.02836 -0.51051,0.24911 -1.50523,-0.45296 -2.13252,-0.44312 z"
       id="path10321"
       inkscape:connector-curvature="0"
       inkscape:export-filename="/home/substack/media/vector/browserify.png"
       inkscape:export-xdpi="63.81599"
       inkscape:export-ydpi="63.81599" />
    <path
       style="fill:#e6b35a;fill-opacity:1;stroke:#ffffff;stroke-width:1.11292899px;stroke-linecap:butt;stroke-linejoin:miter;stroke-opacity:0"
       d="m 495.45961,898.74948 c -0.19646,0.0187 -0.35726,0.0643 -0.46332,0.20434 -1.6309,2.15282 -7.56844,4.48674 -11.49294,6.78138 -0.0566,0.0255 -0.10595,0.0662 -0.16275,0.0927 -3.41557,1.59131 -7.06557,4.84018 -7.43103,10.01277 -0.0756,1.06857 1.24576,1.95971 1.41497,2.36774 0.85977,2.07327 2.38222,3.1917 4.35652,3.3312 7.63307,0.53931 8.988,-11.11773 4.04392,-14.46074 1.47241,-0.50471 2.89716,-0.73622 3.62587,-0.18417 0.0871,0.066 1.17274,1.22132 1.65968,0.57855 1.06144,-1.40112 10.12109,-3.21931 10.59837,-3.84931 0.32361,-0.42718 -3.9428,-4.30773 -4.59177,-4.52754 -0.10729,-0.0363 -0.96812,-0.40298 -1.55752,-0.34689 z"
       id="path10336"
       inkscape:connector-curvature="0"
       inkscape:export-filename="/home/substack/media/vector/browserify.png"
       inkscape:export-xdpi="63.81599"
       inkscape:export-ydpi="63.81599" />
    <path
       style="fill:#e6b35a;fill-opacity:1;stroke:#ffffff;stroke-width:1.11292899px;stroke-linecap:butt;stroke-linejoin:miter;stroke-opacity:0"
       d="m 517.42377,815.58676 c -1.93486,-0.17733 -7.49494,8.0573 -8.53125,9.78125 l -0.6875,5.09375 c -1.72522,0.90339 -3.20525,0.47106 -4.75,0.5 -0.18282,0.003 2.4949,2.00655 2.8125,2.31251 0.71577,0.68945 1.74165,1.31024 2.875,1.875 0.14069,-0.63458 0.50588,-1.28713 1.15625,-1.9375 0.25061,-0.25061 0.33142,-1.5 0.75,-1.5 0.16236,0 -1.25936,2.23236 -1.15625,3.78125 0.58609,0.2705 1.19653,0.52634 1.8125,0.78125 0.79263,-0.78725 1.55873,-2.3125 2.34375,-2.3125 0.30374,0 -0.66251,1.73954 -0.75,3 1.02012,0.413 2.03188,0.80184 2.90625,1.21875 0.0168,0.008 0.0423,0.0235 0.0625,0.0312 0.0366,0.0613 0.0763,0.10754 0.125,0.15625 0.95997,0.95998 3.13546,0.38547 3.9375,1.1875 0.28926,0.28926 0.99158,0.2636 1.65625,0.28125 0.0666,-0.40377 0.14513,-0.79027 0.3125,-1.125 0.36497,-0.72994 0.75,-1.56917 0.75,-2.25 0,-0.0353 0.0517,-0.11549 0.0937,-0.1875 -0.0137,-0.17203 0.0173,-0.3125 0.15625,-0.3125 0.0394,0 -0.0691,0.16325 -0.15625,0.3125 0.0322,0.40307 0.32485,1.10031 0.15625,1.4375 -0.20934,0.41869 -0.35208,1.30448 -0.375,2.21875 0.14586,0.0446 0.28476,0.12851 0.375,0.21875 0.2951,0.29512 1.04865,0.11115 1.34375,0.40625 0.22147,0.22147 0.55575,0.36903 0.96875,0.46875 0.49402,-1.7022 1.17372,-4.0625 1.6875,-4.0625 0.34439,0 -0.25004,2.17605 -0.5625,4.1875 2.11366,0.0948 5.26665,-0.47549 8.1875,-0.90625 2.04479,0.47366 4.34079,0.20165 6.0625,1.0625 0.52463,0.26233 1.41286,-0.26232 1.9375,0 0.285,0.1425 0.80286,0.27201 1.40625,0.375 0.0121,0.002 0.019,-0.002 0.0312,0 2.86499,1.53377 5.47072,3.15822 7.65625,5.34375 0.16699,0.167 2.18073,3.14401 2.53125,2.96875 1.40199,-0.701 0.375,-4.07644 0.375,-5.34375 0,-1.11034 0.19535,-2.39841 -0.53125,-3.125 -0.2963,-0.29631 -0.74274,-0.59027 -1.25,-0.84375 0.038,-0.52499 0.0584,-0.99188 0.21875,-1.3125 0.31185,-0.62372 1.43177,-4.50572 1.40625,-4.53125 -0.22953,-0.22953 -0.73922,-0.17672 -0.96875,-0.40625 -1.24922,-1.24921 -3.38164,-1.95645 -5.34375,-2.9375 -1.31501,-0.65752 -3.98775,-0.2065 -4.9375,-1.15626 -0.19237,-0.19237 -0.83231,-0.24311 -1.5625,-0.25 -1.10019,-0.45281 -2.04431,-0.75 -2.53125,-0.75 -1.00161,0 -5.13017,-1.19267 -5.71875,-1.78125 -0.52621,-0.52621 -3.14312,-0.76811 -3.34375,-0.96875 -0.18874,-0.18874 -0.32407,-0.489 -0.46875,-0.78125 -3.64744,-1.76664 -7.16432,-3.71064 -10.125,-6.5625 -0.8597,-0.82811 -1.21994,-2.7486 -2,-3.5 -0.0943,-0.0908 -0.21476,-0.14443 -0.34375,-0.15625 z"
       id="path10351"
       inkscape:connector-curvature="0"
       inkscape:export-filename="/home/substack/media/vector/browserify.png"
       inkscape:export-xdpi="63.81599"
       inkscape:export-ydpi="63.81599" />
    <path
       style="fill:#e6b35a;fill-opacity:1;stroke:#ffffff;stroke-width:1.11292899px;stroke-linecap:butt;stroke-linejoin:miter;stroke-opacity:0"
       d="m 546.38087,836.07199 c -0.0383,0.58531 -0.70006,1.7177 -0.11474,1.75596 0.58532,0.0383 -0.034,-2.32333 0.11474,-1.75596 0.49189,1.87549 0.15798,2.79576 0.44995,3.90898 0.18823,0.71768 1.45297,1.15302 1.64121,1.8707 0.11268,0.42961 1.44631,0.60621 1.69858,0.99272 0.76912,1.17842 3.63827,2.9047 3.96185,4.13846 0.0745,0.28367 0.3329,0.99 0.48089,0.7368 0.46557,-0.7966 1.50566,-9.54838 1.62378,-11.3563 0.19864,-3.04002 3.96352,-12.30588 3.55185,-13.87551 -0.18652,-0.71123 -0.89311,-1.36839 -1.44267,-2.2104 -1.9497,-2.98726 -11.00265,-3.56546 -9.77247,1.12487 0.48697,1.85669 -0.0111,4.49035 1.49554,6.79883 1.20536,1.8468 4.99928,0.64301 4.38988,0.28686 -0.3581,-0.20929 -0.36117,0.81647 -0.25592,1.21768 0.11424,0.43576 -1.33582,2.28567 -1.58835,2.71774 -1.05491,1.80501 -1.69923,4.05091 -2.04279,4.27513 -0.43935,0.28675 -1.24713,1.09415 -0.79419,1.35887 1.1324,0.66181 -2.26476,-1.32362 -3.39714,-1.98543 z"
       id="path10385"
       inkscape:connector-curvature="0"
       inkscape:export-filename="/home/substack/media/vector/browserify.png"
       inkscape:export-xdpi="63.81599"
       inkscape:export-ydpi="63.81599" />
    <path
       inkscape:connector-curvature="0"
       style="fill:#e6b35a;fill-opacity:1;stroke:#ffffff;stroke-width:1.11030757px;stroke-linecap:butt;stroke-linejoin:miter;stroke-opacity:0"
       d="m 599.26016,818.05551 c -0.49622,0.0509 -2.64736,2.33485 -3.46875,3.15625 -3.76149,3.76149 -7.98071,6.89902 -11.78125,10.62501 -2.23724,0.56975 -4.78079,1.43704 -5.84375,2.5 -1.00934,1.00934 -2.06214,2.24964 -3.1875,3.375 -0.77244,0.77245 -1.48791,5.20666 -1.9375,5.65625 -0.6984,0.69839 -1.45517,2.29892 -2.3125,3.15625 -0.49193,0.49193 -1.04854,1.02562 -1.5625,1.53125 -0.12534,0.0471 -0.24854,0.1141 -0.375,0.15625 -1.54414,0.51471 -3.33882,1.5 -4.875,1.5 -0.29031,0 -2.875,0.2122 -2.875,0.25 0,0.0987 1.20358,0.1643 1.375,0.25 0.55736,0.27868 2.67984,0.0862 4.21875,0.34375 -1.77072,1.72207 -3.53528,3.47278 -5.25,5.1875 -0.14403,0.14403 -0.39572,0.7194 -0.625,1.375 -0.72109,0.32688 -1.34753,0.59375 -1.59375,0.59375 -9e-5,0 -4.24999,1.3125 -4.375,1.375 -0.0649,0.0325 -0.15406,0.0409 -0.25,0.0312 -0.55723,0.22531 -1.0015,0.46951 -1.5,0.71875 -0.15366,0.0768 -0.5,-0.0468 -0.5,0.125 0,0.1669 2.22804,0.125 2.5,0.125 0.88358,0 1.88759,0.006 2.625,0.375 0.0727,0.0363 1.04892,-0.11155 2.125,-0.28125 -0.11392,0.63015 -0.16199,1.58226 0,1.90625 0.35254,0.70508 0.85566,0.9225 1.40625,0.90625 -0.111,0.1695 -0.20531,0.3308 -0.25,0.4375 0.008,0.0523 -0.008,0.10423 0,0.15625 0.17182,0.10672 1.02627,0 1.21875,0 l 1,0 c 0.0833,0 0.25,-0.0833 0.25,0 0,0.0962 -0.31866,0.0687 -0.375,0.125 -0.48847,0.48847 -1.17938,0.95228 -1.8125,1.46875 0.70902,3.54506 -0.26935,7.46579 0.4375,11 1.45355,7.26773 2.3687,19.17515 0,26.28125 -0.30274,0.9082 -0.16442,4.07067 -0.8125,4.71875 -0.0162,0.0162 -1.13776,1.23722 -0.8125,1.5625 0.70795,-0.76553 3.68202,-2.26438 4.5625,-1.9375 -0.55065,0.39655 -0.86888,0.91848 -0.5625,1.53125 0.0377,0.0755 -0.0578,0.31722 0,0.375 0.56039,0.56039 0.87048,1.18524 1.75,1.625 0.51551,0.25776 3.05915,0.68415 3.375,1 0.61836,0.61836 1.4808,0.8558 2.25,1.625 0.14944,0.14944 0.35056,0.60057 0.5,0.75 0.45256,0.45256 1.41747,0.70994 1.75,1.375 0.28305,0.5661 0.84725,1.31951 1.25,2.125 0.5585,1.117 1.0498,4.4248 1.875,5.25 1.05381,1.05381 1.90848,2.53348 2.75,3.375 0.44065,0.44065 1.33232,0.58232 1.75,1 0.33684,0.33684 2.15387,0.27828 3.59375,0.3125 0.66494,0.6115 1.95953,1.22301 2.65625,1.6875 0.74782,0.49855 1.35577,1.14343 2.125,1.65625 0.93553,0.62369 2.08117,3.03734 2.5625,4 0.1107,0.22141 2.33764,2.98132 2.375,3 0.56429,0.28214 1.14284,0.70534 1.59375,1.15625 0.39868,0.39867 2.11932,1.70596 2.90625,1.3125 0.29258,-0.14629 0.88343,-0.16468 1.0625,-0.34375 0.68289,-0.6829 1.24711,-1.56525 1.78125,-2.4375 1.03272,-0.94094 2.80168,-2.0553 4.03125,-2.875 3.93636,-2.62424 7.30161,-6.28871 11,-9.0625 3.33414,-2.50062 7.12231,-4.34196 10.59375,-6.65625 2.94707,-1.96471 5.92374,-5.7275 8.65625,-7.09375 0.17296,-0.0865 0.39388,-0.16273 0.625,-0.25 0.23574,0.20306 0.4412,0.4287 0.625,0.65625 0.94256,2.30958 1.3125,6.6866 1.3125,8.6875 0,0.44742 0.11048,1.26452 -0.125,1.5 -0.22917,0.22917 0.10417,1.02083 -0.125,1.25 -0.1875,0.1875 0.0625,0.8125 -0.125,1 -0.14668,0.14668 -0.0224,2.39743 -0.25,2.625 -0.30964,0.30964 -1.71113,-3.41386 -3.75,-1.375 -1.55208,1.55208 -1.63797,4.86203 0,6.5 0.52772,0.52772 0.98305,0.25 1.625,0.25 1.77342,0 2.60786,-1.98286 3.375,-2.75 0.22917,-0.22917 -0.10417,-1.02083 0.125,-1.25 0.25,-0.25 -0.25,-1.25 0,-1.5 0.4284,-0.42844 0.5,-2.00595 0.5,-2.75 0,-0.95665 0.24905,-4.2481 0.625,-5 0.12487,-0.24974 0.11428,-0.54989 0.0937,-0.875 0.006,0.002 0.0254,0 0.0312,0 0.0606,0 0.375,-1.86434 0.375,-2.125 0,-2.00338 0.20458,-4.1568 0.25,-6.28125 0.64767,-1.255 0.3125,-8.83691 0.3125,-9.6875 0,-2.94747 1.50148,-9.09228 0.375,-10.21875 -2.49499,-2.495 -25.00606,0.2332 -30.75,0.40625 0.10633,0.0932 0.27248,0.23991 0.46875,0.40625 l 2.8125,0 c 0.17342,0 0.56066,0.0358 1.0625,0.125 0.0137,0.0105 0.017,0.0206 0.0312,0.0312 1.69169,1.25972 7.35824,3.63949 8.3125,4.59375 1.51163,1.51163 2.66607,3.16608 4,4.5 0.11977,0.11977 0.19028,0.25402 0.25,0.40625 -0.0235,0.0158 -0.0369,0.0459 -0.0625,0.0625 -1.81453,0.28171 -4.09791,0.90833 -4.46875,1.09375 -1.80214,0.90107 -4.72534,1.30017 -7.0625,2.46875 -1.53175,0.76588 -3.20512,2.61118 -4.71875,3.96875 1.07998,2.81481 3.46911,7 3.5625,7 0.0141,0 -1.28016,-1.28016 -2.5,-2.5 -0.672,-0.67199 -1.50388,-2.37694 -2.25,-2.75 -0.12755,-0.0638 -0.4561,-0.17219 -0.84375,-0.28125 -0.54472,0.29057 -1.21552,0.72192 -1.96875,1.25 0.11379,0.18575 0.27979,0.46584 0.3125,0.53125 0.90723,1.81447 2.51999,3.03997 3.5,5 1.78783,3.57566 2.30513,4.45769 -0.5,0.25 -0.51504,-0.77256 -0.77083,-1.27083 -1.5,-2 -0.61267,-0.61267 -1.11145,-1.36145 -1.75,-2 -0.35483,-0.35482 -0.70703,-0.70762 -1.0625,-1.0625 -1.91871,1.45361 -3.9202,3.27791 -4.59375,4.625 -0.56084,1.12167 -1.46032,2.67908 -2.3125,3.53125 -1.28223,1.28224 -2.33445,2.4189 -3.15625,4.0625 -0.14027,0.28055 -0.22025,0.65761 -0.21875,1.09375 -0.14335,0.14436 -0.29909,0.29248 -0.4375,0.4375 -0.45062,-0.3435 -0.88731,-0.63659 -1.34375,-1 -0.0201,-0.12413 -0.0625,-0.24997 0.0312,-0.4375 0.42827,-0.85656 -0.17046,-2.76421 -0.6875,-3.28125 -0.0754,-0.0754 -0.3559,-0.27429 -0.4375,-0.4375 -0.50983,-1.01966 -2.24872,-1.34247 -2.9375,-2.03125 -0.0931,-0.0931 0.55869,-0.83613 0.625,-0.96875 0.0574,-0.11474 0.19572,-0.37964 0.28125,-0.46875 -0.18122,-0.0232 -1.07611,-0.45992 -1.15625,-0.5 -0.13999,-0.07 -0.38017,-0.0434 -0.53125,-0.0937 -0.50418,-0.16806 -0.71498,-0.59187 -1.15625,-0.8125 -0.67892,-0.33947 -1.43114,-0.62181 -2.125,-0.96875 -2.06585,-1.03292 -4.60958,-2.48458 -6.1875,-4.0625 -0.23123,-0.23123 -0.84738,-0.31614 -1.0625,-0.53125 -0.16026,-0.16026 -0.78772,-0.38375 -1.46875,-0.59375 -1.70932,-1.38262 -3.19521,-2.63623 -4.21875,-3.6875 0.0712,-0.18749 0.18565,-0.52755 0.21875,-0.59375 0.85044,-1.70088 2.45424,-2.75224 3.1875,-4.21875 0.3583,-0.71661 -1.54097,-2.55067 -2.125,-3.71875 -0.22493,-0.44986 0,-1.61088 0,-2.125 0,-1.15895 0.5344,-9.54043 0.8125,-11.15625 -0.50026,-0.0725 -1.20668,-0.89418 -1.53125,-1.21875 -0.59452,-0.59451 -1.42119,-0.88993 -2.125,-1.59375 -0.3862,-0.38619 -0.54185,-1.27119 -0.875,-1.9375 -2.26908,-4.53815 -2.12056,-10.54638 0.40625,-12.71875 0.065,-0.13622 0.16327,-0.35778 0.1875,-0.40625 0.61821,-1.23642 2.30513,-1.80513 3.125,-2.625 0.16811,-0.1681 0.68811,-0.18811 0.875,-0.375 0.34757,-0.34756 1.78705,-0.125 1.75,-0.125 -1.30859,0 -2.75,-1.87574 -2.75,-3.25 0,-1.42801 0.40935,-2.24812 1.25,-3.125 0.66883,0.0531 1.31103,0.12353 1.53125,0.34375 0.0461,0.0461 0.88658,0.89467 1.0625,0.71875 0.21668,-0.21668 0.083,-0.98925 0.34375,-1.25 0.67639,-0.67639 1.44285,-2.13035 2.125,-2.8125 l 8.84375,-8.84375 c 0.93343,-0.93344 6.85729,-1.38853 7.25,-1.78125 0.801,-0.801 -1.30302,-4.88448 0.15625,-6.34375 1.59962,-1.59962 4.87829,-3.12829 7.0625,-5.31251 0.0423,-0.0423 0.10659,-0.0864 0.15625,-0.125 0.92796,0.58371 1.71619,1.2787 1.96875,1.53126 4.22683,4.22683 14.07722,6.98347 18.84375,11.75 0.82941,0.82941 2.95633,0.64383 3.90625,1.59375 0.4215,0.42149 -1.89631,3.82387 -2.34375,4.71875 -0.14753,0.29505 -0.24834,4.39161 -0.3125,8.0625 -0.0892,0.006 -0.18913,0.0241 -0.28125,0.0312 -0.24745,1.13425 -0.53301,2.40272 -0.3125,2.84375 0.55324,1.10648 0.5,2.4719 0.5,3.75 -0.23651,-0.4052 -0.5,-0.81981 -0.5,-1.25 0,-1.27045 -0.48841,-3.98781 -1.15625,-5.25 -0.62902,0.0298 -1.18675,0.0211 -1.53125,-0.0937 -0.35237,-0.11746 -1.2326,-0.21245 -2.34375,-0.3125 -0.21332,0.54026 -0.0767,5.07845 -0.375,7.75 0.0718,0.52691 0.0922,1.03435 -0.0937,1.40625 -0.0138,0.0276 -0.54261,0.83521 -0.25,0.25 0.15835,-0.31671 0.26352,-0.93764 0.34375,-1.65625 -0.10612,-0.77938 -0.3436,-1.60174 -0.3436,-2.0937 0,-1.72616 -0.62073,-4.17592 -1.34375,-5.8125 -3.70025,-0.21909 -8.40805,-0.28035 -9.21875,0.125 -1.67867,0.83933 -2.71063,2.41782 -4.25,3.1875 -0.65759,0.3288 -2.78926,-0.34375 -3.6875,-0.34375 -2.15981,0 -10.10405,1.24108 -12.78125,2.65625 -2.13565,-0.32366 -4.49693,1.19124 -6.15625,1.5625 -1.24873,-0.47744 -2.56857,-0.96023 -3.875,-0.9375 -0.5742,0.01 -1.1349,0.11731 -1.6875,0.375 -0.98128,0.0327 -1.85333,0.16583 -2.25,0.5625 -0.25429,0.25429 -0.9189,0.66891 -1.125,0.875 -0.10391,0.10391 -0.17993,0.28782 -0.25,0.46875 l 0.0937,0.0937 c -0.80692,0.70544 -1.53715,1.54893 -1.84375,2.46875 -0.36613,1.09838 -0.375,2.27269 -0.375,3.53125 0,2.18013 1.74572,3.66544 2.84375,5.3125 1.09591,1.64385 2.18365,2.84182 3.875,3.6875 1.18451,0.59225 3.71086,-0.24605 4.59375,-0.6875 1.07743,-0.53871 2.32317,-0.98971 3.53125,-1.59375 1.60078,-0.80039 2.08929,-2.55083 2.5625,-4.125 0.55429,-0.83502 0.88568,-2.66694 1,-2.78125 0.29599,-0.296 0.51757,-0.63732 0.78125,-1 1.60537,-0.17275 2.92395,-0.28616 3.40625,-0.3125 -0.57198,1.80788 -1.4737,3.68255 -1.375,3.78125 0.23091,0.2309 2.28011,-1.37386 2.46875,-1.5625 0.76065,-0.76065 3.53862,-1.32556 4.9375,-2.09375 0.22345,-0.0385 0.43511,-0.0926 0.625,-0.1875 0.44028,-0.22014 1.0988,-0.125 1.625,-0.125 0.32225,0 0.59741,0.0117 0.875,0.0312 0.01,7e-4 0.0214,-7.2e-4 0.0312,0 0.89518,0.21225 1.85098,0.48454 2.71875,0.6875 0.74922,0.33825 1.46283,0.75896 2.4375,1.25 4.53337,-0.44811 8.99465,-0.9375 12.5625,-0.9375 5.08585,0 9.79383,-1.1875 14.9375,-1.1875 l 6.6875,0 c 0.41379,0 1.1875,0.82003 1.1875,0.40625 l 0,-13.40625 c -0.38624,-0.38468 -0.74031,-0.74515 -0.9375,-0.84375 -0.51774,-0.25887 -0.375,-0.14271 -0.375,-0.875 0,-1.41569 0.57647,-2.27956 1.3125,-3.0625 l 0,-0.28125 0,-0.3125 c 0.10117,-0.0802 0.20733,-0.16616 0.3125,-0.21875 0.32833,-0.16416 0.93233,-0.18233 1.125,-0.375 0.11365,-0.11364 -0.625,-0.81013 -0.625,-1 0,-0.30315 -0.36918,-0.74418 -0.5,-0.875 -0.041,-0.041 -0.7811,-3.9378 -0.75,-4 0.56675,-1.1335 0.78042,-4.53042 1.5,-5.25 0.44232,-0.44232 0.5939,-1.4689 1,-1.875 0.58635,-0.58635 1.05249,-1.30249 1.625,-1.875 0.0552,-0.0552 0.5,-0.3243 0.5,-0.375 0,-0.22431 -1.90873,1.01687 -2.125,1.125 -1.09246,0.54623 -2.09853,1.39413 -2.875,2.3125 -0.004,0.005 -0.0269,-0.005 -0.0312,0 -0.37604,0.18603 -0.70957,0.39708 -0.9375,0.625 -0.0274,0.0274 -1.16087,1.46413 -1.21875,1.40625 -0.0953,-0.0953 0.40581,-2.4067 0,-2.8125 -1.51,-1.51001 -3.63526,-1.40625 -6.03125,-1.40625 -0.1576,0 0.26508,-1.15903 0.34375,-2.59375 -0.38473,-0.17334 -0.78076,-0.3435 -1.15625,-0.53125 -5.40763,-2.70382 -10.65922,-5.64137 -16.46875,-7.09376 -3.53658,-0.88414 -7.29986,-3.90824 -10.25,-5.875 -2.51829,-1.67886 -6.25808,-1.57058 -8.21875,-3.53125 -0.0177,-0.0177 -0.0294,-0.0349 -0.0625,-0.0312 z m -7.46875,98.46876 c 0.0193,0.002 0.0625,0.009 0.0625,0 0,-0.0604 -0.0222,-0.0419 -0.0625,0 z m 35.03125,-51.46875 c 0.0785,0.13447 0.15681,0.28236 0.21875,0.40625 0.007,0.0134 10e-4,0.12718 0,0.21875 0.13212,0.28756 0.22904,0.53125 0,0.53125 -0.013,0 -0.003,-0.30886 0,-0.53125 -0.0974,-0.21193 -0.18744,-0.43792 -0.21875,-0.625 z m -45.59375,2.5625 c 3.20311,-0.13149 4.63955,6.2042 2.9375,7.90625 -0.54185,0.54185 -3.00224,2.74888 -3.875,2.3125 -0.59843,-0.29921 -1.44069,-0.40944 -1.9375,-0.90625 -1.37972,-1.37972 -3.30917,-3.81916 -2.125,-6.1875 1.13218,-2.26437 2.41157,-2.7065 3.53125,-2.625 0.52545,-0.31527 1.01116,-0.48122 1.46875,-0.5 z"
       id="path10996"
       inkscape:export-filename="/home/substack/media/vector/browserify.png"
       inkscape:export-xdpi="63.81599"
       inkscape:export-ydpi="63.81599" />
    <path
       inkscape:connector-curvature="0"
       style="fill:#e6b35a;fill-opacity:1;stroke:#ffffff;stroke-width:1px;stroke-linecap:butt;stroke-linejoin:miter;stroke-opacity:0"
       d="m 685.63516,805.52426 c -0.055,-0.055 -6.27404,2.02404 -7.0625,2.8125 -4.33855,4.33855 -20.27303,9.80629 -30.3125,11.5 -0.0307,0.005 -0.0631,-0.005 -0.0937,0 -0.58195,-0.58196 -2.78649,0.54425 -3.875,0 -0.56431,-0.28216 -1.10549,-0.0996 -1.59375,-0.34375 -1.72139,-0.86069 -4.00142,-1.34517 -5.3125,-2.65625 -0.41184,-0.41184 -1.29048,-0.22798 -1.78125,-0.71875 -0.72011,-0.72011 -0.30279,-2.0528 -0.875,-2.625 -0.67593,-0.67593 -1.54456,-1.23205 -2.28125,-1.96875 -0.38529,-0.38528 -1.59526,-0.90324 -1.96875,-0.15625 -0.76987,1.53974 1.67976,3.08601 2.65625,4.0625 1.00631,1.00631 2.42354,1.9149 3.90625,2.65625 0.83008,0.41504 1.80931,1.12181 2.28125,1.59375 0.12036,0.12037 0.28915,0.20023 0.46875,0.25 0.009,0.003 0.0217,-0.002 0.0312,0 1.43918,1.59687 18.2076,2.55134 18.9375,3.28125 0.27552,0.27551 0,2.381 0,2.8125 0,1.9256 -1.33763,14.05027 -2.09375,15.56251 -2.43882,4.87764 1.67831,49.48529 2.8125,55.15625 0.82944,4.14719 0.90263,8.86732 0.15625,13.375 -0.002,0.0101 0.002,0.0212 0,0.0312 -0.12168,0.25568 -0.24793,0.52504 -0.34375,0.8125 -0.98468,2.95404 -4.30885,7.27943 -7.25,8.75 -1.46982,0.73491 -2.59545,2.21506 -3.03125,2.65625 0.9516,-0.21007 4.78337,-0.40625 5.28125,-0.40625 0.25149,0 0.49874,-10e-4 0.75,0 -0.5987,0.84005 -1.2283,1.63455 -1.9375,2.34375 -1.61856,1.61856 -2.93941,3.37633 -4.03125,4.9375 -0.33812,0.34876 -0.81213,0.81213 -1.09375,1.09375 -0.56992,0.56993 -0.62712,1.31462 -1.0625,1.75 -0.0772,0.0772 0.0318,0.37597 0,0.5 -0.002,0.007 0.003,0.0253 0,0.0312 -0.54987,0.96992 -0.87944,1.59819 -0.875,1.59375 0.14302,-0.14302 0.30674,-0.34218 0.46875,-0.5625 -0.35697,1.01484 -0.60877,2.1238 -1.15625,3.21875 -0.34123,0.68247 -0.13045,1.73512 -0.375,2.46875 -0.62576,1.8773 -0.53125,3.94555 -0.53125,6.03125 0,0.34845 0.15688,1.34438 0.375,1.5625 0.0221,0.0221 0.0542,0.0644 0.0937,0.0937 -0.25398,-0.62314 0.25,-4.66134 0.25,-5.375 0,-0.88908 1.09914,-4.31788 1.75,-4.96875 0.49076,-0.49076 0.15381,-1.71631 0.71875,-2.28125 0.50517,-0.50517 0.47617,-1.35117 1.0625,-1.9375 1.66761,-1.66761 2.96829,-4.10923 6.09375,-4.53125 2.28658,-2.03808 5.65639,-3.99936 8.9375,-5.78125 1.43717,0.0339 2.87695,0.0625 4.3125,0.0625 2.72805,0 6.07763,-0.53447 8.75,0 1.56316,0.31263 3.38694,0.5 5,0.5 0.50707,0 7.38371,0.39463 9.6875,0.625 -0.52238,-0.14448 -1.11747,-0.33998 -1.1875,-0.375 -1.81991,-0.90995 -3.98918,-1.59783 -6,-2 -2.32629,-0.46526 -6.09958,-1.53634 -9.28125,-2.65625 1.01336,-0.027 2.01997,-0.0512 2.15625,-0.1875 0.18208,-0.18208 -2.66709,-0.33541 -3.59375,-0.34375 -0.95897,-0.36746 -1.84087,-0.71731 -2.53125,-1.0625 -0.25879,-0.12939 -0.79899,-0.45012 -1.21875,-0.6875 0.35709,-0.30114 0.68121,-0.61872 0.96875,-0.90625 4.82908,-4.82908 3.78421,-25.69046 11.3125,-33.21875 1.57596,-1.57596 -1.86091,-6.11092 -2.125,-6.375 -0.10935,-0.10936 -0.16865,-0.40187 -0.1875,-0.78125 -1.97754,-1.86657 -7.75,-6.12949 -7.75,-6.28125 0,-0.11631 1.01098,0.75549 2,1.25 1.95657,0.97829 4.28918,2.03918 5.5,3.25 0.0122,0.0122 0.18129,0.0267 0.3125,0.0312 0.0537,-0.70194 0.125,-1.45898 0.125,-1.71875 0,-2.84854 -0.0412,-6.22869 0.0312,-9.71875 -1.40549,0.0416 -2.82563,0.15625 -3.71875,0.15625 -1.23821,0 -2.5,0.26569 -2.5,0.25 0,-0.37935 1.53608,-0.39304 1.75,-0.5 1.17485,-0.58743 3.02045,-1.42115 4.53125,-1.65625 0.0175,-0.52508 0.007,-1.03644 0.0312,-1.5625 -0.0204,-0.009 -0.043,-0.0215 -0.0625,-0.0312 -0.86475,-0.43237 -1.43659,-0.75 -2.5,-0.75 -1.41446,0 0.80447,-0.69942 2.6875,-1.21875 0.27174,-4.01628 0.81163,-7.93488 1.875,-11.125 0.70571,-2.11712 -0.54245,-4.89266 0,-7.0625 1.66881,-6.67522 0.0516,-13.72701 1.40625,-20.50001 0.53518,-2.67592 1.4375,-5.81796 1.4375,-8.5 0,-1.20185 1.53734,-2.68142 0.6875,-3.53125 z m 5.84375,117.81251 c 0.43131,0.11929 0.8125,0.20521 0.8125,0.125 0,-0.0272 -0.35174,-0.0789 -0.8125,-0.125 z m -42.53125,-0.9375 c -0.0706,0.0213 -0.15625,0.0414 -0.15625,0.0625 0,0.0689 0.0657,0.0226 0.15625,-0.0625 z m -4,24.65625 c 0.0155,0.0198 0.0114,0.0625 0.0312,0.0625 0.0417,0 0.016,-0.0257 -0.0312,-0.0625 z"
       id="path11433"
       inkscape:export-filename="/home/substack/media/vector/browserify.png"
       inkscape:export-xdpi="63.81599"
       inkscape:export-ydpi="63.81599" />
    <path
       inkscape:connector-curvature="0"
       style="fill:#e6b35a;fill-opacity:1;stroke:#ffffff;stroke-width:1px;stroke-linecap:butt;stroke-linejoin:miter;stroke-opacity:0"
       d="m 704.01016,812.68051 c -10.50745,0.20191 -21.09732,3.22718 -25.0625,9.25 -0.004,0.19679 -0.0246,0.4202 -0.0312,0.625 l 3.1875,0.65625 c -1.03922,-0.20785 -2.34448,0.0786 -3.21875,-0.4375 -0.15286,4.25783 -0.76129,9.86372 -0.3125,10.31251 0.79746,0.79745 1.59355,-0.6875 2.125,-0.6875 1.87199,0 5.11935,-1.47729 7.0625,-2.12501 3.23969,-1.07989 16.28431,-0.78856 18.90625,1.28126 0.55847,-1.06368 1.3028,-2.18266 2.3125,-2.68751 0.34821,-0.17411 1.05337,-0.70994 1.5625,-0.84375 0.16332,-0.1345 0.28951,-0.21875 0.375,-0.21875 0.11785,0 -0.0384,0.15625 -0.15625,0.15625 -0.0631,0 -0.14602,0.0434 -0.21875,0.0625 -0.90593,0.74607 -2.72625,3.21125 -2.4375,3.50001 0.0979,0.0979 1.5262,-0.37501 1.9375,-0.37501 0.16436,0 0.31285,0.0209 0.46875,0.0312 0.35133,-0.0873 0.67709,-0.13541 0.78125,-0.0312 0.0157,0.0156 0.0222,0.0403 0.0312,0.0625 0.20259,-0.025 0.40373,-0.0625 0.65625,-0.0625 0.74141,0 1.31351,0.0858 1.75,0.50001 0.0108,0.0102 0.0207,0.0206 0.0312,0.0312 0.11395,0.007 0.22759,0 0.34375,0 0.24158,0 0.58776,0.11104 0.9375,0.25 0.40156,0.0172 0.77829,0.0595 1,0.28125 0.14732,0.14731 0.38394,0.19644 0.53125,0.34375 0.0442,0.0442 -0.0615,0.19455 -0.125,0.21875 0.0951,0.0723 0.44762,0.6875 0.3125,0.6875 -0.19925,0 -0.65849,-0.31474 -0.71875,-0.375 -0.67928,-0.67928 -4.02677,0.52677 -4.21875,0.71875 -0.10497,0.10497 -0.19561,0.21 -0.28125,0.3125 0.16477,0.30154 0.17273,0.82899 0.4375,1.09375 0.007,0.007 0.0817,0.0805 0.0937,0.0937 -0.85453,0.28216 -1.54853,0.75331 -1.84375,1.34375 -0.23809,0.47619 -0.37444,2.96931 0,3.34375 0.0171,0.0171 2.81423,0.64126 3.21875,0.6875 -0.0522,0.23355 -0.11447,0.45822 -0.21875,0.5625 -0.0948,0.0948 -0.73858,1.38642 -0.53125,1.59375 0.56104,0.56104 0.88991,1.23367 1.59375,1.9375 0.988,0.988 3.72226,0.90242 5.4375,0.84375 0.002,0.006 0.0312,0.0264 0.0312,0.0312 0,0.78307 -4.45153,0.34375 -4.59375,0.34375 -0.20546,0 -2.07955,-0.44033 -1.9375,-0.15625 0.57354,1.14709 1.50325,1.86467 2.6875,2.53125 0.97693,-0.0249 1.90796,-0.0608 2.25,0.28125 0.90204,0.90203 2.39504,0.71875 4.25,0.71875 7.55043,0 10.42766,-4.60531 13.4375,-10.625 1.33675,-2.67349 -0.57022,-6.79668 -1.40625,-8.46876 -2.24716,-4.4943 -3.77882,-7.99756 -7.09375,-11.3125 -4.31658,-4.31657 -13.78195,-6.46499 -23.34375,-6.28125 z m -25.125,10.09375 c 0.003,-0.0728 0.0289,-0.14677 0.0312,-0.21875 l -0.34375,-0.0625 c 0.10045,0.10045 0.19532,0.21208 0.3125,0.28125 z m -0.3125,-0.28125 c 0.111,-0.19465 0.25075,-0.37377 0.375,-0.5625 0.0557,-2.69529 -0.17595,-4.6053 -1.09375,-3.6875 -0.52686,0.52686 0.71875,0.7096 0.71875,1.4375 0,0.94281 -0.66667,2.14583 0,2.8125 z"
       id="path11435"
       inkscape:export-filename="/home/substack/media/vector/browserify.png"
       inkscape:export-xdpi="63.81599"
       inkscape:export-ydpi="63.81599" />
    <path
       inkscape:connector-curvature="0"
       style="fill:#e6b35a;fill-opacity:1;stroke:#ffffff;stroke-width:1px;stroke-linecap:butt;stroke-linejoin:miter;stroke-opacity:0"
       d="m 768.38516,801.18051 c -2.57927,1.31623 -5.30251,2.96886 -6.09375,4 -1.65407,2.15559 -5.9251,4.17775 -7.0625,7.46875 -6.48147,18.75383 -10.96134,30.91508 -28.1875,42.56251 -2.63769,1.78347 -6.69614,0.37573 -9.375,1.71875 2.52104,0.3034 11.93261,1.33354 13.53125,-0.75 1.16067,-1.51258 6.49683,-4.95953 10.71875,-7.65625 -0.49063,2.24526 -0.19341,4.58784 1.71875,6.5 0.17677,0.17678 0.88572,-0.17678 1.0625,0 0.2401,0.2401 0.51848,0.37867 0.84375,0.4375 -0.35015,1.92975 -0.65613,3.67037 -0.875,4.34375 -5.28508,16.26021 6.28292,3.50159 3.875,10.46875 -0.64934,1.87885 0.43253,4.29973 -0.1875,6.09375 -2.58358,8.15519 -0.45156,17.07318 -0.25,26.3125 -1.4368,1.87244 -1.89315,15.92308 -3.03125,17.40625 -0.52765,0.68763 -1.58383,1.48507 -2.21875,2.3125 -1.17513,1.53143 -3.25914,3.16023 -5.5,4.25 -1.59313,0.77476 -11.50116,13.26064 -13.53125,15.90625 -0.46174,0.60175 -2.83177,3.6444 -2.53125,3.875 0.47587,0.36516 4.78311,-4.38433 5.84375,-5.3125 1.94046,-1.69812 5.82371,-3.78541 9.21875,-5.9375 1.01048,-0.2651 2.01661,-0.85211 2.25,-1.15625 0.30439,-0.39668 1.38312,-0.16578 1.6875,-0.5625 0.66907,-0.87191 2.38474,-1.08268 2.96875,-1.84375 0.98989,-1.29003 1.92274,-2.74799 2.34375,-4.625 0.25621,-0.15959 0.57029,-0.31263 0.84375,-0.46875 0.84007,-1.43441 2.81841,-3.11275 3.1875,-3.59375 0.48497,-0.63199 2.48378,-0.83673 2.96875,-1.46875 0.94097,-1.22627 3.61601,-1.77884 4.625,-3.09375 0.0711,-0.0926 2.49852,-0.87832 5.5625,-1.78125 0.92317,0.14254 1.95339,-0.16962 3.125,-0.875 0.76085,-0.21461 1.48863,-0.41811 2.25,-0.625 0.72547,0.0626 1.41278,0.24012 1.8125,0.1875 0.3647,-0.048 5.82629,0.89862 5.84375,1.03125 0.0177,0.13396 -1.11923,-1.16531 -1.21875,-1.3125 -0.94308,-1.39478 -2.35266,-2.89553 -3.4375,-4.5 -0.66801,-0.98795 -1.51067,-1.93648 -2.1875,-2.9375 -0.31698,-0.4688 -0.41872,-1.05348 -0.53125,-1.65625 0.18911,-1.6834 0.41382,-3.67819 0.75,-6.4375 0.0671,-0.55096 0.10473,-1.00056 0.15625,-1.5 -3.10611,-0.0678 -8.40625,0.0569 -8.40625,-0.5 0,-0.23571 0.48305,0 0.71875,0 0.96696,0 4.82582,-0.16273 7.78125,-0.4375 0.2805,-3.08641 0.28503,-5.24039 0.25,-7.15625 -3.66935,-0.0183 -9.09375,0.0365 -9.09375,-0.5625 0,-0.33283 5.32286,-0.19402 9.09375,-0.1875 -0.0185,-0.94365 -0.0517,-1.87797 -0.0312,-2.875 -2.60595,-0.0829 -5.86561,-0.0937 -6.59375,-0.0937 -2.46974,0 2.79152,-1.17821 6.6875,-1.90625 0.0419,-0.59582 0.10879,-1.21915 0.1875,-1.90625 0.20837,-1.81821 -0.34086,-3.69852 -0.21875,-5.53125 0.24936,-3.74402 1.2826,-7.54798 1.53125,-11.28125 0.35929,-5.3945 -0.0635,-10.81396 0.21875,-16.28125 0.46759,0.0819 0.97068,0.0819 1.59375,0 0.43771,-0.0576 1.1744,0.53037 1.4375,0.1875 0.76095,-0.9917 1.73905,-1.85206 2.5,-2.84375 0.083,-0.10817 -0.0697,-8.24169 -0.40625,-8.5 -1.19896,-0.91977 -3.08981,-6.53884 -2.25,-8.96876 0.62739,-1.81535 1.3595,-13.93138 1.0625,-16.1875 -0.18557,-1.40963 -0.0761,-5.13264 -1.125,-5.9375 -0.1153,-0.0884 -0.22985,-0.12049 -0.34375,-0.1875 -0.005,-0.004 0.005,-0.028 0,-0.0312 -0.042,-0.59174 -0.069,-1.20901 -0.0625,-1.75 -0.005,-0.008 0.006,-0.0234 0,-0.0312 -0.18503,-0.26416 -0.39957,-0.49052 -0.65625,-0.6875 -1.42275,-1.09174 -2.28264,-2.29846 -4.3125,-3 -0.17393,-0.0601 -0.3714,-0.0994 -0.53125,-0.125 z"
       id="path12259"
       inkscape:export-filename="/home/substack/media/vector/browserify.png"
       inkscape:export-xdpi="63.81599"
       inkscape:export-ydpi="63.81599" />
    <path
       style="fill:#5a8ce6;fill-opacity:1;stroke:#ffffff;stroke-width:1px;stroke-linecap:butt;stroke-linejoin:miter;stroke-opacity:0"
       d="m 768.69186,796.26536 c -9.71218,-0.14325 -15.72581,-11.31543 -10.52933,-26.35115 0.50311,-1.45574 5.0616,-6.81157 5.16557,-6.73178 0.22392,0.17183 -3.83973,8.57449 -1.9302,8.32312 0.18157,-0.0239 2.77266,-7.09795 4.34356,-9.14513 1.27748,-1.66481 9.59039,-16.70585 8.25665,-17.72929 -0.44044,-0.33797 -0.46578,8.68257 -0.37777,8.62307 1.12654,-0.76171 6.45864,-12.23287 6.10432,-14.92439 -0.14774,-1.12233 -0.0395,-4.01382 0.40413,-4.59202 0.095,-0.12375 -0.34482,-1.97186 -0.26104,-1.98289 0.34099,-0.0448 0.53246,7.8759 0.54843,7.99682 0.7898,5.99956 0.45914,15.07521 -3.23417,17.57243 -1.52241,1.02937 -3.28882,5.66451 -3.44372,4.48785 -0.13228,-1.00512 2.29192,-0.0829 2.90909,-0.88727 0.42465,-0.55341 4.24936,-4.59391 4.43515,-4.61837 0.52254,-0.0688 -0.36873,1.02989 -0.29994,1.55242 0.46563,3.53702 -8.82017,13.44862 -8.51769,15.7464 0.0573,0.43554 7.53346,-4.06828 7.54002,-4.01847 0.26909,2.0441 -2.38496,6.01192 -3.54789,7.52745 -0.64967,0.84665 -1.51731,3.7977 -1.6566,2.73964 -0.0174,-0.12859 2.82607,-0.19827 2.97434,-0.39155 0.21505,-0.28025 3.05574,-3.00297 3.70475,-2.50496 1.4255,1.09385 0.0292,6.93118 -0.93876,8.19261 -0.55249,0.72002 -1.93425,0.77842 -2.3481,1.31774 -0.14348,0.187 -0.39969,0.79466 -0.43046,0.56098 -0.13937,-1.05867 8.62207,-1.94398 5.77925,1.76077 -2.88951,3.76561 -9.38704,5.68349 -14.64958,7.47597 z"
       id="path12302"
       inkscape:connector-curvature="0"
       inkscape:export-filename="/home/substack/media/vector/browserify.png"
       inkscape:export-xdpi="63.81599"
       inkscape:export-ydpi="63.81599" />
    <path
       style="fill:#c8dceb;fill-opacity:1;stroke:#ffffff;stroke-width:1px;stroke-linecap:butt;stroke-linejoin:miter;stroke-opacity:0"
       d="m 765.39988,792.95331 c -0.47739,-0.0906 -1.52277,0.20557 -1.43217,-0.27182 0.0906,-0.47739 1.79492,0.59514 1.43217,0.27182 -0.32424,-0.28899 -1.83415,-0.29523 -2.1584,-0.58422 -0.61045,-0.54411 -1.15396,-1.36343 -1.88656,-2.0164 -0.35832,-0.31938 0.12671,-1.685 -0.12171,-2.11783 -1.38073,-2.4056 -4.46433,-9.269 -2.1016,-11.91987 0.52655,-0.59074 0.0583,-3.19058 0.52338,-3.21731 0.3192,-0.0183 1.3415,3.20503 1.61473,3.44857 0.0374,0.0333 1.02565,-0.0235 1.05892,-0.0609 0.44322,-0.49727 0.36314,-2.28608 0.89663,-2.88463 1.76789,-1.98348 2.68748,-5.2696 4.53588,-7.34341 2.16042,-2.42388 2.14938,-5.41734 3.82995,-7.30285 0.15683,-0.17595 -0.27589,-0.69242 -0.0406,-0.70594 0.16825,-0.01 -0.85863,2.79631 -0.89662,2.88462 -0.74529,1.73254 -2.78691,6.96568 -2.73046,7.94793 0.0227,0.39473 -0.35186,1.02596 -0.29211,1.0792 0.75631,0.67411 3.5813,-4.10132 4.36547,-4.14639 0.0797,-0.005 -1.45543,2.58317 -1.60256,2.92519 -0.37489,0.8715 -4.31195,10.55702 -3.23355,11.51822 0.18058,0.16096 5.04821,-4.59085 5.07143,-4.18697 0.0462,0.80326 -3.6172,8.49714 -2.64932,9.35982 0.33616,0.29963 6.67072,-4.10107 7.22982,-3.60274 0.39269,0.35001 -4.20242,4.62663 -3.59869,5.16474 0.80249,0.71526 2.95645,-0.37892 3.92326,0.4828 2.15712,1.92266 -6.3692,5.67809 -8.16702,5.78141 -0.60188,0.0346 -3.02537,-0.4263 -3.57029,-0.50309 z"
       id="path12304"
       inkscape:connector-curvature="0"
       inkscape:export-filename="/home/substack/media/vector/browserify.png"
       inkscape:export-xdpi="63.81599"
       inkscape:export-ydpi="63.81599" />
    <path
       inkscape:connector-curvature="0"
       style="fill:#e6b35a;fill-opacity:1;stroke:#ffffff;stroke-width:1px;stroke-linecap:butt;stroke-linejoin:miter;stroke-opacity:0"
       d="m 845.10391,734.83676 c -3.17312,0.0401 -6.53711,0.86867 -10.78125,2.1875 -0.0268,0.008 -0.067,-0.008 -0.0937,0 -6.18879,0.7521 -13.12059,2.35207 -17.6875,5.25 -1.86959,0.31858 -4.95335,2.24122 -7.34375,4.25 -0.0524,0.044 -0.1046,0.0809 -0.15625,0.125 -0.59431,0.42159 -1.331,1.03317 -2.5,1.8125 -0.56777,0.37851 -0.72641,1.15094 -1.25,1.5 -6.02608,4.01739 -8.14284,11.32136 -9.75,17.75 -0.2898,1.15919 0.12368,2.62897 -0.25,3.75 -0.42644,1.27931 -0.4553,3.8841 0,5.25 0.38979,1.16937 0.86765,2.35293 1.25,3.5 0.54443,1.63328 0.8243,2.8986 1.5,4.25 0.0907,0.18151 1.25569,1.5 1,1.5 -0.20978,0 0.96152,-0.14424 1.25,0 0.29814,0.14907 0.7643,0.2357 1,0 0.70119,-0.70119 0.0803,-2.0893 -0.25,-2.75 -0.38827,-0.77655 -1.96048,0.28951 -2.25,0 -0.20609,-0.20609 -3.24747,-10.50253 -2,-11.75 0.625,-0.625 -0.125,-2.625 0.5,-3.25 1.04477,-1.04477 1.62656,-6.87656 3,-8.25 1.52445,-1.52445 2.33488,-3.33488 3.75,-4.75 0.89052,-0.89052 1.69434,-1.49602 2.46875,-2.09375 0.16863,0.72476 0.19553,1.50803 0.78125,2.09375 1.56915,1.56915 5.64854,-0.0876 8.09375,-1.28125 0.13261,-0.003 0.27524,0.004 0.40625,0 -0.35766,0.62295 -0.72902,1.26027 -1.25,1.78125 -0.46513,0.46513 -0.63255,2.63255 -1.25,3.25 -0.25098,0.25098 -0.69373,3.69373 -1.5,4.5 -0.0846,0.0846 -0.26866,0.87108 -0.5,1.6875 0.75065,0.67547 2.21614,1.93291 3.1875,2.5625 0.42639,-0.0287 0.8125,-0.0118 0.8125,0.25 0,0.21907 -0.3383,0.0574 -0.8125,-0.25 -0.36462,0.0245 -0.76182,0.0878 -0.9375,0 -0.36344,-0.18172 -2.61759,-0.88241 -3,-0.5 l -0.0625,0.0625 c -0.11892,0.41358 -0.54093,2.30038 -0.875,3.625 0.9969,0.92531 2.33778,1.88764 2.6875,2.0625 0.13169,0.0658 0.62667,0.34813 1.09375,0.59375 0.51061,0.13265 0.90625,0.26647 0.90625,0.40625 0,0.0483 -0.43917,-0.16063 -0.90625,-0.40625 -1.26062,-0.32751 -3.5774,-0.74116 -4.96875,-2 -0.0108,-0.01 -0.0205,-0.0214 -0.0312,-0.0312 -0.58229,-0.28344 -1.2583,-0.62277 -2.46875,-1.21875 -0.6752,3.00891 -0.94184,6.07205 -0.375,8.90625 1.3618,6.80898 -1.15647,14.53059 1,21 1.11232,3.33695 1.63496,7.03985 2.5,10.5 1.43885,5.75542 4.21359,11.14076 6,16.5 1.07546,3.22637 1.38261,7.95334 1.1875,12.28126 -1.60898,1.56131 -3.0521,3.38545 -4,5.28125 -0.1055,0.211 -0.17244,0.43335 -0.25,0.65625 -5.34056,-0.0107 -10.69375,-0.17697 -16.03125,-0.65625 l -1.40625,1.75 c -0.11785,0 -0.26045,-0.0833 -0.34375,0 -0.90802,0.90802 -0.82097,5.89778 0,6.71875 0.90633,0.90633 6.78363,-0.34375 8.125,-0.34375 3.21649,0 6.96869,0.10852 10.25,-0.46875 0.86641,2.19193 2.00485,3.73974 3.53125,5.03125 0.11614,1.98796 0.0419,3.93672 -0.5625,5.75 -1.68493,5.0548 -0.81163,10.9349 -2.5,16 -1.333,3.99901 -3.10806,7.82419 -4.5,12 -1.32178,3.96533 -2.56868,9.35302 -5,13 -2.75598,4.13397 -6.21561,8.43123 -8.5,13 -1.58719,3.17438 -5.03402,5.55103 -7,8.5 -3.01888,4.52832 -5.0052,8.0052 -8.5,11.5 -1.97932,1.97932 -7.81564,9.63127 -9,12 -0.82911,1.65822 -2.35808,3.07994 -2.46875,4.8125 1.3657,-1.31815 5.06559,-3.95776 5.96875,-5.3125 3.9107,-5.86605 8.77967,-8.77967 13.5,-13.5 1.61675,-1.61675 4.83946,-2.33945 6.5,-4 3.32995,-3.32995 7.47523,-7.65841 13,-9.5 3.13921,-1.0464 6.54526,-1.52263 9.5,-3 1.67009,-0.83504 8.50553,-0.50552 9.5,-1.5 0.40003,-0.40003 -1.39155,-2.11123 -3.34375,-4.21875 -0.82997,0.0608 -1.60148,0.19137 -2.15625,0.46875 -1.12758,0.56379 -4.4409,1.5591 -4.5,1.5 -0.56808,-0.56808 3.34872,-2.3063 5.46875,-3.3125 -1.30219,-1.50561 -2.47421,-3.09246 -2.9375,-4.53125 -1.95323,0.65401 -4.58862,2.15112 -4.78125,2.34375 -0.51437,0.51437 -1.24887,0.90572 -1.9375,1.375 -0.3214,0.43191 -0.72464,0.875 -1.0625,0.875 -0.11785,0 0.16667,-0.16666 0.25,-0.25 0.23757,-0.23757 0.53061,-0.4329 0.8125,-0.625 0.19613,-0.26357 0.39034,-0.57784 0.4375,-0.625 1.32939,-1.32939 3.16158,-1.91158 4.5,-3.25 l 1.59375,-1.59375 c 0.002,-0.01 -0.002,-0.0214 0,-0.0312 0.0955,-0.4141 0.31621,-0.78496 0.65625,-1.125 1.6128,-1.6128 0.3275,-6.82749 2,-8.5 1.70742,-1.70742 1.82266,-5.32266 3.5,-7 4.62179,-4.62178 6.01964,-12.03928 9.5,-19 0.98129,-1.96258 0.017,-5.03394 1,-7 0.62127,-1.24254 0.50591,-2.84362 0.53125,-4.34375 0.93443,-0.44218 2.1883,-0.96956 2.8125,-1.59375 1.83977,-1.83977 2.66335,-4.06073 2.71875,-6.375 5.36496,-0.34238 12.53475,0.375 16.375,0.375 0.86648,0 2.67129,-0.17396 4.6875,-0.4375 0.0921,2.68506 0.35647,5.06942 0.875,6.625 0.52635,1.57905 0.75,3.60369 0.75,5.25 0,0.827 0.41543,1.76233 0.53125,2.21875 0.0685,-0.45553 0.46875,-2.75548 0.46875,-2.96875 0,-2.45876 0.75,-5.5394 0.75,-8.25 0,-1.08331 0.0471,-2.22231 0.0937,-3.375 -0.005,-0.008 0.005,-0.0231 0,-0.0312 -0.11545,-0.20378 -0.2418,-0.38985 -0.34375,-0.59375 -0.38444,-0.76889 -1.30848,-1.1516 -2.03125,-1.53125 0.64699,-0.0815 1.2341,-0.1716 1.28125,-0.21875 0.31892,-0.3189 0.84417,-0.25 1.5,-0.25 0.27958,0 0.71,-0.29 0.75,-0.25 0.51481,0.51481 0.68414,2.43415 1,2.75 0.38639,0.38639 3.62239,-1.18619 4.25,-1.5 1.24034,-0.62017 6.3917,-0.3917 7,-1 0.37746,-0.37746 -1.1883,-0.1883 -1.25,-0.25 -0.62847,-0.62846 -2.30263,-0.52631 -3.25,-1 -0.92267,-0.46133 -5.10625,-2.25 -5.5,-2.25 -0.83123,0 -1.90729,1.6573 -2.25,2 -0.0609,0.0609 -1.41871,-0.25824 -2.5625,-0.5 0.29551,-0.27768 0.69257,-0.63007 0.8125,-0.75 0.30772,-0.30772 0.65255,-0.57056 1,-0.84375 -0.0769,0.004 -0.14028,-0.004 -0.21875,0 0.0429,-4.34864 -0.31025,-8.62125 -2.28125,-11.90625 -0.42986,1.20452 -1.0697,6.43997 -1.3125,12 -7.41593,0.0278 -14.93789,0.39361 -22.5,0.78125 -0.89852,-1.89627 -2.18365,-3.69199 -3.71875,-5.1875 -1.53354,-7.48215 -4.2159,-15.08806 -5.96875,-18.59376 -1.04131,-2.08262 -0.94474,-4.88948 -2,-7 -5.55364,-11.10727 -14.26245,-22.9751 -7.5,-36.5 0.92355,-1.8471 0.61073,-5.11073 2,-6.5 2.83759,-2.83759 4.81609,-6.65804 9.5,-9 3.08322,-1.54161 6.31068,-5 9.5,-5 1.89929,0 5.74686,-1.62657 8,-0.5 4.61283,2.30641 9.19193,4.69193 12,7.5 1.02571,1.0257 1.23217,3.96433 2,5.5 1.64254,3.28509 -0.99448,14.01105 1,18 0.25905,0.51809 0.40212,1.1091 0.46875,1.71875 -0.28009,0.0308 -0.55537,0.0447 -0.84375,0.0625 0.9314,0.64321 1.68784,1.28159 2.125,1.71875 0.0743,0.0743 0.3077,0.0269 0.5,0 -0.0843,0.0422 -0.16511,0.13251 -0.25,0.1875 -0.68165,0.14794 -1.20845,0.36165 -1.25,0.5625 -1.08854,-1.08854 -2.07227,-1.53043 -3,-1.53125 -1.54621,-10e-4 -2.921,1.20225 -4.25,2.53125 -1.81712,1.81713 -3,6.74561 -3,9.75 0,0.84809 -9.3e-4,6.25094 -0.25,6.5 -0.41641,0.41641 -0.69871,5.19871 -1.25,5.75 -0.33974,0.33974 -1.5,3.12884 -1.5,3.25 0,0.25282 1.16305,-1.70652 2.75,-2.5 1.08895,-0.54447 2.1038,-1.4288 3.09375,-2.40625 0.82403,-0.69582 1.52213,-1.45963 1.65625,-1.59375 2.81173,-2.81173 7.53615,-6.03615 10.5,-9 1.85571,-1.8557 1.62909,-4.25817 2.75,-6.5 0.23333,-0.46667 -0.23333,-1.28333 0,-1.75 1.30746,-2.61493 -0.418,-3.68479 -2.46875,-3.84375 1.90672,-3.90733 2.36231,-9.62405 3.21875,-13.90625 0.30033,-0.70641 -0.0672,-9.20158 -2,-15 -2.14762,-6.44286 -2.44357,-15.12905 -9,-19.5 -7.47118,-4.98078 -12.21445,-6.94109 -17.4375,-6.875 z m 19.21875,129.59376 c -0.007,0.0456 -0.0323,0.28125 -0.0312,0.28125 0.0927,0 0.0758,-0.10576 0.0312,-0.28125 z m -96.25,89.59375 c -0.31516,0.30419 -0.53125,0.55899 -0.53125,0.6875 0,0.33334 0.5,-0.16666 0.5,-0.5 0,-0.0655 0.0272,-0.12288 0.0312,-0.1875 z m 58.09375,-114.90625 c 0.10103,-0.0223 0.15974,-0.0278 0.1875,0 0.59066,0.59066 3.32839,2.19545 4.25,2.65625 1.09654,0.54828 2.59646,2.03396 3.1875,2.625 0.0468,0.0468 0,0.45845 0,0.53125 l 0,4.96875 c 0,0.4613 0.57779,2.57846 0.15625,3 -0.92296,0.92296 -3.61459,2.58854 -5.125,3.34375 -0.35984,0.17992 -4.3148,2.59145 -4.59375,2.3125 -0.9411,-0.9411 -2.10395,-2.11586 -3.34375,-3.53125 -0.56919,-0.64981 -2.78215,-2.59464 -3.1875,-3 -0.31508,-0.31508 0.0891,-7.10564 0.1875,-7.96875 1.55445,-1.94306 3.74835,-2.32066 5.125,-3.34375 0.20634,-0.20635 2.44902,-1.4374 3.15625,-1.59375 z"
       id="path12348"
       inkscape:export-filename="/home/substack/media/vector/browserify.png"
       inkscape:export-xdpi="63.81599"
       inkscape:export-ydpi="63.81599" />
    <path
       inkscape:connector-curvature="0"
       style="fill:#e6b35a;fill-opacity:1;stroke:#ffffff;stroke-width:1px;stroke-linecap:butt;stroke-linejoin:miter;stroke-opacity:0"
       d="m 795.26016,835.49302 c -3.91469,1.55845 -6.19121,5.42442 -7.0625,9.8125 -0.73318,0.0341 -1.44898,0.12645 -2.15625,0.4375 -0.20244,1.38864 -0.41326,2.29133 0,3 0.0583,0.1 0.78597,0.0424 1.75,-0.0937 -0.0341,0.81193 0.0117,1.63338 0.0625,2.4375 -0.76835,0.0853 -1.53004,0.24808 -2.3125,0.65625 0,1.03947 0.12853,2.625 0.75,2.625 0.0253,0 1.08919,-0.32847 1.875,-0.5625 0.48305,2.55544 1.43215,4.8702 2.75,6.5625 0.70276,0.90245 2.92174,4.02385 4.15625,3.0625 -1.42198,-2.31421 -2.74357,-4.02347 -3.71875,-6.78125 -0.25102,-0.70988 -0.36813,-2.08321 -0.40625,-3.6875 0.59873,-0.18265 1.58486,-0.46205 1.59375,-0.46875 0.6448,-0.48439 4.75,0.64455 4.75,-0.375 0,-0.64027 0.25,-2.33101 0.25,-2.625 0,-0.51622 -0.65641,0.375 -1,0.375 -0.43807,0 -2.47121,-0.41887 -2.75,0 -0.51811,0.77848 -1.70285,1.02209 -2.84375,1.09375 0.0245,-0.94827 0.10233,-1.89725 0.1875,-2.84375 1.86661,-0.32122 3.68139,-0.65625 4.15625,-0.65625 0.35808,0 2.0221,0.39081 2.25,0 0.3522,-0.60397 -0.47406,-0.0753 -0.25,-0.84375 0.13437,-0.46085 0.5,-0.76601 0.5,-1.28125 0,-0.45189 -0.48648,0.40625 -0.75,0.40625 l -3.75,0 c -0.60635,0 -1.26389,-0.1873 -1.84375,-0.3125 0.23436,-1.33236 0.54987,-2.41781 0.9375,-3 0.24785,-0.37226 -0.0604,-1.12775 0.1875,-1.5 1.25675,-1.88755 1.71823,-3.56563 2.6875,-5.4375 z"
       id="path12572"
       inkscape:export-filename="/home/substack/media/vector/browserify.png"
       inkscape:export-xdpi="63.81599"
       inkscape:export-ydpi="63.81599" />
    <path
       style="fill:#e6b35a;fill-opacity:1;stroke:#ffffff;stroke-width:1px;stroke-linecap:butt;stroke-linejoin:miter;stroke-opacity:0"
       d="m 819.74355,848.32906 c 0.19843,-0.97431 1.97169,-5.13383 2.42802,-5.06321 0.48293,0.0748 1.30677,0.0187 1.91029,-0.0838 1.06493,-0.18081 1.97552,-0.70613 3.11766,-0.52935 0.0537,0.008 3.84201,5.24912 3.86315,5.27801 0.0134,0.0183 -1.11257,2.33449 -1.30446,2.70732 -0.5191,1.00863 -0.73417,2.29165 -0.88682,3.27793 -0.0199,0.12844 -1.51202,-0.23403 -1.7294,-0.26768 -1.56841,-0.24275 -2.84416,0.69819 -4.24854,0.48081 -0.0565,-0.009 -2.18045,-4.47553 -3.1499,-5.80004 z"
       id="path12612"
       inkscape:connector-curvature="0"
       inkscape:export-filename="/home/substack/media/vector/browserify.png"
       inkscape:export-xdpi="63.81599"
       inkscape:export-ydpi="63.81599" />
    <path
       inkscape:connector-curvature="0"
       style="fill:#e6b35a;fill-opacity:1;stroke:#ffffff;stroke-width:1px;stroke-linecap:butt;stroke-linejoin:miter;stroke-opacity:0"
       d="m 887.19766,770.18051 c -0.0355,0 -0.0188,0.31384 0,0.6875 0.0775,-0.40396 0.0973,-0.6875 0,-0.6875 z m 0,0.6875 c -0.10129,0.52796 -0.30779,1.3112 -0.46875,2.21875 0.13771,-0.32996 0.30405,-0.6478 0.46875,-0.8125 0.0747,-0.0747 0.0298,-0.81337 0,-1.40625 z m -0.46875,2.21875 c -0.62043,1.48661 -0.96875,4.28344 -0.96875,5.5625 0,2.75247 -4.86838,19.07916 -6.65625,21.125 -0.0143,-0.0944 -0.0574,-0.625 -0.0625,-0.625 -0.34014,0 -0.2131,0.52929 -0.21875,0.96875 -1.15148,1.21153 -2.42776,2.99887 -3.4375,4.46875 -1.93239,1.86527 -3.96104,3.6173 -6.21875,5.875 -0.37094,0.37094 -1.57234,0.50985 -2.125,1.0625 -0.48528,0.48528 2.23719,7.20595 2.46875,7.4375 0.0194,0.0194 0.0626,0.0222 0.0937,0.0312 2.88024,-1.45034 6.95917,-3.94709 6.96875,-3.9375 0.16242,0.16241 -1.57651,1.95151 -1.75,2.125 -1.07383,1.07383 -1.4518,3.54555 -2.5,4.59375 -0.13416,0.13416 -0.0519,1.76364 0.0625,3.59375 2.7799,6.4173 6.75143,14.22083 9.96875,20.15626 2.49148,0.47537 5.05995,0.8106 5.71875,0.71875 -0.3692,0.24179 -1.21672,0.96672 -1.25,1 -0.24496,0.24496 -1.50504,0.0988 -1.75,0.34375 -0.13164,0.13164 -0.60008,0.50412 -1.125,0.875 1.91109,3.40805 3.35336,5.74663 3.71875,5.9375 7.84645,4.09864 -7.83298,13.96379 -3.875,16.03125 3.42135,1.78716 22.48901,5.48482 23.5625,8.90625 0.90127,2.87253 -30.07571,42.4337 -34.46875,50.84375 -1.83181,3.50684 -18.43162,31.01704 -17.59375,33.6875 0.0482,0.1536 5.23636,-6.80836 6.40625,-7.9375 6.91012,-6.66942 12.9686,-9.89995 19.96875,-16.65625 4.11412,-3.97081 10.34514,-7.03556 13.28125,-8.375 -2.87266,1.56664 -5.64936,4.5617 -6.53125,6.25 -2.19238,4.1971 -7.89249,7.6388 -11.375,11 -10.45131,10.08725 -17.05647,24.0565 -22.96875,35.375 -0.70044,1.34109 -7.44022,13.02954 -2.5312,15.5938 12.65886,6.61238 22.83843,-0.77718 28.9375,-16.46875 -2.01901,3.86522 -5.68949,4.38403 -6.84375,6.59375 -2.16383,4.14246 -17.01082,6.09613 -16.125,0.59375 3.1555,-19.60052 38.99789,-52.56963 59,-71.875 2.10227,-2.02902 13.82774,-9.18178 14.5,-10.46875 0.28471,-0.54502 0.0634,-1.4056 0.0312,-2.09375 -2.56823,1.68109 -8.17418,4.66241 -10.84375,5.5 -2.73968,0.85959 -26.73773,13.97263 -27.0625,12.9375 -0.50882,-1.62172 1.96454,-2.78839 3.1875,-3.96875 8.30082,-8.01167 15.43719,-24.55948 26.125,-34.875 13.82221,-13.34074 25.13249,-41.54074 35.5,-59.84376 -1.86544,-0.43936 -3.82486,-0.76889 -3.40625,-1.1875 0.2831,-0.2831 2.39111,-0.39381 4.5625,-0.78125 0.50413,-0.85822 1.03125,-1.7278 1.53125,-2.53125 -0.74712,0.0273 -1.39998,0.0625 -1.59375,0.0625 l -2.21875,0 c 0.72846,-0.13235 1.9552,-0.5 1.96875,-0.5 0.38003,0 1.3189,-0.0651 2.1875,-0.125 0.90942,-1.43883 1.82108,-2.77485 2.71875,-4 -1.77756,-1.24345 -4.2856,0.375 -6.65625,0.375 -0.0497,0 -0.12145,-0.0149 -0.1875,-0.0312 -0.2058,0.0987 -0.3125,0.13013 -0.3125,0.0312 0,-0.11698 0.15695,-0.0698 0.3125,-0.0312 0.6174,-0.29594 2.03818,-1.21875 3.4375,-1.21875 0.80061,0 2.95843,-0.35125 4.6875,-0.8125 0.0829,-0.10306 0.16717,-0.21159 0.25,-0.3125 2.70433,-1.38139 7.58858,-3.90108 7.8125,-4.125 0.80868,-0.80868 3.89825,-5.69476 4.25,-6.75 0.35979,-1.07935 1.84668,-2.02002 2.5,-3 1.26662,-1.89993 2.75866,-3.76732 3.75,-5.75 0.81915,-1.6383 2.57845,-8.07845 3.25,-8.75 0.13599,-0.13598 1.74271,-4.00728 1.5,-4.25 -0.76026,-0.76026 -10.91079,-1.7946 -12.5,-1 -0.76878,0.38439 -4.76621,1.75 -5.25,1.75 -0.24739,0 -2.75,1.23682 -2.75,1.5 0,0.12083 1.22302,-0.47302 1.25,-0.5 0.49068,-0.49068 1.84113,-0.0911 2.25,-0.5 0.91147,-0.91146 7.64763,-0.35237 8.25,0.25 0.25,0.25 0.75,0.25 1,0.5 0.95152,0.95152 -0.46439,3.1198 -1.5625,4.46875 -1.42603,0.0807 -2.81372,0.15539 -3.8125,0.46875 -10.71602,3.3622 -25.19741,2.8844 -30.1875,12.4375 -6.2036,11.87616 -4.90099,33.12527 -8.3125,39.65626 -2.53954,4.86173 -8.12511,1.96941 -9.78125,0.75 0.31921,2.05265 -2.70791,10.15697 -2.96875,10.65625 -1.45772,2.79069 -6.74876,18.43035 -7.46875,18.65625 -2.64571,0.8301 -19.59614,-30.2964 -24.4375,-35.3125 -1.69699,-1.75825 -0.37641,-11.48589 -2.4375,-12.56251 -3.3335,-1.74127 1.23314,-16.6921 -1.96875,-15.6875 -1.62425,0.50962 -4.14573,1.05004 -6.8125,1.71875 -0.21795,-0.6892 -0.47062,-1.34749 -0.6875,-1.78125 -0.11535,-0.23069 -0.36451,-2.17486 -0.59375,-4.0625 0.38413,-0.74877 0.74455,-1.36954 0.96875,-1.59375 0.16035,-0.16035 0.40661,-0.27529 0.5625,-0.4375 -0.008,0.16607 0.018,0.33048 0.125,0.4375 0.29463,0.29463 0.76787,0.42412 1.0625,0.71875 1.54704,1.54704 6.42469,-1.83093 6.71875,-2.125 0.9915,-0.99149 -1.49962,-3.99962 -1.75,-4.25 -0.23571,-0.2357 0.2357,-1.17055 0,-1.40625 -2.11111,-2.11111 -1.0625,-7.00679 -1.0625,-10.59375 0,-3.06909 0.34375,-5.65029 0.34375,-8.15625 0,-0.80748 0.11376,-1.60684 0.25,-2.375 z m 40.15625,68.15626 c -0.0564,-0.36254 -0.23396,-0.56203 -0.53125,-0.46875 -0.0652,0.0205 0.18632,0.21478 0.53125,0.46875 z m 4.15625,64.15625 c 1.42117,-0.93026 1.94602,-1.49475 0.46875,-1.03125 -0.41907,0.13148 -0.49161,0.53972 -0.46875,1.03125 z m -50.5625,77.25 c 0.89991,-1.72278 -6.01428,1.37324 -5,3.03125 1.01427,1.65803 3.34199,-2.01697 5,-3.03125 z m 75.875,-162.00001 c 0.10156,-0.0234 0.3125,0.0625 0.4375,0.0625 -0.29018,0.0513 -0.5,0.0702 -0.5,0 0,-0.0417 0.0286,-0.0547 0.0625,-0.0625 z m -68.15625,25.53126 c 0.0376,-0.0171 0.0625,-0.0199 0.0625,0 0,0.0305 -0.052,0.0475 -0.125,0.0625 0.0243,-0.0146 0.0448,-0.0545 0.0625,-0.0625 z"
       id="path12745"
       inkscape:export-filename="/home/substack/media/vector/browserify.png"
       inkscape:export-xdpi="63.81599"
       inkscape:export-ydpi="63.81599" />
  </g>
</svg>
