<?xml version="1.0" encoding="UTF-8" standalone="no"?>
<!-- Created with Inkscape (http://www.inkscape.org/) -->

<svg
   xmlns:dc="http://purl.org/dc/elements/1.1/"
   xmlns:cc="http://creativecommons.org/ns#"
   xmlns:rdf="http://www.w3.org/1999/02/22-rdf-syntax-ns#"
   xmlns:svg="http://www.w3.org/2000/svg"
   xmlns="http://www.w3.org/2000/svg"
   xmlns:sodipodi="http://sodipodi.sourceforge.net/DTD/sodipodi-0.dtd"
   xmlns:inkscape="http://www.inkscape.org/namespaces/inkscape"
   width="100"
   height="100"
   id="svg3025"
   version="1.1"
   inkscape:version="0.48.3.1 r9886"
   sodipodi:docname="fireball.svg"
   inkscape:export-filename="/home/substack/media/vector/fireball.png"
   inkscape:export-xdpi="49.70277"
   inkscape:export-ydpi="49.70277">
  <defs
     id="defs3027" />
  <sodipodi:namedview
     id="base"
     pagecolor="#ffffff"
     bordercolor="#666666"
     borderopacity="1.0"
     inkscape:pageopacity="0.0"
     inkscape:pageshadow="2"
     inkscape:zoom="0.5"
     inkscape:cx="69.178932"
     inkscape:cy="55.140126"
     inkscape:document-units="px"
     inkscape:current-layer="layer1"
     showgrid="false"
     inkscape:window-width="1364"
     inkscape:window-height="766"
     inkscape:window-x="0"
     inkscape:window-y="0"
     inkscape:window-maximized="0" />
  <metadata
     id="metadata3030">
    <rdf:RDF>
      <cc:Work
         rdf:about="">
        <dc:format>image/svg+xml</dc:format>
        <dc:type
           rdf:resource="http://purl.org/dc/dcmitype/StillImage" />
        <dc:title></dc:title>
      </cc:Work>
    </rdf:RDF>
  </metadata>
  <g
     inkscape:label="Layer 1"
     inkscape:groupmode="layer"
     id="layer1"
     transform="translate(0,-952.36218)">
    <path
       style="fill:#5a8ce6;fill-opacity:1;stroke:#ffffff;stroke-width:1px;stroke-linecap:butt;stroke-linejoin:miter;stroke-opacity:0"
       d="m 62.90625,30.6875 c -2.174093,0.05702 -4.175583,0.308526 -5.40625,0.71875 -0.322545,0.107515 -0.669889,0.139933 -1.03125,0.15625 -0.02027,-0.0048 -0.04221,0.0049 -0.0625,0 -0.508082,-0.122295 -1.007596,-0.288846 -1.21875,-0.5 -0.346633,-0.346632 -1.757327,0.1875 -1.96875,0.1875 -3.989506,0 -7.396848,3.176576 -11.625,1.0625 -1.485507,-0.155057 2.243438,1.406213 2.6875,1.625 0.886968,0.443484 2.194774,0.738012 3.21875,1.25 0.485611,0.242806 2.477423,0.02258 2.6875,-0.1875 0.263928,-0.263929 0.925791,0.02127 1.3125,0.21875 -0.119193,0.04766 -0.209274,0.08427 -0.25,0.125 C 51.11469,35.47906 50.233661,35.5 50,35.5 c -0.03125,0 -0.09074,0.05367 -0.15625,0.09375 0.744107,-0.04421 3.539644,0.707319 3.75,0.8125 1.416873,0.70843 2.896797,2.16351 4.46875,2.6875 0.541156,0.18038 1.112231,0.29049 1.59375,0.53125 0.106699,0.0534 0.71875,0.91009 0.71875,1.0625 0,0.39395 -1.799248,-1.0625 -3.21875,-1.0625 C 56.310828,39.625 52.082111,38.45711 51.625,38 49.77579,36.15079 41.385043,34.90122 38.75,36.21875 37.504314,36.84159 36.266284,37.55436 35,38.1875 c -0.49147,0.24574 -1.138365,0.4627 -1.5625,0.75 -0.77785,0.07444 -1.740411,0 -2.375,0 -0.86446,0 -2.484084,-0.351418 -3.21875,-0.71875 -0.569694,-0.284848 -1.522872,-0.08426 -1.84375,-0.125 0.238926,0.179317 0.95184,0.81967 1.6875,1.1875 1.456241,0.728121 2.624017,1.233883 4.09375,1.96875 0.812325,0.406162 2.144819,0.589884 3.65625,0.65625 -0.314689,0.127645 -0.608607,0.254212 -0.78125,0.375 0.106397,-0.1064 0.895619,-0.07277 1.0625,-0.15625 0.52575,-0.26287 1.926573,0 2.5,0 2.234266,0 5.709234,1.05299 7.15625,2.5 0.08048,0.0805 0.53125,0.01887 0.53125,0.15625 0,0.0912 -1.52135,-0.31961 -1.59375,-0.34375 -2.063584,-0.68786 -4.306293,-0.90625 -6.625,-0.90625 -0.611857,0 -1.267807,0.11828 -1.78125,0.375 -0.05045,0.0252 -0.71875,-0.0193 -0.71875,0 0,0.19682 1.11966,0.40091 1.25,0.53125 0.342459,0.34246 2.441835,2.21442 1.96875,2.6875 -0.200039,0.20004 -0.674695,-0.33094 -0.71875,-0.375 -0.911743,-0.91174 -5.345917,-2.86046 -7.125,-3.75 -3.62821,-1.8141 -7.668968,1.01465 -11.09375,2.15625 -0.658936,0.219646 -1.308184,0.998912 -1.84375,1.6875 -0.896327,0.251303 -1.804776,0.543013 -2.21875,0.75 -0.760569,0.380284 -2.53125,-0.826367 -2.53125,-0.5 0,0.198267 0.79681,0.468622 1,0.875 0.826041,1.652083 3.041633,1.53125 4.8125,1.53125 0.275257,0 0.884139,0.12043 1.125,0 0.725529,-0.362765 5.227532,-2.011234 5.9375,-1.65625 0.34283,0.171418 0.822245,0.083 1.15625,0.25 1.084412,0.542206 2.05958,1.097146 2.84375,1.78125 -0.583223,0.360133 -1.096533,0.752783 -1.46875,1.125 -0.454669,0.45467 -1.147198,0.553448 -1.75,1.15625 -0.05952,0.05952 0.05952,0.19048 0,0.25 -0.340591,0.340591 -0.955047,0.548797 -1.40625,1 -0.287581,0.287581 -1.531474,1.594198 -1.75,2.03125 -0.138281,0.27656 -0.297029,0.76578 -0.53125,1 -0.179893,0.179894 -1.375,1.294609 -1.375,1.5 0,0.053 0.527077,-0.375 1,-0.375 0.744509,0 1.323117,-0.485982 2,-0.8125 0,0.1443 0.119819,0.07148 0.25,-0.0625 -0.06502,0.01812 -0.185552,0.05356 -0.21875,0.0625 0.105482,-0.05001 0.200729,-0.117259 0.3125,-0.15625 -0.02683,0.03128 -0.06797,0.06722 -0.09375,0.09375 0.297112,-0.08279 0.921644,-0.242067 1,-0.28125 0.0083,-0.0041 0.02296,0.0041 0.03125,0 0.634405,-0.114243 1.56449,-0.606655 2.4375,-1.0625 0.571843,-0.23114 1.140762,-0.461024 1.65625,-0.71875 2.970708,-1.4854 6.156757,-2.6565 9.09375,-4.125 0.3324,-0.1662 1.682204,-1.00525 1.96875,-0.71875 0.508623,0.5087 1.522322,0.991 2.15625,1.625 0.178572,0.1785 0.696428,0.009 0.875,0.1875 1.276849,1.2769 4.107207,2.24555 6.625,1.40625 0.621381,-0.2071 5.526015,-1.56765 5.6875,-1.40625 C 56.565337,51.90915 55.188169,52.9059 55,53 53.66467,53.6677 52.367817,54.97845 50.90625,55.34375 50.176001,55.526365 49.361226,55.683557 48.6875,56 c -0.217688,0.04053 -0.439689,0.05546 -0.65625,0.09375 -1.29813,0.05252 -4.4375,-0.04465 -4.4375,0.125 0,0.143696 0.52513,0.295443 1,0.40625 -0.841479,0.09771 -1.599758,0.15625 -2.09375,0.15625 -1.175911,0 -2.462735,0.53125 -3.75,0.53125 -0.408489,0 -2.15625,0.13562 -2.15625,0.1875 0,0.05536 4.395581,1.59375 5.375,1.59375 1.602339,0 5.822434,1.307533 7.3125,0.5625 0.446303,-0.223151 1.786609,-0.605493 3.1875,-0.96875 -0.182982,0.113428 -0.360496,0.26675 -0.5,0.40625 -0.375381,0.3754 -0.975134,0.12815 -1.40625,0.34375 -0.02274,0.01127 -0.06481,0.04113 -0.09375,0.0625 0.196838,0.02944 0.457589,0.125 0.625,0.125 1.007738,0 2.248449,-0.28865 3.21875,-0.53125 3.212055,-0.803 6.663057,-2.41305 8.90625,-4.65625 0.213186,-0.2132 -0.800822,2.082 -1.40625,2.6875 -0.862737,0.8627 -1.844987,2.51625 -2.875,3.03125 -1.041099,0.5205 -2.252392,0.9544 -3.21875,1.4375 -0.670175,0.3351 -1.645136,0.3538 -2.3125,0.6875 -0.09809,0.049 -0.53125,0.4135 -0.53125,0.375 0,-0.092 5.028118,0.1875 5.34375,0.1875 2.814407,0 5.836668,0.01255 8.59375,-0.90625 0.544031,-0.1814 1.244061,-0.0084 1.78125,-0.1875 1.525033,-0.5083 5.593722,-1.84375 6.59375,-2.84375 0.595193,-0.5952 1.64427,-1.58575 2.5,-2.15625 0.852994,-0.5686 2.370842,-1.4917 2.875,-2.5 0.548589,-1.0972 1.782896,-3.37665 2.5,-4.09375 C 83.306856,49.91185 85.060744,44.02247 85,43.71875 84.890081,43.169154 84.649567,43.006875 84.40625,43 c 0.08348,-0.06191 0.14615,-0.07317 0.25,-0.15625 -0.225462,-0.34259 -0.452656,-1.57671 -1.0625,-3.40625 -0.379549,-1.13864 -2.93312,-3.07146 -3.9375,-3.40625 C 78.983595,35.80703 78.360969,34.96174 77.6875,34.625 75.961198,33.76185 74.213754,32.79438 72.5,31.9375 70.638513,31.006756 66.529737,30.592461 62.90625,30.6875 z M 50.46875,59.5 c -0.153096,-0.02289 -0.28125,-0.0052 -0.28125,0.125 0,0.107676 0.158692,-0.03451 0.28125,-0.125 z M 34.65625,42.28125 c -0.10143,0.07096 -0.1875,0.13115 -0.1875,0.1875 0,0.0842 0.127976,-0.12798 0.1875,-0.1875 z m 15.15625,-6.6875 c -0.101255,0.0087 -0.15625,0.04775 -0.15625,0.09375 0,0.02284 0.06755,-0.03862 0.15625,-0.09375 z"
       transform="translate(0,952.36218)"
       id="path3438"
       inkscape:connector-curvature="0"
       sodipodi:nodetypes="ssccssccsscssccccssssscsscsscccscscscssscsscssssssscscsssssscccccccccscccccccccscsssssccccsccccccssccccccsccssssscsccsccsc" />
    <path
       style="fill:#c8dceb;fill-opacity:1;stroke:#ffffff;stroke-width:1px;stroke-linecap:butt;stroke-linejoin:miter;stroke-opacity:0"
       d="m 65.15625,33.28125 c -3.227131,-0.05797 -7.057187,0.341094 -8.375,1 -0.100349,0.05018 -0.264418,0.124862 -0.40625,0.1875 0.505214,0.195826 1.563646,0.844322 2.375,1.25 0.587248,0.293624 0.872507,0.685007 1.25,1.0625 0.216738,0.216738 3.836407,2.090078 4.28125,2.3125 0.394234,0.197116 2.152997,1.815753 1.625,2.34375 -4.290436,4.290436 -6.353444,0.34375 -11.625,0.34375 -1.016762,0 -1.90593,-0.34375 -2.84375,-0.34375 -0.287357,0 -0.742257,0.123363 -1.0625,0.15625 0.727679,0.36226 1.619672,0.744671 2.125,1.25 0.896134,0.896134 4.65625,1.57959 4.65625,2.875 0,0.0074 -0.260498,0.0858 -0.46875,0.15625 -0.01255,0.0042 -0.01828,-0.0044 -0.03125,0 -4.436834,0.310961 -11.230667,2.656079 -13.105172,1.471288 0.455135,1.070994 0.868113,1.19642 1.667672,2.028712 0.675921,0.67592 1.635664,0.833343 2.625,1.15625 0,0.30839 0.551265,0.370734 1.125,0.375 0.327848,0.0024 0.642097,0.0056 0.875,0 0.482156,0.175951 1.69116,0.152468 3.125,0.03125 1.841829,0.01764 3.70188,0.02406 3.8125,-0.03125 0.679338,-0.339669 3.015889,-0.71875 3.75,-0.71875 0.536974,0 1.891594,-0.266594 2.15625,-0.53125 0.107837,-0.107838 0.893157,0 1.0625,0 0.238095,0 0.71875,-0.238095 0.71875,0 0,0.371586 -0.26828,0.04953 -0.375,0.15625 -0.547814,0.547814 -1.107138,1.459819 -2.125,1.96875 -0.937593,0.468796 -4.934533,3.284217 -4.65625,3.5625 0.167611,0.167611 0.443949,-0.112599 0.53125,-0.15625 0.741952,-0.370976 8.071171,-2.303828 8.75,-1.625 1.499875,1.499876 0.389666,4.924858 -1.375,6.15625 1.097239,-0.204339 2.634884,-0.426817 3.71875,-0.96875 3.938914,-1.969457 8.130461,-4.380461 11.0625,-7.3125 0.910024,-0.910024 1.337661,-3.019072 1.96875,-4.28125 0.300986,-0.601972 -0.127645,-2.38029 -0.375,-2.875 -0.07434,-0.148676 0.11327,-0.60548 0,-0.71875 -0.582218,-0.582218 -0.821727,-1.643453 -1.25,-2.5 -0.39088,-0.781759 -0.918592,-1.106092 -1.40625,-1.59375 -1.012072,-1.012072 -2.008864,-2.196364 -2.6875,-2.875 -0.404054,-0.404054 -4.08536,-2.04268 -5,-2.5 -0.445202,-0.222601 -1.154834,0.06321 -1.59375,-0.15625 -0.82332,-0.41166 -2.563722,-0.621468 -4.5,-0.65625 z m -9,1.125 c -0.04541,-0.0026 -0.09375,0.03011 -0.09375,0.0625 0,0.127971 0.121372,0.06803 0.28125,0 -0.08275,-0.03111 -0.142086,-0.05995 -0.1875,-0.0625 z m -6.125,7 C 50.007068,41.400398 50,41.404225 50,41.4375 c 0,0.178982 0.150515,0.170503 0.34375,0.15625 -0.08929,-0.04464 -0.239955,-0.169945 -0.3125,-0.1875 z m 15.15625,18.3125 c -0.711774,0.133377 -1.268596,0.282142 -1.25,0.46875 0.444266,0 0.849082,-0.194148 1.25,-0.46875 z"
       transform="translate(0,952.36218)"
       id="path3580"
       inkscape:connector-curvature="0"
       sodipodi:nodetypes="sscsssssscsscccccscccssssssssscssssssssssssscssscsccc" />
  </g>
</svg>
