<?xml version="1.0" encoding="UTF-8" standalone="no"?>
<!-- Created with Inkscape (http://www.inkscape.org/) -->

<svg
   xmlns:dc="http://purl.org/dc/elements/1.1/"
   xmlns:cc="http://creativecommons.org/ns#"
   xmlns:rdf="http://www.w3.org/1999/02/22-rdf-syntax-ns#"
   xmlns:svg="http://www.w3.org/2000/svg"
   xmlns="http://www.w3.org/2000/svg"
   xmlns:sodipodi="http://sodipodi.sourceforge.net/DTD/sodipodi-0.dtd"
   xmlns:inkscape="http://www.inkscape.org/namespaces/inkscape"
   width="354.33069"
   height="177.16534"
   id="svg2"
   version="1.1"
   inkscape:version="0.48.3.1 r9886"
   sodipodi:docname="icons.svg">
  <defs
     id="defs4">
    <inkscape:perspective
       sodipodi:type="inkscape:persp3d"
       inkscape:vp_x="0 : 88.582672 : 1"
       inkscape:vp_y="0 : 1000 : 0"
       inkscape:vp_z="354.33069 : 88.582672 : 1"
       inkscape:persp3d-origin="177.16534 : 59.055115 : 1"
       id="perspective2987" />
  </defs>
  <sodipodi:namedview
     id="base"
     pagecolor="#ffffff"
     bordercolor="#666666"
     borderopacity="1.0"
     inkscape:pageopacity="0.0"
     inkscape:pageshadow="2"
     inkscape:zoom="0.98994949"
     inkscape:cx="149.71181"
     inkscape:cy="48.205977"
     inkscape:document-units="px"
     inkscape:current-layer="layer1"
     showgrid="false"
     units="cm"
     inkscape:window-width="1364"
     inkscape:window-height="766"
     inkscape:window-x="0"
     inkscape:window-y="0"
     inkscape:window-maximized="0" />
  <metadata
     id="metadata7">
    <rdf:RDF>
      <cc:Work
         rdf:about="">
        <dc:format>image/svg+xml</dc:format>
        <dc:type
           rdf:resource="http://purl.org/dc/dcmitype/StillImage" />
        <dc:title></dc:title>
      </cc:Work>
    </rdf:RDF>
  </metadata>
  <g
     inkscape:label="Layer 1"
     inkscape:groupmode="layer"
     id="layer1"
     transform="translate(0,-875.19748)">
    <path
       style="fill:#cb3837;fill-opacity:1;stroke:#ffffff;stroke-width:1px;stroke-linecap:butt;stroke-linejoin:miter;stroke-opacity:0"
       d="m 178.58899,938.97429 c -1.52409,-0.0478 -9.28029,0.3614 -10.53125,0.375 -2.20186,0.0239 -7.04629,0.20892 -10.375,0 -1.71282,-0.10748 -5.70449,-0.008 -6.78125,-0.1875 -2.62906,-0.43817 -6.20685,0.7759 -8.90625,0.1875 -0.56721,0.70901 -0.88724,1.07474 -1.25,1.4375 -0.75665,0.75665 0.31345,4.70792 0,7.65625 -0.0422,0.39706 0.24127,2.05016 0.21875,2.84375 0.0223,0.0298 0.037,0.0683 0.0625,0.0937 l 0.5625,0.53125 c -0.26017,-0.0135 -0.53175,-0.0308 -0.5625,0 -0.0402,0.0402 -0.17366,0.27365 -0.34375,0.53125 -0.16272,1.0113 0.26728,1.94619 0.375,2.96875 0.37171,0.19874 0.72561,0.45132 1.03125,0.75 0.0105,0.0103 0.0209,0.0209 0.0312,0.0312 0.29762,0.29762 1.10863,0.0774 1.40625,0.375 0.12215,0.12214 2.5,0.33029 2.5,0.34375 0,0.43886 -3.40883,-0.0299 -4.96875,-0.0625 -0.0601,0.038 -0.14173,0.0932 -0.1875,0.125 -0.31009,1.22791 0.29899,4.42749 0.21875,5.59375 -0.17032,2.4752 -0.0438,6.81062 0,8.90625 0.0236,1.12949 -0.0873,7.30689 0.1875,8.40625 0.15644,0.62575 0.23448,1.22919 0.28125,1.8125 0.36022,0.11055 0.86486,0.21875 0.90625,0.21875 0.3015,0 1.25,-0.0572 1.25,0.1875 0,0.19594 -1.19428,0.46661 -2.09375,0.71875 -0.019,2.14755 -0.53125,4.1752 -0.53125,6.71875 0,2.29198 -0.69461,5.1804 0.90625,6.78125 0.17842,0.17842 3.06199,0.15625 3.90625,0.15625 1.26163,0 2.99392,0.18547 4.125,0.5625 2.08929,0.69643 4.87946,-0.69643 6.96875,0 1.65534,0.55178 4.32516,-0.43434 6.0625,0 1.2448,0.3112 4.4749,-0.87346 5.71875,-0.5625 2.85353,0.71338 5.93317,0.0654 8.5625,-0.15625 0.67589,-0.057 4.15232,0.88379 4.8125,0.71875 2.90944,-0.72736 4.99068,0.0425 6.625,-0.1875 0.97886,-0.13776 2.15721,0.062 3.03125,-0.375 0.88726,-0.44363 4.34689,0.30936 4.8125,-0.15625 0.45859,-0.45859 1.59297,-0.68592 1.96875,-1.4375 0.0919,-0.18376 -0.27695,-1.71445 -0.34375,-1.78125 -0.78341,-0.78342 0.47843,-6.54314 -0.1875,-7.875 0.16507,-1.63409 -0.0519,-5.95678 0,-6.78125 0.16638,-2.64198 0.7377,-9.2992 0.34375,-10.875 -0.15937,-0.63759 0.0394,-7.15227 0,-7.875 -0.1331,-2.43988 -0.0729,-7.42705 -0.53125,-10.34375 -0.0119,-1.63096 0.2441,-3.31894 0.1875,-4.8125 -0.0653,-1.72259 0.56518,-4.27857 -1.25,-4.84375 -0.75596,-0.23538 -8.9024,-0.34375 -10.1875,-0.34375 -1.68193,0 -6.81535,-0.3369 -8.03125,-0.375 z"
       id="path4251"
       inkscape:connector-curvature="0"
       inkscape:export-filename="/home/substack/projects/browserify-website/static/images/npm.png"
       inkscape:export-xdpi="30"
       inkscape:export-ydpi="30" />
    <path
       style="fill:#ffffff;fill-opacity:1;stroke:#ffffff;stroke-width:1px;stroke-linecap:butt;stroke-linejoin:miter;stroke-opacity:0"
       d="m 180.58899,948.75554 c -0.29933,-0.003 -0.62042,0.0187 -0.9375,0.0312 -1.26832,0.0503 -2.6002,0.1875 -3.21875,0.1875 l -23.03125,0 c -0.4353,0 -1.91189,0.16189 -2.125,0.375 -0.48056,0.48056 -0.61993,3.07264 -0.1875,3.9375 0.51685,1.03369 0.10519,7.58234 -0.34375,8.03125 -0.27591,0.27591 0.34375,3.37601 0.34375,4.09375 0,0.60352 -0.22058,2.72058 -0.53125,3.03125 -0.23149,0.23149 0.1875,4.92545 0.1875,5.53125 0,0.9797 0.40678,3.87447 0.15625,4.125 -0.40888,0.40888 -0.15625,2.09068 -0.15625,2.84375 0,2.99016 -1.50423,4.95541 2.3125,5.71875 0.1572,-0.49273 1.08001,0.3575 1.78125,-0.34375 0.15436,-0.15435 0.49576,0.15625 0.71875,0.15625 0.16934,0 0.95466,-0.10783 1.0625,0 0.31531,0.31532 8.92132,-0.15625 10,-0.15625 0.25817,0 2.45945,0.5718 2.875,0.15625 0.73339,-0.73339 0.49782,-4.1606 0,-5.15625 -0.0235,-0.0469 -0.0468,-0.12045 -0.0625,-0.1875 -0.11558,0.01 -0.2904,0.0312 -0.34375,0.0312 l -2.53125,0 c -0.0828,0 -1.05745,-0.005 -0.90625,-0.15625 0.33603,-0.33602 2.33986,-0.1811 3.71875,-0.75 0.0525,-2.03891 0.85645,-6.0498 0.28125,-6.625 -0.13653,-0.13653 -0.53125,-9.45636 -0.53125,-9.8125 0,-0.35816 -0.25044,-2.62456 -0.1875,-2.6875 0.22717,-0.22718 0.23256,-0.96512 0.375,-1.25 0.41115,-0.8223 1.64308,-0.76808 2.125,-1.25 0.45321,-0.45321 3.59757,0 4.3125,0 0.52138,0 2.87777,-0.61946 3.1875,0 0.2527,0.50541 -0.0584,1.28953 0.1875,1.78125 1.18404,2.36809 0,6.45375 0,9.125 0,1.35232 1.31679,8.61642 0.71875,9.8125 -0.78364,1.56729 -1.01105,6.30145 0,7.3125 0.61526,0.61526 6.14717,-0.1875 7.3125,-0.1875 2.4947,0 0.66084,-6.38784 0.46875,-9.5 -0.37657,-0.30131 -0.80429,-0.58964 -1.375,-0.875 -0.27274,-0.13637 -2.03125,0.13904 -2.03125,-0.125 0,-0.11664 1.30416,-0.375 1.53125,-0.375 0.60016,0 1.4322,-0.0659 2.1875,-0.25 0.55585,-0.66166 0.22466,-2.02927 0.28125,-3.125 -1.30388,-0.40562 -3.09375,-0.47918 -3.09375,-0.6875 0,-0.0236 1.00845,0.125 1.125,0.125 0.47675,0 1.50656,-0.0637 2.125,-0.28125 0.009,-0.02 0.0216,-0.0431 0.0312,-0.0625 0.63318,-1.26635 0.46214,-6.98197 -0.15625,-8.21875 -0.0416,-0.0833 -0.0682,-0.27966 -0.0937,-0.5 -0.29983,-0.15936 -0.59812,-0.34812 -0.65625,-0.40625 -0.45049,-0.45049 -1.85416,0.27084 -2.25,-0.125 -0.26566,-0.26565 1.17066,-0.5 1.375,-0.5 0.30853,0 1.33689,-0.0842 1.46875,-0.125 -0.0588,-2.57078 0.15625,-7.23113 0.15625,-8.34375 0,-0.86081 0.6676,-3.0824 0,-3.75 -0.50689,-0.5069 -5.12864,0.40261 -5.71875,-0.1875 -0.28469,-0.28469 -1.03952,-0.39681 -1.9375,-0.40625 z"
       id="path4253"
       inkscape:connector-curvature="0"
       inkscape:export-filename="/home/substack/projects/browserify-website/static/images/npm.png"
       inkscape:export-xdpi="30"
       inkscape:export-ydpi="30" />
    <path
       style="fill:#e6b35a;fill-opacity:1;stroke:#ffffff;stroke-width:0.67057407;stroke-linecap:butt;stroke-linejoin:miter;stroke-miterlimit:4;stroke-opacity:0;stroke-dasharray:none"
       d="m 76.60886,939.19812 c -0.716629,0.1264 -1.844078,2.38497 -1.844078,2.74516 0,0.7311 -1.264261,3.13622 -1.718346,4.0444 -0.361091,0.72215 -0.183751,1.41528 -0.544842,2.13746 -1.467276,2.93458 -2.283519,7.6242 -3.58338,8.29835 -0.49086,0.29451 -0.990834,0.53795 -1.508792,0.69153 0.0021,0.0348 -0.0021,0.07 0,0.10478 -0.08705,0.0508 -0.17262,0.11473 -0.209555,0.1886 -0.340323,0.68064 -0.104777,2.10802 -0.104777,2.99662 0,0.68935 -0.01534,1.34249 0,1.96982 -0.147888,-0.41722 -0.280971,-0.83053 -0.377198,-1.21542 -0.300806,-1.20321 -0.611027,-2.4626 -1.026816,-3.70911 -1.385152,0.20681 -2.794383,0.33893 -4.0444,0.96395 -0.06558,0.0328 -0.137823,0.0628 -0.209555,0.0838 -0.01911,0.84277 -0.04577,1.65367 -0.209554,2.47274 -0.164103,0.82059 -0.419109,1.9131 -0.419109,2.74516 0,0.17634 -0.126074,0.43409 -0.188599,0.60771 0.0291,0.0778 0.07827,0.20956 0.06287,0.20956 -0.09336,0 -0.09597,-0.11764 -0.06287,-0.20956 -0.05814,-0.15562 -0.146688,-0.34177 -0.146688,-0.39815 0,-0.99329 -0.209554,-1.92415 -0.209554,-2.95472 0,-0.75836 -0.09473,-1.56475 -0.209555,-2.34701 -0.181578,0.0243 -0.38841,0.0685 -0.544841,0.14669 -0.520024,0.26004 -1.407877,-0.26001 -1.927901,0 -1.21622,0.60811 -2.825068,0.27046 -4.044399,0.88013 -1.180922,0.59046 -3.439147,-0.33035 -4.128222,1.04777 -0.677729,1.35551 1.769665,2.29353 2.137455,2.66134 1.065321,1.0653 5.996776,4.55956 7.481092,5.30173 0.478749,0.23937 3.274306,3.19046 3.855801,3.77198 0.167556,0.16759 0.249802,0.66891 0.398153,0.81726 0.382314,0.38231 -0.197283,3.39139 -0.398153,3.79293 -0.141753,0.28366 0.141752,0.74316 0,1.02682 -0.626236,1.2525 -0.394854,2.92385 -0.838218,4.25395 -0.21274,0.63822 0.21274,1.47827 0,2.1165 -0.263817,0.79159 -0.142269,1.70507 -0.398153,2.47275 -0.429563,1.28871 -1.236371,2.85423 -1.236371,4.27491 0,0.76599 -0.790245,2.16441 -0.146688,2.80802 0.65556,0.65556 2.13205,-0.46883 2.828984,-0.81726 0.928383,-0.46417 1.848337,-1.37471 2.661341,-1.78121 1.680854,-0.84043 3.49225,-1.96602 5.155039,-3.03854 1.907615,-1.2303 3.708717,-2.65956 4.945483,-3.01758 0.896796,-0.58002 2.131726,-1.29595 3.373826,-0.33529 0.71432,0.35715 1.77967,0.669 2.47274,1.3621 0.61468,0.61465 4.420532,1.47349 5.343642,1.78122 0.84987,0.28325 3.3887,2.49064 4.19109,2.89185 0.54165,0.27084 3.91866,1.62091 3.91866,1.38306 0,-0.22089 0.55067,-0.95235 0.33529,-1.38306 -0.43651,-0.87302 -0.39377,-5.12529 -1.02682,-6.39141 -0.3237,-0.64733 -0.66318,-2.44085 -0.9849,-4.08631 -0.89102,0.30762 -1.78409,0.63401 -2.45179,0.90108 -0.58145,0.23258 -1.10027,0.54139 -1.67643,0.73344 -0.15367,0.0512 -0.48076,0.13491 -0.64962,0.1886 -0.0107,0.007 -0.0599,0.0419 -0.0628,0.0419 -0.0905,0 -0.0314,-0.0119 0.0628,-0.0419 0.11699,-0.0778 0.60417,-0.52034 0.64962,-0.5658 0.13554,-0.13553 0.55512,-0.14135 0.73344,-0.23051 1.10929,-0.55464 2.15483,-1.13579 3.26905,-1.61356 -0.1675,-0.83811 -0.31415,-1.61304 -0.46102,-2.05364 -0.25927,-0.77779 -0.61177,-1.89987 -0.7544,-3.35287 -0.13423,-1.36825 1.66553,-2.56661 2.6823,-3.58338 0.69942,-0.69945 2.48776,-2.46176 3.35287,-3.35287 1.06746,-1.09952 2.313468,-1.41729 3.206178,-2.95472 -0.15846,-0.98049 -0.70513,-2.42347 -1.02682,-2.74516 -0.31175,-0.31175 -1.279088,-1.00586 -0.838208,-1.00586 0.044,0 1.482658,1.57758 2.808018,2.74516 0.27324,-0.19236 0.53698,-0.38242 0.67058,-0.64962 0.11716,-0.23433 0.28383,-0.50736 0.46102,-0.77535 -0.53509,-0.65888 -1.06873,-1.27358 -1.06873,-1.65548 0,-0.0226 1.43897,0.47267 1.52975,0.50293 0.10043,0.0335 0.2144,0.0818 0.31432,0.14669 0.20963,-0.20964 2.44116,-1.58391 1.90694,-2.47274 -0.70885,-1.17927 -7.344558,-0.63595 -8.843178,-0.90108 -2.27704,-0.40284 -8.77694,-0.1077 -10.79205,-1.23637 -1.16411,-0.65204 -1.30804,-1.50546 -1.990772,-2.8709 -0.24658,-0.49317 -0.67173,-0.81842 -0.90108,-1.04777 -0.037,-0.037 -0.74046,-1.50901 -1.34115,-2.76612 -0.82212,-0.0433 -1.60583,0.007 -2.22128,0.31433 -0.1064,0.0532 -0.51615,0.34302 -0.69153,0.16765 -0.0421,-0.0421 1.13072,-1.34081 2.1165,-2.17937 -0.29427,-0.82181 -0.73444,-3.08145 -1.00586,-3.35287 -1.41713,-1.41713 -2.18924,-4.2429 -3.58338,-5.63701 -0.0808,-0.0808 -0.17005,-0.0809 -0.27242,-0.0628 z"
       id="path4097"
       inkscape:connector-curvature="0"
       inkscape:export-filename="/home/substack/projects/browserify-website/static/images/star.png"
       inkscape:export-xdpi="30"
       inkscape:export-ydpi="30" />
    <path
       style="fill:#91643c;fill-opacity:1;stroke:#ffffff;stroke-width:1.39068878000000007px;stroke-linecap:butt;stroke-linejoin:miter;stroke-opacity:0"
       d="m 286.18815,928.5076 c -1.68304,-0.0247 -3.54601,1.00839 -5.40625,1.71875 -1.51717,0.22489 -3.11664,1.40569 -5.09375,2.25 -0.12108,0.0517 -0.21958,0.10741 -0.34375,0.15625 -1.81532,-0.39491 -4.64018,-0.60225 -7.3125,-0.78125 -0.10627,0.97237 -0.24252,2.8125 -0.46875,2.8125 -0.26063,0 -0.14892,-1.73237 -0.125,-2.84375 -1.16654,-0.0775 -2.47086,-0.173 -3.3125,-0.25 -0.89563,-0.0452 -1.92027,0.0285 -2.96875,0.15625 -0.26166,2.3991 1.12971,5.90154 0.875,6.15625 -0.24113,0.24112 -0.85685,-2.26307 -0.90625,-2.3125 -0.45512,-0.45513 -0.612,-1.19277 -0.90625,-1.78125 -0.26828,-0.53657 -0.55054,-1.1791 -0.8125,-1.8125 -0.77548,0.14197 -1.54189,0.31554 -2.28125,0.5 0.1242,0.21284 0.27355,0.42979 0.4375,0.59375 0.10263,0.10262 1.44417,1.58708 1.25,1.78125 -0.0861,0.0861 -1.2117,-1.3992 -1.4375,-1.625 -0.21333,-0.21333 -0.55272,-0.3766 -0.90625,-0.5625 -0.57551,0.15493 -1.15116,0.3059 -1.65625,0.46875 -0.15009,-0.12266 -0.64632,-0.35257 -0.90625,-0.53125 -1.03972,-0.71472 -2.50382,-1.68807 -3.625,-2.125 -1.0878,-0.60567 -3.59739,-1.43655 -5.75,-1.625 -2.90944,-1.47301 -2.9768,2.78222 -3,4.96875 0.0199,1.24027 -0.23701,3.23567 0.3125,5.03125 0.20417,0.66713 0.5086,1.30755 1,1.875 -1.03058,1.11965 -1.96166,1.58125 -3.125,4.53125 -0.36051,1.13038 -0.83033,2.25686 -1.25,3.375 1.13023,0.0576 2.41633,0.0726 2.65625,0.3125 0.0938,0.0938 -1.77552,0.53125 -2.15625,0.53125 -0.20798,0 -0.50286,0.041 -0.8125,0.0625 -0.25008,0.75588 -0.47281,1.50757 -0.5625,2.28125 -0.67998,2.0117 -0.43436,3.77448 -0.0937,5.71875 0.9185,-0.0221 2.1875,-0.0752 2.1875,0.15625 0,0.026 -1.01854,0.4501 -2,0.875 0.041,0.24238 0.0875,0.46778 0.125,0.71875 1.05309,2.40736 1.73789,5.31883 3.1875,7.5625 1.76391,2.05359 5.35879,4.64551 7.3125,5.65625 2.59351,1.00356 4.63058,1.6828 7.28125,1.75 2.8958,0.30726 5.84563,0.5872 8.78125,0.625 2.9013,-0.0537 5.77173,-0.41612 8.6875,-0.125 2.55953,-0.26288 6.4508,-1.4519 7.96875,-1.5 2.12535,-1.31031 4.76304,-1.63353 6.46875,-3.5625 1.59404,-1.15592 3.1504,-2.97819 4.09375,-4.75 -0.76331,-0.36148 -1.9375,-0.67917 -1.9375,-1.21875 0,-0.005 1.01791,0.375 2.03125,0.375 0.12419,0 0.23125,-0.0224 0.34375,-0.0312 0.34596,-0.69038 0.61325,-1.44576 0.84375,-2.21875 -0.17972,-0.004 -0.52774,-0.0197 -0.5625,-0.0312 -0.4038,-0.1346 -0.87044,-0.0602 -1.25,-0.25 -0.10181,-0.0509 -0.26902,-0.24747 -0.34375,-0.28125 0.0844,-0.0422 0.65073,-0.34375 1.34375,-0.34375 0.50248,0 0.81969,-0.0339 1.09375,-0.0625 0.41438,-1.71501 0.60761,-3.43329 0.6875,-4.75 0.0329,-0.96973 0.20881,-2.35411 0.28125,-3.78125 -0.57949,-0.10945 -1.15325,-0.23287 -1.4375,-0.375 -0.42543,-0.21271 -0.99252,-0.125 -1.5,-0.125 -0.0563,0 -0.375,-0.2551 -0.375,-0.25 0,0.0117 0.50162,-0.25 1,-0.25 0.36266,0 1.97029,0.21613 2.34375,0.0312 0.006,-0.4753 -0.0273,-0.95606 -0.0625,-1.40625 l 0,-0.0312 -2.40625,-1.75 c 0.66669,-0.22223 1.30082,-0.36269 1.96875,-0.4375 -0.50253,-2.30562 -2.16917,-4.0006 -3.5625,-6.15625 -0.68327,-0.4925 -0.96436,-0.97197 -1.09375,-1.4375 -1.23374,0.0679 -3,0.13968 -3,-0.1875 0,-0.45071 2.03296,-0.5 2.40625,-0.5 0.12327,0 0.31475,-0.0389 0.5,-0.0937 0.07,-1.08408 0.80428,-2.12653 0.65625,-3.1875 0.23843,-2.82496 -0.70947,-4.66899 -1.75,-7.25 -0.50991,-0.28998 -1.06399,-0.42925 -1.625,-0.4375 z"
       id="path4440"
       inkscape:connector-curvature="0"
       inkscape:export-filename="/home/substack/projects/browserify-website/static/images/octocat.png"
       inkscape:export-xdpi="30"
       inkscape:export-ydpi="30" />
    <path
       style="fill:#91643c;fill-opacity:1;stroke:#ffffff;stroke-width:1.39068878px;stroke-linecap:butt;stroke-linejoin:miter;stroke-opacity:0"
       d="m 260.68815,972.7576 c -1.23291,0.0223 -2.41632,0.32878 -2.21875,0.90625 l -1.40625,2.53125 c -2.2617,2.26171 -2.28125,5.37268 -2.28125,9.46875 0,0.41983 -0.26716,2.38908 0,2.65625 0.14381,0.14381 0.18281,1.53236 0.15625,2.78125 0.24784,0.0231 0.49729,0.0312 0.75,0.0312 0.43445,0 1.37727,0.15398 1.28125,0.25 -0.28825,0.28826 -1.20172,0.26137 -1.65625,0.375 -0.13567,0.0339 -0.27061,0.0844 -0.40625,0.125 -0.0288,0.6195 -0.0733,1.10458 -0.125,1.15625 -0.54178,0.54178 -0.38216,2.00717 -1.03125,2.65625 -1.10202,1.10202 -3.41342,1.33657 -1.59375,3.15625 0.19583,0.19582 1.6298,0 1.9375,0 0.96496,0 1.83063,-0.45564 2.4375,-1.0625 0.38685,-0.38685 1.09354,-0.21853 1.40625,-0.53125 1.28296,-1.28296 1.78125,-3.57616 1.78125,-5.96875 0,-1.31684 -0.58998,-8.91001 -0.1875,-9.3125 0.37753,-0.37753 0.23266,-1.10765 0.6875,-1.5625 0.56565,-0.56565 1.37806,-1.19056 1.9375,-1.75 0.2644,-0.26441 0.30444,-1.14014 0.53125,-1.59375 0.25219,-0.50441 0.1875,-1.33152 0.1875,-1.9375 0,-0.74869 0.066,-1.58669 -0.1875,-2.09375 -0.49995,-0.18948 -1.26025,-0.2946 -2,-0.28125 z"
       id="path4324"
       inkscape:connector-curvature="0"
       inkscape:export-filename="/home/substack/projects/browserify-website/static/images/octocat.png"
       inkscape:export-xdpi="30"
       inkscape:export-ydpi="30" />
    <path
       style="fill:#91643c;fill-opacity:1;stroke:#ffffff;stroke-width:1.39068878px;stroke-linecap:butt;stroke-linejoin:miter;stroke-opacity:0"
       d="m 263.50065,972.97635 c -0.39739,0.0654 -1.00948,1.36868 -0.90625,1.4375 0.006,-0.008 0.0272,-0.0264 0.0312,-0.0312 10e-4,-2.3e-4 0.0294,6e-4 0.0312,0 0.0837,-0.0278 0.58584,-0.41956 1.15625,-0.65625 -0.0223,-0.56412 -0.14892,-0.77692 -0.3125,-0.75 z m 0.3125,0.75 c 0.002,0.0588 0,0.089 0,0.15625 l -1.15625,0.5 c -0.0129,0.0538 -0.085,0.26386 -0.40625,0.90625 -1.53926,3.07852 -1.3125,8.7835 -1.3125,12.65625 0,0.55329 0.24207,1.79711 0,2.28125 -0.31929,0.63858 -0.15883,4.22134 -0.34375,4.40625 -0.20231,0.20231 -0.53125,2.1045 -0.53125,2.46875 0,1.20773 -2.27607,2.72134 -0.71875,3.50005 1.37116,0.6856 3.60455,-1.32335 4.21875,-1.93755 0.36605,-0.36606 0.91732,-1.22981 1.25,-1.5625 0.27367,-0.27367 0.65088,-3.64605 0.78125,-4.90625 -0.30798,0.0315 -0.63581,0.0625 -0.9375,0.0625 l -1.25,0 c -0.14583,0.0886 -0.25,0.14739 -0.25,0 0,-0.0842 0.16582,0 0.25,0 0.22665,-0.13765 0.54511,-0.39755 0.75,-0.5 0.34428,-0.17214 1.04341,-0.205 1.53125,-0.34375 3.9e-4,-0.006 1.6e-4,-0.12467 0,-0.125 -0.47422,-0.94846 -0.47422,-4.30155 0,-5.25 0.13663,-0.27326 0.0682,-0.6556 0,-1.03125 -0.53756,-0.19124 -1.23659,-0.3125 -1.65625,-0.3125 -0.2624,0 -1.28125,-0.21324 -1.28125,-0.40625 0,-0.36326 1.6761,-0.28226 2.84375,-0.15625 0.0121,-0.0818 0.0586,-0.14851 0.0937,-0.21875 0.39551,-0.79103 0.58755,-6.44371 0,-7.03125 -0.43822,-0.43822 -0.36107,-2.73607 -0.8125,-3.1875 -0.22667,-0.22668 -0.65171,-0.13921 -1.0625,0.0312 z"
       id="path4326"
       inkscape:connector-curvature="0"
       inkscape:export-filename="/home/substack/projects/browserify-website/static/images/octocat.png"
       inkscape:export-xdpi="30"
       inkscape:export-ydpi="30" />
    <path
       style="fill:#91643c;fill-opacity:1;stroke:#ffffff;stroke-width:1.39068878px;stroke-linecap:butt;stroke-linejoin:miter;stroke-opacity:0"
       d="m 266.5944,972.60135 c -0.0204,0.0115 -0.0312,0.0475 -0.0312,0.0937 -1.71796,0.3198 -0.78073,1.37398 -1.75,3.3125 -0.64054,1.28109 1.15951,2.88153 1.5625,3.6875 0.21711,0.43425 0.40131,0.74505 0.71875,1.0625 0.43899,0.439 -0.439,2.186 0,2.625 0.49116,0.49116 0.15625,2.80697 0.15625,3.6875 0,2.9506 -0.84615,7.71516 0.875,9.8125 0.39283,-0.0971 1.33296,-0.37657 1.9375,-0.46875 -0.46439,0.4587 -1.02966,0.83283 -1.53125,1.1875 0.0686,0.26464 0.1459,0.55216 0.3125,0.71875 0.4434,0.4434 2.74841,3.11025 4.03125,2.46875 0.37842,-0.1892 1.33061,-0.7137 1.0625,-1.25 -0.20447,-0.40893 -0.57841,-0.39091 -0.875,-0.6875 -1.41654,-1.41654 -1.78125,-3.78826 -1.78125,-6.15625 0,-0.77881 0.057,-1.30147 0.375,-1.9375 0.31275,-0.62552 -0.59963,-12.07425 -0.875,-12.625 -0.2859,-0.57181 0.0995,-1.55096 -0.1875,-2.125 -0.26348,-0.52696 -0.40921,-1.13022 -0.5625,-1.6875 l -2.625,-1.21875 c 0.60388,-0.0292 1.4005,-0.1929 2.0625,-0.0625 -0.3468,-0.39799 -0.89251,-0.49124 -1.875,0 -0.28973,0.14486 -0.85718,-0.518 -1,-0.4375 z m 2.875,0.4375 c 0.25946,0.29775 0.42001,0.76321 0.5625,1.28125 l 0.5625,0.28125 c 0,-1.05084 -0.49122,-1.43766 -1.125,-1.5625 z m 0.90625,23.34375 c 0.0687,3.5e-4 0.0937,0.007 0.0937,0.0312 0,0.0149 -0.35643,-0.0186 -0.375,0 0.10309,-0.0149 0.21932,-0.0316 0.28125,-0.0312 z"
       id="path4328"
       inkscape:connector-curvature="0"
       inkscape:export-filename="/home/substack/projects/browserify-website/static/images/octocat.png"
       inkscape:export-xdpi="30"
       inkscape:export-ydpi="30" />
    <path
       style="fill:#91643c;fill-opacity:1;stroke:#ffffff;stroke-width:1.39068878px;stroke-linecap:butt;stroke-linejoin:miter;stroke-opacity:0"
       d="m 271.9069,970.8826 c -0.12384,0.007 -0.18279,0.31227 -0.21875,0.625 0.21785,-0.20469 0.67527,-0.23098 0.3125,-0.59375 -0.0327,-0.0327 -0.0662,-0.0328 -0.0937,-0.0312 z m -0.21875,0.625 c -0.10252,0.0963 -0.14903,0.23319 -0.0312,0.46875 0,-0.11553 0.0113,-0.29539 0.0312,-0.46875 z m -0.0312,0.46875 c -0.1756,0.0439 -0.47409,0.24725 -0.625,0.25 0.17724,-0.14212 0.395,-0.25 0.625,-0.25 z m 0,0 c 0.24134,0 -0.77735,-0.0466 -0.71875,0.1875 0.007,0.0293 0.014,0.0498 0.0312,0.0625 -1.34314,1.16396 -1.14427,6.01197 -0.375,6.78125 1.15657,1.15656 2.625,2.15453 2.625,4.21875 0,3.77827 -1.35201,10.89799 1.25,13.5 0.38071,0.3807 4.61904,2.75596 5.09375,2.28125 0.10973,-0.10971 1.24836,-1.34538 0.6875,-1.90625 -1.06083,-1.06084 -2.0444,-2.23189 -3.15625,-3.34375 -0.08,-0.08 -0.13532,-0.20403 -0.15625,-0.34375 -0.30086,0.06 -0.58543,0.12084 -0.78125,0.21875 -0.35351,0.17676 -1.03125,-0.36118 -1.03125,-0.25 0,0.0723 0.43775,-0.4532 0.53125,-0.5 0.28759,-0.14377 0.69856,0.0257 1,-0.125 0.11252,-0.0563 0.22453,-0.0823 0.34375,-0.125 0.073,-0.33324 0.17175,-0.65591 0.25,-0.8125 0.23413,-0.46827 -0.23414,-1.28173 0,-1.75 1.14036,-2.28073 0.2781,-8.60007 -0.6875,-10.53125 -0.009,-0.0189 -0.0239,-0.0415 -0.0312,-0.0625 -1.14856,0.20044 -2.22774,0.45976 -2.53125,0.15625 -0.50784,-0.50785 2.14599,-1.20157 2.53125,-1.34375 -0.002,-0.21182 -0.0485,-0.42348 -0.15625,-0.53125 -0.19184,-0.19184 -0.5,-1.1329 -0.5,-1.5625 0,-1.14182 -1.90787,-3.12662 -2.8125,-4.03125 -0.24754,-0.24755 -1.25253,0.11995 -1.40625,-0.1875 z"
       id="path4330"
       inkscape:connector-curvature="0"
       inkscape:export-filename="/home/substack/projects/browserify-website/static/images/octocat.png"
       inkscape:export-xdpi="30"
       inkscape:export-ydpi="30" />
    <path
       style="fill:#91643c;fill-opacity:1;stroke:#ffffff;stroke-width:1.39068878px;stroke-linecap:butt;stroke-linejoin:miter;stroke-opacity:0"
       d="m 237.62565,971.8201 c -0.64346,0.0173 -1.24207,0.49206 -1.625,0.875 -0.54361,0.5436 2.09083,2.43457 2.625,2.96875 1.47833,1.47832 2.37315,3.40439 3.875,4.90625 0.39356,0.39356 0.24262,1.30512 0.53125,1.59375 0.5412,0.5412 0.9734,1.50464 1.40625,1.9375 0.48465,0.48465 2.42084,0.8271 2.8125,1.21875 0.61601,0.61602 3.05456,-0.28919 3.6875,0.34375 0.42459,0.4246 3.18253,0.0131 3.78125,0.3125 2.99508,-0.88685 4.14973,-7.43587 -1.15625,-5.5625 l -0.875,0 c -0.10097,-0.10096 -0.92203,-0.20048 -1.875,-0.28125 -0.18428,0.51061 -0.32284,1.05193 -0.5625,1.53125 -0.0497,0.0993 0.11073,0.5 -0.125,0.5 -0.0593,0 -0.2912,-0.86373 -0.375,-1.03125 -0.1485,-0.29701 -0.14752,-0.69258 -0.25,-1 -0.0135,-0.0407 -0.0159,-0.0846 -0.0312,-0.125 -1.37986,-0.1343 -2.74106,-0.30357 -3.09375,-0.65625 -0.43415,-0.43415 -1.03693,-0.84943 -1.40625,-1.21875 -0.20163,-0.20161 -0.21233,-0.73718 -0.375,-1.0625 -0.66632,-1.33264 -1.45728,-2.8948 -2.4375,-3.875 -0.53495,-0.53496 -2.00965,-0.81733 -2.8125,-1.21875 -0.28096,-0.14048 -0.78152,0.14048 -1.0625,0 -0.21526,-0.10764 -0.44176,-0.16203 -0.65625,-0.15625 z"
       id="path4332"
       inkscape:connector-curvature="0"
       inkscape:export-filename="/home/substack/projects/browserify-website/static/images/octocat.png"
       inkscape:export-xdpi="30"
       inkscape:export-ydpi="30" />
    <path
       style="fill:#ffc09f;fill-opacity:1;stroke:#ffffff;stroke-width:1.39068878px;stroke-linecap:butt;stroke-linejoin:miter;stroke-opacity:0"
       d="m 256.31315,949.91385 c -1.69682,-0.0365 -3.27272,0.0681 -4.34375,0.15625 -2.12354,0.15053 -5.80511,2.1915 -6.1875,5.28125 -0.40612,1.64743 -0.51478,3.36176 -0.46875,5.0625 0.44492,0.30709 0.89323,0.61197 1.15625,0.875 0.0615,0.0615 0.90625,1.15985 0.90625,1.0625 0,-0.0289 -1.56599,0.34375 -1.78125,0.34375 -0.0412,0 -0.0837,-10e-4 -0.125,0 0.39797,2.42169 1.8557,4.7549 3.53125,6.3125 1.76235,0.94576 3.88972,2.0899 5.59375,2.125 3.58724,1.0394 5.83413,0.62802 9.5,1.1875 1.62248,0.12805 4.7282,-0.71294 6.59375,-0.3125 2.50654,0.10497 4.94961,-0.54597 7.3125,-1.28125 2.20642,-0.72618 5.16716,-0.99083 6.34375,-3.125 0.4619,-0.74214 0.85586,-1.688 1.1875,-2.6875 -0.44098,-0.0335 -0.9572,-0.0822 -1.1875,-0.3125 -0.0544,-0.0544 0.83904,-0.42217 1.46875,-0.625 0.43057,-1.57956 0.68386,-3.25233 0.625,-4.59375 -0.1275,-0.88635 -0.30929,-1.81424 -0.5625,-2.75 -0.51256,0.0936 -0.9827,0.23382 -1.125,0.28125 -0.031,0.0104 -0.86412,-0.004 -0.96875,0 0.22891,-0.0441 1.15584,-0.6248 1.21875,-0.65625 0.22361,-0.1118 0.45486,-0.20686 0.6875,-0.3125 -0.62211,-1.92219 -1.68069,-3.72286 -3.59375,-4.6875 -3.01569,-1.25433 -6.66854,-0.30027 -9.9375,-0.5625 -2.121,-0.0919 -4.35697,-0.15609 -6.5,-0.15625 -0.0239,0.85473 -0.0625,1.76654 -0.0625,2.15625 l 0,2.15625 c 0,0.0878 -0.0902,0.20679 -0.15625,0.3125 -0.22225,-0.8066 -1.62917,-3.467 -2.0625,-4.59375 -0.67627,0.0137 -1.34948,0.0349 -1.96875,0.0625 -0.12099,-0.0389 -0.25126,-0.0585 -0.375,-0.0937 0.3979,1.18227 1.25959,2.53999 1.3125,3.15625 -0.0982,-0.2704 -0.33974,-1.08974 -0.59375,-1.34375 -0.49553,-0.49553 -1.14622,-1.30534 -1.75,-2.0625 -1.20322,-0.24018 -2.47692,-0.34894 -3.6875,-0.375 z m 9.125,5.28125 c 0.0293,0.12165 0.0168,0.1875 -0.0312,0.1875 -0.0941,0 -0.0369,-0.0771 0.0312,-0.1875 z"
       id="path4334"
       inkscape:connector-curvature="0"
       inkscape:export-filename="/home/substack/projects/browserify-website/static/images/octocat.png"
       inkscape:export-xdpi="30"
       inkscape:export-ydpi="30" />
    <path
       style="fill:#ffffff;fill-opacity:1;stroke:#ffffff;stroke-width:1.39068878px;stroke-linecap:butt;stroke-linejoin:miter;stroke-opacity:0"
       d="m 253.6569,953.35135 c -1.08859,0.0767 -1.59574,1.3043 -2.15625,2.03125 -0.58178,0.75454 -0.92934,1.50912 -1.3125,2.625 -0.39337,1.14564 -0.39171,3.62932 0.15625,5.5625 0.2836,1.00056 1.15558,1.88875 2.1875,2.5 0.49642,-0.5974 1.05138,-1.23889 1.15625,-1.34375 0.0935,-0.0935 0,0.82519 0,1.03125 0,0.24023 -0.0838,0.50238 -0.15625,0.78125 1.16361,0.4385 2.37799,0.53283 3.1875,0 0.69933,-0.46031 1.26919,-1.80043 1.75,-2.28125 0.16857,-0.16857 -0.11083,-0.8408 0,-1.0625 0.35717,-0.71434 0.40264,-2.01482 0.25,-3.4375 -0.84148,0.13523 -1.625,0.22964 -1.625,0.0625 0,-0.2332 0.72791,-0.38416 0.875,-0.53125 0.17973,-0.17973 0.39784,-0.34166 0.625,-0.5 -0.32746,-2.00249 -0.97746,-4.00871 -1.6875,-4.71875 -0.3849,-0.3849 -1.18919,-0.49342 -1.9375,-0.34375 -0.51195,-0.29522 -0.94964,-0.40056 -1.3125,-0.375 z"
       id="path4351"
       inkscape:connector-curvature="0"
       inkscape:export-filename="/home/substack/projects/browserify-website/static/images/octocat.png"
       inkscape:export-xdpi="30"
       inkscape:export-ydpi="30" />
    <path
       style="fill:#ffffff;fill-opacity:1;stroke:#ffffff;stroke-width:1.39068878px;stroke-linecap:butt;stroke-linejoin:miter;stroke-opacity:0"
       d="m 277.7819,953.1951 c -0.22613,0.0251 -0.44785,0.0604 -0.6875,0.15625 -2.4304,-0.21099 -3.03523,2.88728 -4,5.09375 -0.0147,0.0336 -0.0185,0.0877 -0.0312,0.125 0.46427,0.0204 0.88641,0.0427 1.0625,0.21875 0.16445,0.16444 -0.24232,0.38268 -0.125,0.5 0.10523,0.10522 0.39478,0.0198 0.5,0.125 0.0296,0.0295 -1.3022,0.3942 -1.5625,0.5 0.0634,1.27274 0.48775,2.95811 1.21875,4.28125 0.29253,-0.26515 0.55359,-0.51117 0.71875,-0.59375 0.0728,-0.0364 0.90625,-0.32071 0.90625,-0.25 0,0.0399 -0.4211,0.29608 -0.5,0.375 -0.12021,0.12021 -0.40818,0.60679 -0.6875,1.15625 1.06625,1.47158 2.5871,2.10039 4.4375,0.25 0.16881,-0.16882 0.64963,-0.11837 0.875,-0.34375 0.59418,-0.59416 1.33611,-1.29718 1.75,-2.125 0.56595,-1.13189 0.56256,-3.04979 0.125,-4.875 -0.0951,6.9e-4 -0.27312,0 -0.34375,0 -0.13112,0 -1.25023,2.7e-4 -1.125,-0.125 0.29052,-0.29052 0.70493,-0.67534 1.125,-1.0625 -0.7235,-1.99728 -2.01088,-3.5892 -3.65625,-3.40625 z"
       id="path4366"
       inkscape:connector-curvature="0"
       inkscape:export-filename="/home/substack/projects/browserify-website/static/images/octocat.png"
       inkscape:export-xdpi="30"
       inkscape:export-ydpi="30" />
    <path
       style="fill:#cb3837;fill-opacity:1;stroke:#ffffff;stroke-width:1.39068878px;stroke-linecap:butt;stroke-linejoin:miter;stroke-opacity:0"
       d="m 277.9694,956.16385 c -0.32139,0.19283 -0.58233,0.48462 -0.875,0.71875 -0.37701,-0.19819 -1.04275,0.148 -1.75,1.5625 -0.11892,0.23784 -0.22402,0.49089 -0.28125,0.75 0.62545,0.0642 2.5359,0.375 1.96875,0.375 -0.49168,0 -1.31058,0.30988 -2.03125,0.6875 0.0431,0.76636 0.29065,1.5065 0.6875,2.125 0.51555,-0.3244 1.08545,-0.6875 1.46875,-0.6875 0.0192,0 -0.3511,0.4761 -0.625,0.75 -0.1362,0.1362 -0.2904,0.30926 -0.4375,0.46875 0.91279,0.98501 2.26426,1.29825 3.625,-0.0625 1.78317,-1.78317 -1.01507,-7.12845 -1.75,-6.6875 z"
       id="path4368"
       inkscape:connector-curvature="0"
       inkscape:export-filename="/home/substack/projects/browserify-website/static/images/octocat.png"
       inkscape:export-xdpi="30"
       inkscape:export-ydpi="30" />
    <path
       style="fill:#cb3837;fill-opacity:1;stroke:#ffffff;stroke-width:1.39068878px;stroke-linecap:butt;stroke-linejoin:miter;stroke-opacity:0"
       d="m 254.06315,956.1326 c -0.31964,-0.0447 -0.98012,0.49148 -1.46875,1.46875 -0.31906,0.63809 -0.875,1.73597 -0.875,2.46875 0,0.86141 -0.10478,2.04039 0.1875,2.625 0.37113,0.74226 0.97838,0.79086 1.40625,1.21875 1.64071,1.6407 3.39539,-1.18785 3.59375,-3.875 -0.15177,0.006 -0.32596,0.0312 -0.46875,0.0312 -0.60215,0 -1.06108,0.125 -1.625,0.125 -0.0842,0 -0.20727,-0.0415 -0.3125,-0.0625 0.10521,-0.11033 0.21379,-0.26315 0.3125,-0.3125 0.11113,-0.0556 1.28095,-0.50017 2.09375,-0.8125 -0.14406,-1.53828 -0.9286,-2.8125 -2.71875,-2.8125 -0.0304,-0.0301 -0.0793,-0.0561 -0.125,-0.0625 z m 0.3125,3.96875 c 0.0262,-0.006 0.0557,0.0254 0.0937,0.0312 -0.0863,0.0883 -0.15625,0.15617 -0.15625,0.0625 0,-0.0421 0.0283,-0.0859 0.0625,-0.0937 z"
       id="path4370"
       inkscape:connector-curvature="0"
       inkscape:export-filename="/home/substack/projects/browserify-website/static/images/octocat.png"
       inkscape:export-xdpi="30"
       inkscape:export-ydpi="30" />
    <path
       style="fill:#cb3837;fill-opacity:1;stroke:#ffffff;stroke-width:1.39068878px;stroke-linecap:butt;stroke-linejoin:miter;stroke-opacity:0"
       d="m 265.67645,964.6027 c -1.25308,0.13865 -1.05179,0.81415 -0.94476,1.42973 0.2077,1.09762 1.74734,0.70841 2.0122,-0.1545 0.30486,-0.79242 -0.37453,-1.20467 -1.06744,-1.27523 z"
       id="path4372"
       inkscape:connector-curvature="0"
       sodipodi:nodetypes="cccc"
       inkscape:export-filename="/home/substack/projects/browserify-website/static/images/octocat.png"
       inkscape:export-xdpi="30"
       inkscape:export-ydpi="30" />
    <path
       style="fill:none;stroke:#cb3837;stroke-width:0.83441335;stroke-linecap:round;stroke-linejoin:round;stroke-miterlimit:4;stroke-opacity:1;stroke-dasharray:none"
       d="m 263.39364,968.11472 c -0.4049,0.0307 1.14407,2.23758 2.10721,1.75601 0.37279,-0.1864 1.31958,-0.44158 1.58041,-0.70241 0.2783,-0.2783 0.87801,-1.41795 0.87801,-0.878"
       id="path4374"
       inkscape:connector-curvature="0"
       inkscape:export-filename="/home/substack/projects/browserify-website/static/images/octocat.png"
       inkscape:export-xdpi="30"
       inkscape:export-ydpi="30" />
  </g>
</svg>
