<?xml version="1.0" encoding="UTF-8" standalone="no"?>
<!-- Created with Inkscape (http://www.inkscape.org/) -->

<svg
   xmlns:dc="http://purl.org/dc/elements/1.1/"
   xmlns:cc="http://creativecommons.org/ns#"
   xmlns:rdf="http://www.w3.org/1999/02/22-rdf-syntax-ns#"
   xmlns:svg="http://www.w3.org/2000/svg"
   xmlns="http://www.w3.org/2000/svg"
   xmlns:sodipodi="http://sodipodi.sourceforge.net/DTD/sodipodi-0.dtd"
   xmlns:inkscape="http://www.inkscape.org/namespaces/inkscape"
   width="1052.3622"
   height="744.09448"
   id="svg3410"
   version="1.1"
   inkscape:version="0.48.3.1 r9886"
   sodipodi:docname="wizard_hat.svg">
  <defs
     id="defs3412" />
  <sodipodi:namedview
     id="base"
     pagecolor="#142841"
     bordercolor="#666666"
     borderopacity="1.0"
     inkscape:pageopacity="0"
     inkscape:pageshadow="2"
     inkscape:zoom="0.35355339"
     inkscape:cx="156.18376"
     inkscape:cy="347.64649"
     inkscape:document-units="px"
     inkscape:current-layer="layer1"
     showgrid="false"
     inkscape:window-width="1364"
     inkscape:window-height="766"
     inkscape:window-x="0"
     inkscape:window-y="0"
     inkscape:window-maximized="0" />
  <metadata
     id="metadata3415">
    <rdf:RDF>
      <cc:Work
         rdf:about="">
        <dc:format>image/svg+xml</dc:format>
        <dc:type
           rdf:resource="http://purl.org/dc/dcmitype/StillImage" />
        <dc:title></dc:title>
      </cc:Work>
    </rdf:RDF>
  </metadata>
  <g
     inkscape:label="Layer 1"
     inkscape:groupmode="layer"
     id="layer1"
     transform="translate(0,-308.2677)">
    <path
       style="fill:#91643c;fill-opacity:1;stroke:#ffffff;stroke-width:1px;stroke-linecap:butt;stroke-linejoin:miter;stroke-opacity:0"
       d="m 206.9208,490.28121 c -6.88296,0.12763 -15.49613,4.42046 -21.65625,2.9375 -2.45884,-0.59188 -5.46417,-0.84705 -8.40625,-0.6875 -0.0519,0.003 -0.10435,-0.003 -0.15625,0 -2.99154,0.17773 -5.91091,0.80838 -8.0625,2.125 -0.0889,0.0544 -0.19087,0.10474 -0.28125,0.15625 -0.0857,0.12506 -0.17588,0.23838 -0.28125,0.34375 -2.859,2.85899 -9.18293,3.12043 -12.125,6.0625 -2.40309,2.40309 -4.62978,7.00431 -7.28125,11.125 -0.0252,0.0392 -0.0372,0.0859 -0.0625,0.125 -9.43396,10.99894 -16.96215,24.53258 -19.625,35.59375 -2.18794,9.08847 -2.15778,21.36359 -5.75,30.40625 -1.00465,2.52896 -5.1699,16.52797 -1.9375,19.25 2.20168,1.85406 11.58691,3.27372 14.34375,0 1.48365,-1.76198 15.08839,-6.1656 19.34375,-11.21875 5.0109,-5.95051 7.59641,-16.22848 11.03125,-24.875 0.54659,-1.37588 1.25037,-2.83588 2.0625,-4.28125 1.9487,3.7745 3.49557,6.85626 4.3125,8.75 1.7005,3.94186 3.57158,9.39292 5.125,15.21875 -3.36643,5.15708 -1.96374,12.21311 0.46875,15.4375 -9.84349,3.06466 -5.15433,13.6543 -5.53125,14.03125 -0.64826,0.64845 -2.70183,1.51441 -3.53125,2.34375 -1.02685,1.02686 -1.1875,3.16839 -1.1875,4.71875 0,1.49589 0.18899,2.82515 0.46875,4 -8.95626,22.53063 -17.41001,50.7324 -28.09375,65.9375 -3.07504,1.40257 -6.22091,2.60668 -9.90625,3.34375 -7.18111,1.79576 -25.33291,5.35395 -40.625002,10.5 -0.66372,0.88212 -1.43711,1.74961 -2.3125,2.625 -1.51523,1.51522 -4.54727,1.51602 -6.0625,3.03125 -1.17851,1.17851 -4.85274,-0.14727 -6.03125,1.03125 -3.49703,3.49702 -8.65855,5.31364 -14.15625,8.0625 -0.60991,0.30495 -2.56429,-0.46696 -3.03125,0 -2.49746,2.49746 -6.96922,3.93797 -9.09375,6.0625 -4.15656,4.15656 -7.64112,8.67237 -12.125,13.15625 -4.45615,4.45615 4.63155,16.7253 6.0625,18.15625 4.21079,4.21079 11.94546,4.88297 16.15625,9.09375 1.77149,1.77149 7.71084,-0.59756 9.84375,0.8125 0.55085,0.0775 1.04344,0.17797 1.375,0.34375 6.20402,3.10201 18.37378,5.39543 25.71875,7.84375 10.122382,3.37412 18.151722,12.38949 28.593752,15 7.94923,1.98731 16.9771,3.04444 25,5.71875 3.35423,1.11807 7.42767,0.35089 10.6875,1.4375 6.09654,2.03218 11.60116,4.55455 17.15625,6.40625 1.92403,0.64134 4.46632,-0.4928 6.4375,0 4.43537,1.10884 9.23011,1.43087 13.5625,2.875 7.71428,2.57143 18.00447,-2.57143 25.71875,0 5.08396,1.69465 36.73584,-1.01709 39.28125,-3.5625 1.87129,-1.87129 8.9879,0.50604 11.4375,-0.71875 2.12609,-1.06305 8.58262,-0.0201 10,-1.4375 3.6607,-3.66071 11.17531,-3.82202 16.40625,-6.4375 2.20041,-1.1002 5.59177,0.42286 7.875,-0.71875 1.3133,-0.65665 3.98135,0.15129 6.875,1.40625 5.50656,-0.11572 9.74454,-0.6875 15.25,-0.6875 6.54541,0 15.58123,-3.10776 25.15625,-7.8125 10.59674,-2.38699 23.54935,-5.1431 24.15625,-5.75 4.60394,-4.60394 16.84123,-3.27873 21.40625,-7.84375 3.234,-3.23401 7.38947,-4.54573 10.71875,-7.875 2.96598,-2.96599 7.04082,-6.36212 11.3125,-9.9375 0.744,-2.07354 2.64812,-4.02312 4.40625,-5.78125 0.73721,-0.73721 5.94021,-15.96333 5,-17.84375 -1.72177,-3.44354 -4.56665,-6.29155 -7.84375,-8.9375 -1.01671,-0.34824 -1.79636,-0.70261 -2.15625,-1.0625 -3.50061,-3.50061 -11.88828,-4.04453 -15,-7.15625 -5.0106,-5.0106 -12.54394,-9.51369 -21.53125,-12.53125 -1.88241,-0.933 -3.6443,-1.92555 -4.90625,-3.1875 -1.60072,-1.60071 -10.852,-3.64475 -13.5625,-5 -1.45793,-0.72898 -4.63079,0.40046 -5.71875,-0.6875 -2.63885,-2.63885 -13.69864,-4.51903 -21.6875,-7.0625 -1.16488,0.0739 -3.03407,-0.81532 -3.375,-1.15625 -0.24035,-0.24036 -6.43319,-1.15194 -8.46875,-3.1875 -0.2311,-0.23109 -1.0625,-8.52853 -1.0625,-9.5625 0,-0.38122 -0.92517,-1.91858 -0.375,-2.46875 0.0856,-0.0856 0.16924,-0.1863 0.25,-0.28125 -3.69757,-22.78513 -6.52477,-47.94526 -9.1875,-50.1875 -3.9541,-3.32985 -6.15086,-21.71253 -10.5,-25.375 -4.54723,-3.8291 -7.39312,-8.01627 -10.90625,-11.28125 -0.002,-0.01 0.002,-0.0213 0,-0.0312 -1.32174,-7.26421 -3.83149,-15.42556 -4.625,-16.09375 -1.28875,-1.08535 0.66376,-6.00839 -0.625,-7.09375 -4.01151,-3.378 -9.23737,-23.23773 -13,-26.40625 -4.92787,-4.1499 -7.35202,-10.59082 -12.03125,-14.53125 -11.56217,-9.73647 -30.76829,-24.22506 -52,-23.125 -0.9127,-0.25731 -1.80142,-0.56666 -2.65625,-0.90625 -1.34982,-0.53625 -2.88035,-0.71696 -4.46875,-0.6875 z"
       id="path3535"
       inkscape:export-filename="/home/substack/media/vector/wizard_hat.png"
       inkscape:export-xdpi="48.274723"
       inkscape:export-ydpi="48.274723"
       inkscape:connector-curvature="0" />
    <rect
       style="color:#000000;fill:#3c6991;fill-opacity:1;fill-rule:nonzero;stroke:#ffffff;stroke-width:0;stroke-linecap:round;stroke-linejoin:round;stroke-miterlimit:4;stroke-opacity:0;stroke-dasharray:none;stroke-dashoffset:0;marker:none;visibility:visible;display:inline;overflow:visible;enable-background:accumulate"
       id="rect2985"
       width="111.42857"
       height="94.285713"
       x="-263.69836"
       y="320.93359" />
    <rect
       y="540.93359"
       x="-263.69836"
       height="94.285713"
       width="111.42857"
       id="rect3836"
       style="color:#000000;fill:#c8dceb;fill-opacity:1;fill-rule:nonzero;stroke:#ffffff;stroke-width:0;stroke-linecap:round;stroke-linejoin:round;stroke-miterlimit:4;stroke-opacity:0;stroke-dasharray:none;stroke-dashoffset:0;marker:none;visibility:visible;display:inline;overflow:visible;enable-background:accumulate" />
    <rect
       style="color:#000000;fill:#5a8ce6;fill-opacity:1;fill-rule:nonzero;stroke:#ffffff;stroke-width:0;stroke-linecap:round;stroke-linejoin:round;stroke-miterlimit:4;stroke-opacity:0;stroke-dasharray:none;stroke-dashoffset:0;marker:none;visibility:visible;display:inline;overflow:visible;enable-background:accumulate"
       id="rect3838"
       width="111.42857"
       height="94.285713"
       x="-263.69836"
       y="429.50494" />
    <rect
       y="320.93359"
       x="-134.49315"
       height="94.285713"
       width="111.42857"
       id="rect3840"
       style="color:#000000;fill:#91643c;fill-opacity:1;fill-rule:nonzero;stroke:#ffffff;stroke-width:0;stroke-linecap:round;stroke-linejoin:round;stroke-miterlimit:4;stroke-opacity:0;stroke-dasharray:none;stroke-dashoffset:0;marker:none;visibility:visible;display:inline;overflow:visible;enable-background:accumulate" />
    <rect
       style="color:#000000;fill:#ebd7c8;fill-opacity:1;fill-rule:nonzero;stroke:#ffffff;stroke-width:0;stroke-linecap:round;stroke-linejoin:round;stroke-miterlimit:4;stroke-opacity:0;stroke-dasharray:none;stroke-dashoffset:0;marker:none;visibility:visible;display:inline;overflow:visible;enable-background:accumulate"
       id="rect3842"
       width="111.42857"
       height="94.285713"
       x="-134.49315"
       y="540.93359" />
    <rect
       y="429.50494"
       x="-134.49315"
       height="94.285713"
       width="111.42857"
       id="rect3844"
       style="color:#000000;fill:#e6b35a;fill-opacity:1;fill-rule:nonzero;stroke:#ffffff;stroke-width:0;stroke-linecap:round;stroke-linejoin:round;stroke-miterlimit:4;stroke-opacity:0;stroke-dasharray:none;stroke-dashoffset:0;marker:none;visibility:visible;display:inline;overflow:visible;enable-background:accumulate" />
    <path
       inkscape:connector-curvature="0"
       id="path3230"
       d="m 202.33684,616.37217 c -1.78335,-0.32154 -3.52693,-0.34018 -4.89489,0.11367 -2.27796,0.75608 -5.95061,-1.03417 -8.32915,-0.60485 -8.99308,1.62324 -16.04373,4.0597 -17.25793,7.08292 13.34752,-3.82668 28.1657,4.71447 34.23639,12.83046 2.52346,3.37334 -1.36896,8.48627 0.005,12.62521 0.31097,0.937 0.55969,6.9373 -0.52078,7.74543 -2.25835,1.68935 -2.0342,7.58441 -3.90179,10.27454 -4.39565,6.33209 -8.22924,10.95833 -11.96307,16.33709 -3.85052,5.54685 -14.14602,6.65792 -19.89227,8.56519 -1.26969,0.42146 -2.86815,-0.4548 -4.20653,-0.0106 -0.31629,0.10509 -0.68497,0.12311 -1.0531,0.0717 0.12921,0.14573 0.27849,0.28532 0.38505,0.4279 0.48463,0.6477 2.84818,0.0306 3.53893,0.51016 4.46517,3.09976 22.13395,1.91059 27.03283,0.28467 3.04816,-1.01179 5.87532,-2.50599 8.92344,-3.51764 3.90908,-1.29754 7.75652,-7.37615 10.56385,-10.50583 9.65588,-10.76431 14.06832,-29.40823 9.29278,-43.79587 -2.40049,-7.23233 -8.68462,-11.56718 -14.03404,-15.28075 -1.82901,-1.26976 -4.95208,-2.61751 -7.92456,-3.15338 z"
       style="fill:#e6b35a;fill-opacity:1;stroke:#ffffff;stroke-width:1.17950343999999996px;stroke-linecap:butt;stroke-linejoin:miter;stroke-opacity:0"
       inkscape:export-filename="/home/substack/media/vector/wizard_hat.png"
       inkscape:export-xdpi="48.274723"
       inkscape:export-ydpi="48.274723" />
    <path
       sodipodi:nodetypes="ccccccccsscccccsscccsccsscccc"
       inkscape:connector-curvature="0"
       id="path3236"
       d="m 223.87354,602.47756 c -0.57483,-0.0183 -0.65559,5.61017 -0.70019,8.2934 -0.27014,0.0159 -0.25803,0.35398 -0.18528,0.73717 -2.9021,1.28876 -9.21937,3.86976 -8.7358,4.38629 0.0229,0.0117 0.0252,0.0279 0.0366,0.0368 -0.22874,0.0117 -0.4687,0.089 -0.47922,0.40546 -0.0229,0.4168 0.83652,0.0229 1.25329,0.0368 0.67228,0.0229 6.54831,2.18909 8.88311,3.16991 0.28959,2.21978 1.14259,3.54505 1.14259,6.08181 0,1.58146 0.31178,3.75967 0.40556,3.75967 0.0344,0 0.0984,-0.0487 0.1464,-0.0739 0.0686,0.27437 0.14639,0.43657 0.25803,0.33173 0.45886,-0.4296 1.29172,-1.58134 2.13784,-2.87503 0.0366,-0.0556 0.0755,-0.0913 0.10979,-0.14732 1.48959,-1.84462 3.19054,-4.20637 4.64422,-6.33983 2.81791,0.41002 5.39931,0.7372 6.04483,0.7372 0.30995,0 11.01798,1.83993 7.92488,-1.25323 -0.18757,-0.18872 -0.40739,-0.34899 -0.62652,-0.51605 0.0686,-0.0544 0.10755,-0.11025 0.10978,-0.18437 0.0229,-0.59709 -5.95494,-3.34495 -6.92961,-4.38628 -0.47031,-0.50233 -1.15174,-0.82465 -1.62181,-1.32696 -0.12353,-0.13198 0.10978,-0.50066 0.47922,-1.03208 0,-0.0117 0,-0.026 0,-0.0368 0.83103,-0.91798 1.7181,-1.86575 2.35882,-2.50647 0.3072,-0.30716 2.03743,-3.54416 0.39619,-3.33106 -1.10735,0.14388 -4.72428,0.37266 -9.46138,1.75986 0,0 -1.27915,-1.67277 -1.28784,-1.66811 -1.02866,-0.42085 -3.94265,-3.98076 -6.30719,-4.05886 z"
       style="fill:#e6b35a;fill-opacity:1;stroke:#ffffff;stroke-width:1.17950343999999996px;stroke-linecap:butt;stroke-linejoin:miter;stroke-opacity:0"
       inkscape:export-filename="/home/substack/media/vector/wizard_hat.png"
       inkscape:export-xdpi="48.274723"
       inkscape:export-ydpi="48.274723" />
    <path
       inkscape:connector-curvature="0"
       id="path3238"
       d="m 197.12387,601.64247 c -0.34129,0.1647 -0.85895,0.83462 -1.02341,0.49349 -0.1647,-0.34114 1.36446,-0.65797 1.02341,-0.49349 -1.01792,0.49082 -4.95486,4.03749 -3.50415,5.15841 1.19359,0.92231 5.61936,-0.80269 7.49736,-0.14662 0.28066,0.0979 3.39984,4.88397 3.88844,3.48588 0.79649,-2.28041 -0.18985,-6.15705 -0.1647,-6.22735 0.36737,-1.05193 3.24796,-0.62018 3.95182,-0.95964 0.58169,-0.28036 1.76111,-0.77744 1.92352,-1.24282 0.0435,-0.12649 0.0755,-0.4998 0.13267,-0.37921 0.0481,0.0977 -0.76881,-0.69413 -1.76363,-1.04163 -1.48684,-0.51947 -2.99176,-0.19399 -4.05703,-0.56636 -0.49157,-0.17179 0.10063,-3.06202 -0.0778,-3.43126 -0.58559,-1.21427 -0.95685,-2.63827 -0.8546,-2.426 0.29074,0.60304 -1.25833,0.58968 -1.66755,1.11943 -0.50964,0.65957 -1.84553,2.89549 -2.70927,2.8831 -1.03507,-0.0161 -5.18131,-1.0023 -5.4597,-0.20542 -0.0229,0.0448 2.58415,2.62497 2.86481,3.97935 z"
       style="fill:#e6b35a;fill-opacity:1;stroke:#ffffff;stroke-width:0.80339450000000001px;stroke-linecap:butt;stroke-linejoin:miter;stroke-opacity:0"
       inkscape:export-filename="/home/substack/media/vector/wizard_hat.png"
       inkscape:export-xdpi="48.274723"
       inkscape:export-ydpi="48.274723" />
    <path
       style="fill:#e6b35a;fill-opacity:1;stroke:#ffffff;stroke-width:0.80339450000000001px;stroke-linecap:butt;stroke-linejoin:miter;stroke-opacity:0"
       d="m 237.20386,641.86868 c -0.27747,-0.25768 -1.0902,-0.49556 -0.83264,-0.77306 0.25781,-0.27757 1.11034,1.03075 0.83264,0.77306 -0.82806,-0.76892 -5.56584,-3.14203 -6.08074,-1.38251 -0.42364,1.44777 2.79596,4.94003 2.86961,6.92815 0.0229,0.29699 -3.30858,4.94631 -1.82859,4.89145 2.41395,-0.0895 5.66443,-2.4208 5.73877,-2.42354 1.11353,-0.0414 1.76157,2.79843 2.33435,3.33025 0.47304,0.43928 1.36584,1.35632 1.85832,1.33804 0.13497,-0.005 0.49249,-0.11295 0.40145,-0.016 -0.0732,0.0799 0.366,-0.96905 0.32711,-2.02198 -0.0595,-1.57396 -0.90972,-2.85674 -0.95158,-3.98446 -0.0229,-0.52023 2.88791,-1.02283 3.16652,-1.32334 0.91728,-0.98788 2.10813,-1.85275 1.94777,-1.68004 -0.45566,0.49061 -1.00785,-0.95671 -1.65039,-1.14478 -0.79993,-0.2341 -3.36897,-0.66296 -3.67229,-1.47177 -0.36348,-0.9694 -0.95546,-5.19026 -1.79908,-5.15895 -0.0481,10e-4 -1.50241,3.36327 -2.66123,4.11833 z"
       id="path3240"
       inkscape:connector-curvature="0"
       inkscape:export-filename="/home/substack/media/vector/wizard_hat.png"
       inkscape:export-xdpi="48.274723"
       inkscape:export-ydpi="48.274723" />
    <path
       style="fill:#e6b35a;fill-opacity:1;stroke:#ffffff;stroke-width:1px;stroke-linecap:butt;stroke-linejoin:miter;stroke-opacity:0"
       d="m 328.3583,679.24996 c -0.80745,2.7773 -5.86931,11.68182 -8,13.8125 -2.74047,2.74047 -5.09735,5.59735 -7.5,8 -1.70259,1.70259 -6.5623,6.0623 -8,7.5 -3.12608,3.12608 -4.95763,1.95764 -8.5,5.5 -1.75585,1.75585 -5.29026,1.79027 -7,3.5 -1.54647,1.54648 -13.95318,2.47659 -17,4 -0.73735,0.36868 -2.93946,-0.56054 -3.5,0 -2.18892,2.18892 -19.48597,2.98597 -20,3.5 -2.64829,2.6483 -9.69851,-0.40074 -13.5,1.5 -3.37117,1.68559 -10.06338,0.5 -14,0.5 -2.18005,0 -7.97241,-0.0414 -13.9375,-0.1875 -1.40817,-0.19932 -2.51742,-0.35758 -2.5625,-0.3125 -0.0302,0.0302 -0.16526,0.16848 -0.25,0.25 -1.12039,-0.0345 -2.19933,-0.0814 -3.28125,-0.125 -0.67355,-0.25644 -1.38832,-0.41521 -1.96875,-0.125 -0.0269,0.0134 -0.0653,0.0182 -0.0937,0.0312 -4.65453,-0.22498 -8.45314,-0.55469 -9.40625,-1.03125 -3.91258,-1.95629 -8.11454,-2.5 -13,-2.5 -7.64655,0 -24.57784,-9.03892 -30.5,-12 -0.907,-0.4535 -3.42235,-3.09053 -4.78125,-3.8125 -0.0107,-0.5233 -0.0293,-0.99808 -0.21875,-1.1875 -1.39335,-1.39335 -2.00341,-4.50682 -3,-6.5 -0.41467,-0.82934 0,-3.8693 0,-3.5 0,0.0163 1.005,-4 1,-4 -0.85673,0 -5.33773,5.83773 -7,7.5 -0.0155,0.0155 0.0313,0.10582 0.0625,0.1875 -0.93681,1.29118 -1.59375,3.21803 -1.59375,6.125 0,9.9101 5.46609,10.43484 10.59375,15.5625 1.25897,1.25897 3.95425,0.423 4.9375,1.40625 1.0039,1.0039 2.47735,1.89558 4.21875,2.6875 -2.17807,1.27698 -6.37449,1.59324 -7.75,2.96875 -1.34529,1.34529 -7.58269,5.21322 -9.90625,6.375 -0.43685,0.21843 -2.5504,0.45665 -2.8125,0.71875 -13.20862,13.20862 -28.11529,21.74029 -40.312502,33.9375 -1.02686,1.02686 -1.40625,14.43818 -1.40625,16.96875 0,4.41799 -1.50048,9.09328 1.40625,12 1.22629,1.2263 5.29232,0.35482 6.375,1.4375 0.23471,0.23472 3.19138,2.43362 3.53125,2.09375 1.290342,-1.29034 -0.71875,-8.03657 -0.71875,-9.875 0,-9.65553 1.042062,-19.41706 7.093752,-25.46875 11.66954,-11.66954 28.30791,-16.99541 38.875,-27.5625 3.10619,-3.1062 8.79763,-4.76033 12.9375,-8.15625 -0.14514,0.99585 0.0241,1.93405 0.75,2.71875 0.48256,0.52166 2.20202,-0.51119 2.8125,-0.1875 4.15212,2.20163 16.8059,6.92182 20.53125,2.375 0.67557,1.28451 1.211,2.58601 1.875,3.25 2.48042,2.48042 0.54073,14.44978 -0.71875,16.96875 -4.75215,9.50429 -7.25828,36.94578 -11.3125,41 -0.69997,0.69998 0.83982,7.36713 1.40625,8.5 1.47318,2.94635 -1.07813,9.51561 0,10.59375 1.06066,1.06066 0.37684,3.87684 1.4375,4.9375 0.9656,0.96561 5.37815,-0.24685 6.34375,0.71875 0.38278,0.38278 5.41315,3.8056 6.375,2.84375 0.79702,-0.79702 -2.18182,-9.98865 -2.84375,-11.3125 -0.5702,-1.14041 1.53553,-22.06677 2.125,-22.65625 0.82496,-0.82495 -0.82496,-4.11255 0,-4.9375 1.60637,-1.60637 3.53125,-34.89184 3.53125,-39.59375 0,-0.79361 2.02865,-5.75261 0.71875,-7.0625 -0.007,-0.007 -1.17161,-2.68181 -2.75,-5.28125 2.33105,0.17311 4.29782,0.45407 4.875,1.03125 1.0378,1.03779 21.95885,0 25.4375,0 13.81445,0 35.54683,-1.07029 43.84375,-2.84375 3.30743,-0.70696 11.15118,-1.32559 15.5625,-3.53125 2.56075,-1.28038 11.58015,-2.15631 13.15625,-2.5625 3.368,-0.868 14.19115,-3.4724 17.21875,-6.5 2.24545,-2.24546 9.9233,-10.02415 12.75,-11.4375 3.18679,-1.59339 4.78714,-7.25365 6.65625,-9.875 0.2399,-1.94072 5.46285,-7.01179 4.4375,-9.0625 -1.16356,-4.73514 -1.89083,-9.63041 -3.75,-9.8125 z"
       id="path3712"
       inkscape:export-filename="/home/substack/media/vector/wizard_hat.png"
       inkscape:export-xdpi="48.274723"
       inkscape:export-ydpi="48.274723"
       inkscape:connector-curvature="0" />
    <path
       inkscape:connector-curvature="0"
       inkscape:export-ydpi="48.274723"
       inkscape:export-xdpi="48.274723"
       inkscape:export-filename="/home/substack/media/vector/wizard_hat_dull.png"
       id="path4631"
       d="m 639.67015,490.28121 c -6.88296,0.12763 -15.49613,4.42046 -21.65625,2.9375 -2.45884,-0.59188 -5.46417,-0.84705 -8.40625,-0.6875 -0.0519,0.003 -0.10435,-0.003 -0.15625,0 -2.99154,0.17773 -5.91091,0.80838 -8.0625,2.125 -0.0889,0.0544 -0.19087,0.10474 -0.28125,0.15625 -0.0857,0.12506 -0.17588,0.23838 -0.28125,0.34375 -2.859,2.85899 -9.18293,3.12043 -12.125,6.0625 -2.40309,2.40309 -4.62978,7.00431 -7.28125,11.125 -0.0252,0.0392 -0.0372,0.0859 -0.0625,0.125 -9.43396,10.99894 -16.96215,24.53258 -19.625,35.59375 -2.18794,9.08847 -2.15778,21.36359 -5.75,30.40625 -1.00465,2.52896 -5.1699,16.52797 -1.9375,19.25 2.20168,1.85406 11.58691,3.27372 14.34375,0 1.48365,-1.76198 15.08839,-6.1656 19.34375,-11.21875 5.0109,-5.95051 7.59641,-16.22848 11.03125,-24.875 0.54659,-1.37588 1.25037,-2.83588 2.0625,-4.28125 1.9487,3.7745 3.49557,6.85626 4.3125,8.75 1.7005,3.94186 3.57158,9.39292 5.125,15.21875 -3.36643,5.15708 -1.96374,12.21311 0.46875,15.4375 -9.84349,3.06466 -5.15433,13.6543 -5.53125,14.03125 -0.64826,0.64845 -2.70183,1.51441 -3.53125,2.34375 -1.02685,1.02686 -1.1875,3.16839 -1.1875,4.71875 0,1.49589 0.18899,2.82515 0.46875,4 -8.95626,22.53063 -17.41001,50.7324 -28.09375,65.9375 -3.07504,1.40257 -6.22091,2.60668 -9.90625,3.34375 -7.18111,1.79576 -25.33291,5.35395 -40.625,10.5 -0.66372,0.88212 -1.43711,1.74961 -2.3125,2.625 -1.51523,1.51522 -4.54727,1.51602 -6.0625,3.03125 -1.17851,1.17851 -4.85274,-0.14727 -6.03125,1.03125 -3.49703,3.49702 -8.65855,5.31364 -14.15625,8.0625 -0.60991,0.30495 -2.56429,-0.46696 -3.03125,0 -2.49746,2.49746 -6.96922,3.93797 -9.09375,6.0625 -4.15656,4.15656 -7.64112,8.67237 -12.125,13.15625 -4.45615,4.45615 4.63155,16.7253 6.0625,18.15625 4.21079,4.21079 11.94546,4.88297 16.15625,9.09375 1.77149,1.77149 7.71084,-0.59756 9.84375,0.8125 0.55085,0.0775 1.04344,0.17797 1.375,0.34375 6.20402,3.10201 18.37378,5.39543 25.71875,7.84375 10.12238,3.37412 18.15172,12.38949 28.59375,15 7.94923,1.98731 16.9771,3.04444 25,5.71875 3.35423,1.11807 7.42767,0.35089 10.6875,1.4375 6.09654,2.03218 11.60116,4.55455 17.15625,6.40625 1.92403,0.64134 4.46632,-0.4928 6.4375,0 4.43537,1.10884 9.23011,1.43087 13.5625,2.875 7.71428,2.57143 18.00447,-2.57143 25.71875,0 5.08396,1.69465 36.73584,-1.01709 39.28125,-3.5625 1.87129,-1.87129 8.9879,0.50604 11.4375,-0.71875 2.12609,-1.06305 8.58262,-0.0201 10,-1.4375 3.6607,-3.66071 11.17531,-3.82202 16.40625,-6.4375 2.20041,-1.1002 5.59177,0.42286 7.875,-0.71875 1.3133,-0.65665 3.98135,0.15129 6.875,1.40625 5.50656,-0.11572 9.74454,-0.6875 15.25,-0.6875 6.54541,0 15.58123,-3.10776 25.15625,-7.8125 10.59674,-2.38699 23.54935,-5.1431 24.15625,-5.75 4.60394,-4.60394 16.84123,-3.27873 21.40625,-7.84375 3.234,-3.23401 7.38947,-4.54573 10.71875,-7.875 2.96598,-2.96599 7.04082,-6.36212 11.3125,-9.9375 0.744,-2.07354 2.64812,-4.02312 4.40625,-5.78125 0.73721,-0.73721 5.94021,-15.96333 5,-17.84375 -1.72177,-3.44354 -4.56665,-6.29155 -7.84375,-8.9375 -1.01671,-0.34824 -1.79636,-0.70261 -2.15625,-1.0625 -3.50061,-3.50061 -11.88828,-4.04453 -15,-7.15625 -5.0106,-5.0106 -12.54394,-9.51369 -21.53125,-12.53125 -1.88241,-0.933 -3.6443,-1.92555 -4.90625,-3.1875 -1.60072,-1.60071 -10.852,-3.64475 -13.5625,-5 -1.45793,-0.72898 -4.63079,0.40046 -5.71875,-0.6875 -2.63885,-2.63885 -13.69864,-4.51903 -21.6875,-7.0625 -1.16488,0.0739 -3.03407,-0.81532 -3.375,-1.15625 -0.24035,-0.24036 -6.43319,-1.15194 -8.46875,-3.1875 -0.2311,-0.23109 -1.0625,-8.52853 -1.0625,-9.5625 0,-0.38122 -0.92517,-1.91858 -0.375,-2.46875 0.0856,-0.0856 0.16924,-0.1863 0.25,-0.28125 -3.69757,-22.78513 -6.52477,-47.94526 -9.1875,-50.1875 -3.9541,-3.32985 -6.15086,-21.71253 -10.5,-25.375 -4.54723,-3.8291 -7.39312,-8.01627 -10.90625,-11.28125 -0.002,-0.01 0.002,-0.0213 0,-0.0312 -1.32174,-7.26421 -3.83149,-15.42556 -4.625,-16.09375 -1.28875,-1.08535 0.66376,-6.00839 -0.625,-7.09375 -4.01151,-3.378 -9.23737,-23.23773 -13,-26.40625 -4.92787,-4.1499 -7.35202,-10.59082 -12.03125,-14.53125 -11.56217,-9.73647 -30.76829,-24.22506 -52,-23.125 -0.9127,-0.25731 -1.80142,-0.56666 -2.65625,-0.90625 -1.34982,-0.53625 -2.88035,-0.71696 -4.46875,-0.6875 z"
       style="fill:#91643c;fill-opacity:1;stroke:#ffffff;stroke-width:1px;stroke-linecap:butt;stroke-linejoin:miter;stroke-opacity:0" />
    <path
       inkscape:export-ydpi="48.274723"
       inkscape:export-xdpi="48.274723"
       inkscape:export-filename="/home/substack/media/vector/wizard_hat_dull.png"
       style="fill:#a9805c;fill-opacity:1;stroke:#ffffff;stroke-width:1.17950343999999996px;stroke-linecap:butt;stroke-linejoin:miter;stroke-opacity:0"
       d="m 635.08619,616.37217 c -1.78335,-0.32154 -3.52693,-0.34018 -4.89489,0.11367 -2.27796,0.75608 -5.95061,-1.03417 -8.32915,-0.60485 -8.99308,1.62324 -16.04373,4.0597 -17.25793,7.08292 13.34752,-3.82668 28.1657,4.71447 34.23639,12.83046 2.52346,3.37334 -1.36896,8.48627 0.005,12.62521 0.31097,0.937 0.55969,6.9373 -0.52078,7.74543 -2.25835,1.68935 -2.0342,7.58441 -3.90179,10.27454 -4.39565,6.33209 -8.22924,10.95833 -11.96307,16.33709 -3.85052,5.54685 -14.14602,6.65792 -19.89227,8.56519 -1.26969,0.42146 -2.86815,-0.4548 -4.20653,-0.0106 -0.31629,0.10509 -0.68497,0.12311 -1.0531,0.0717 0.12921,0.14573 0.27849,0.28532 0.38505,0.4279 0.48463,0.6477 2.84818,0.0306 3.53893,0.51016 4.46517,3.09976 22.13395,1.91059 27.03283,0.28467 3.04816,-1.01179 5.87532,-2.50599 8.92344,-3.51764 3.90908,-1.29754 7.75652,-7.37615 10.56385,-10.50583 9.65588,-10.76431 14.06832,-29.40823 9.29278,-43.79587 -2.40049,-7.23233 -8.68462,-11.56718 -14.03404,-15.28075 -1.82901,-1.26976 -4.95208,-2.61751 -7.92456,-3.15338 z"
       id="path4633"
       inkscape:connector-curvature="0" />
    <path
       inkscape:export-ydpi="48.274723"
       inkscape:export-xdpi="48.274723"
       inkscape:export-filename="/home/substack/media/vector/wizard_hat_dull.png"
       style="fill:#a9805c;fill-opacity:1;stroke:#ffffff;stroke-width:1.17950343999999996px;stroke-linecap:butt;stroke-linejoin:miter;stroke-opacity:0"
       d="m 656.62289,602.47756 c -0.57483,-0.0183 -0.65559,5.61017 -0.70019,8.2934 -0.27014,0.0159 -0.25803,0.35398 -0.18528,0.73717 -2.9021,1.28876 -9.21937,3.86976 -8.7358,4.38629 0.0229,0.0117 0.0252,0.0279 0.0366,0.0368 -0.22874,0.0117 -0.4687,0.089 -0.47922,0.40546 -0.0229,0.4168 0.83652,0.0229 1.25329,0.0368 0.67228,0.0229 6.54831,2.18909 8.88311,3.16991 0.28959,2.21978 1.14259,3.54505 1.14259,6.08181 0,1.58146 0.31178,3.75967 0.40556,3.75967 0.0344,0 0.0984,-0.0487 0.1464,-0.0739 0.0686,0.27437 0.14639,0.43657 0.25803,0.33173 0.45886,-0.4296 1.29172,-1.58134 2.13784,-2.87503 0.0366,-0.0556 0.0755,-0.0913 0.10979,-0.14732 1.48959,-1.84462 3.19054,-4.20637 4.64422,-6.33983 2.81791,0.41002 5.39931,0.7372 6.04483,0.7372 0.30995,0 11.01798,1.83993 7.92488,-1.25323 -0.18757,-0.18872 -0.40739,-0.34899 -0.62652,-0.51605 0.0686,-0.0544 0.10755,-0.11025 0.10978,-0.18437 0.0229,-0.59709 -5.95494,-3.34495 -6.92961,-4.38628 -0.47031,-0.50233 -1.15174,-0.82465 -1.62181,-1.32696 -0.12353,-0.13198 0.10978,-0.50066 0.47922,-1.03208 0,-0.0117 0,-0.026 0,-0.0368 0.83103,-0.91798 1.7181,-1.86575 2.35882,-2.50647 0.3072,-0.30716 2.03743,-3.54416 0.39619,-3.33106 -1.10735,0.14388 -4.72428,0.37266 -9.46138,1.75986 0,0 -1.27915,-1.67277 -1.28784,-1.66811 -1.02866,-0.42085 -3.94265,-3.98076 -6.30719,-4.05886 z"
       id="path4635"
       inkscape:connector-curvature="0"
       sodipodi:nodetypes="ccccccccsscccccsscccsccsscccc" />
    <path
       inkscape:export-ydpi="48.274723"
       inkscape:export-xdpi="48.274723"
       inkscape:export-filename="/home/substack/media/vector/wizard_hat_dull.png"
       style="fill:#a9805c;fill-opacity:1;stroke:#ffffff;stroke-width:0.80339450000000001px;stroke-linecap:butt;stroke-linejoin:miter;stroke-opacity:0"
       d="m 629.87322,601.64247 c -0.34129,0.1647 -0.85895,0.83462 -1.02341,0.49349 -0.1647,-0.34114 1.36446,-0.65797 1.02341,-0.49349 -1.01792,0.49082 -4.95486,4.03749 -3.50415,5.15841 1.19359,0.92231 5.61936,-0.80269 7.49736,-0.14662 0.28066,0.0979 3.39984,4.88397 3.88844,3.48588 0.79649,-2.28041 -0.18985,-6.15705 -0.1647,-6.22735 0.36737,-1.05193 3.24796,-0.62018 3.95182,-0.95964 0.58169,-0.28036 1.76111,-0.77744 1.92352,-1.24282 0.0435,-0.12649 0.0755,-0.4998 0.13267,-0.37921 0.0481,0.0977 -0.76881,-0.69413 -1.76363,-1.04163 -1.48684,-0.51947 -2.99176,-0.19399 -4.05703,-0.56636 -0.49157,-0.17179 0.10063,-3.06202 -0.0778,-3.43126 -0.58559,-1.21427 -0.95685,-2.63827 -0.8546,-2.426 0.29074,0.60304 -1.25833,0.58968 -1.66755,1.11943 -0.50964,0.65957 -1.84553,2.89549 -2.70927,2.8831 -1.03507,-0.0161 -5.18131,-1.0023 -5.4597,-0.20542 -0.0229,0.0448 2.58415,2.62497 2.86481,3.97935 z"
       id="path4637"
       inkscape:connector-curvature="0" />
    <path
       inkscape:export-ydpi="48.274723"
       inkscape:export-xdpi="48.274723"
       inkscape:export-filename="/home/substack/media/vector/wizard_hat_dull.png"
       inkscape:connector-curvature="0"
       id="path4639"
       d="m 669.95321,641.86868 c -0.27747,-0.25768 -1.0902,-0.49556 -0.83264,-0.77306 0.25781,-0.27757 1.11034,1.03075 0.83264,0.77306 -0.82806,-0.76892 -5.56584,-3.14203 -6.08074,-1.38251 -0.42364,1.44777 2.79596,4.94003 2.86961,6.92815 0.0229,0.29699 -3.30858,4.94631 -1.82859,4.89145 2.41395,-0.0895 5.66443,-2.4208 5.73877,-2.42354 1.11353,-0.0414 1.76157,2.79843 2.33435,3.33025 0.47304,0.43928 1.36584,1.35632 1.85832,1.33804 0.13497,-0.005 0.49249,-0.11295 0.40145,-0.016 -0.0732,0.0799 0.366,-0.96905 0.32711,-2.02198 -0.0595,-1.57396 -0.90972,-2.85674 -0.95158,-3.98446 -0.0229,-0.52023 2.88791,-1.02283 3.16652,-1.32334 0.91728,-0.98788 2.10813,-1.85275 1.94777,-1.68004 -0.45566,0.49061 -1.00785,-0.95671 -1.65039,-1.14478 -0.79993,-0.2341 -3.36897,-0.66296 -3.67229,-1.47177 -0.36348,-0.9694 -0.95546,-5.19026 -1.79908,-5.15895 -0.0481,10e-4 -1.50241,3.36327 -2.66123,4.11833 z"
       style="fill:#a9805c;fill-opacity:1;stroke:#ffffff;stroke-width:0.80339450000000001px;stroke-linecap:butt;stroke-linejoin:miter;stroke-opacity:0" />
    <path
       inkscape:connector-curvature="0"
       inkscape:export-ydpi="48.274723"
       inkscape:export-xdpi="48.274723"
       inkscape:export-filename="/home/substack/media/vector/wizard_hat_dull.png"
       id="path4641"
       d="m 761.10765,679.24996 c -0.80745,2.7773 -5.86931,11.68182 -8,13.8125 -2.74047,2.74047 -5.09735,5.59735 -7.5,8 -1.70259,1.70259 -6.5623,6.0623 -8,7.5 -3.12608,3.12608 -4.95763,1.95764 -8.5,5.5 -1.75585,1.75585 -5.29026,1.79027 -7,3.5 -1.54647,1.54648 -13.95318,2.47659 -17,4 -0.73735,0.36868 -2.93946,-0.56054 -3.5,0 -2.18892,2.18892 -19.48597,2.98597 -20,3.5 -2.64829,2.6483 -9.69851,-0.40074 -13.5,1.5 -3.37117,1.68559 -10.06338,0.5 -14,0.5 -2.18005,0 -7.97241,-0.0414 -13.9375,-0.1875 -1.40817,-0.19932 -2.51742,-0.35758 -2.5625,-0.3125 -0.0302,0.0302 -0.16526,0.16848 -0.25,0.25 -1.12039,-0.0345 -2.19933,-0.0814 -3.28125,-0.125 -0.67355,-0.25644 -1.38832,-0.41521 -1.96875,-0.125 -0.0269,0.0134 -0.0653,0.0182 -0.0937,0.0312 -4.65453,-0.22498 -8.45314,-0.55469 -9.40625,-1.03125 -3.91258,-1.95629 -8.11454,-2.5 -13,-2.5 -7.64655,0 -24.57784,-9.03892 -30.5,-12 -0.907,-0.4535 -3.42235,-3.09053 -4.78125,-3.8125 -0.0107,-0.5233 -0.0293,-0.99808 -0.21875,-1.1875 -1.39335,-1.39335 -2.00341,-4.50682 -3,-6.5 -0.41467,-0.82934 0,-3.8693 0,-3.5 0,0.0163 1.005,-4 1,-4 -0.85673,0 -5.33773,5.83773 -7,7.5 -0.0155,0.0155 0.0313,0.10582 0.0625,0.1875 -0.93681,1.29118 -1.59375,3.21803 -1.59375,6.125 0,9.9101 5.46609,10.43484 10.59375,15.5625 1.25897,1.25897 3.95425,0.423 4.9375,1.40625 1.0039,1.0039 2.47735,1.89558 4.21875,2.6875 -2.17807,1.27698 -6.37449,1.59324 -7.75,2.96875 -1.34529,1.34529 -7.58269,5.21322 -9.90625,6.375 -0.43685,0.21843 -2.5504,0.45665 -2.8125,0.71875 -13.20862,13.20862 -28.11529,21.74029 -40.3125,33.9375 -1.02686,1.02686 -1.40625,14.43818 -1.40625,16.96875 0,4.41799 -1.50048,9.09328 1.40625,12 1.22629,1.2263 5.29232,0.35482 6.375,1.4375 0.23471,0.23472 3.19138,2.43362 3.53125,2.09375 1.29034,-1.29034 -0.71875,-8.03657 -0.71875,-9.875 0,-9.65553 1.04206,-19.41706 7.09375,-25.46875 11.66954,-11.66954 28.30791,-16.99541 38.875,-27.5625 3.10619,-3.1062 8.79763,-4.76033 12.9375,-8.15625 -0.14514,0.99585 0.0241,1.93405 0.75,2.71875 0.48256,0.52166 2.20202,-0.51119 2.8125,-0.1875 4.15212,2.20163 16.8059,6.92182 20.53125,2.375 0.67557,1.28451 1.211,2.58601 1.875,3.25 2.48042,2.48042 0.54073,14.44978 -0.71875,16.96875 -4.75215,9.50429 -7.25828,36.94578 -11.3125,41 -0.69997,0.69998 0.83982,7.36713 1.40625,8.5 1.47318,2.94635 -1.07813,9.51561 0,10.59375 1.06066,1.06066 0.37684,3.87684 1.4375,4.9375 0.9656,0.96561 5.37815,-0.24685 6.34375,0.71875 0.38278,0.38278 5.41315,3.8056 6.375,2.84375 0.79702,-0.79702 -2.18182,-9.98865 -2.84375,-11.3125 -0.5702,-1.14041 1.53553,-22.06677 2.125,-22.65625 0.82496,-0.82495 -0.82496,-4.11255 0,-4.9375 1.60637,-1.60637 3.53125,-34.89184 3.53125,-39.59375 0,-0.79361 2.02865,-5.75261 0.71875,-7.0625 -0.007,-0.007 -1.17161,-2.68181 -2.75,-5.28125 2.33105,0.17311 4.29782,0.45407 4.875,1.03125 1.0378,1.03779 21.95885,0 25.4375,0 13.81445,0 35.54683,-1.07029 43.84375,-2.84375 3.30743,-0.70696 11.15118,-1.32559 15.5625,-3.53125 2.56075,-1.28038 11.58015,-2.15631 13.15625,-2.5625 3.368,-0.868 14.19115,-3.4724 17.21875,-6.5 2.24545,-2.24546 9.9233,-10.02415 12.75,-11.4375 3.18679,-1.59339 4.78714,-7.25365 6.65625,-9.875 0.2399,-1.94072 5.46285,-7.01179 4.4375,-9.0625 -1.16356,-4.73514 -1.89083,-9.63041 -3.75,-9.8125 z"
       style="fill:#a9805c;fill-opacity:1;stroke:#ffffff;stroke-width:1px;stroke-linecap:butt;stroke-linejoin:miter;stroke-opacity:0" />
  </g>
</svg>
